<mxfile host="app.diagrams.net" modified="2023-12-13T20:57:21.765Z" agent="Mozilla/5.0 (Windows NT 10.0; Win64; x64) AppleWebKit/537.36 (KHTML, like Gecko) Chrome/120.0.0.0 Safari/537.36" etag="aaiwf-GO6jyTbcpAtrUK" version="22.1.8" type="device" pages="4">
  <diagram name="ActivityChart" id="oDupk-FMPXV4E4s_OF5n">
    <mxGraphModel dx="2003" dy="507" grid="1" gridSize="10" guides="1" tooltips="1" connect="1" arrows="1" fold="1" page="1" pageScale="1" pageWidth="827" pageHeight="1169" math="0" shadow="0">
      <root>
        <mxCell id="0" />
        <mxCell id="1" parent="0" />
        <mxCell id="Sw15mcLpqIkYUfUt5M2m-1" value=":QAOA" style="shape=umlLifeline;perimeter=lifelinePerimeter;whiteSpace=wrap;html=1;container=1;dropTarget=0;collapsible=0;recursiveResize=0;outlineConnect=0;portConstraint=eastwest;newEdgeStyle={&quot;curved&quot;:0,&quot;rounded&quot;:0};" parent="1" vertex="1">
          <mxGeometry x="140" y="170" width="100" height="1630" as="geometry" />
        </mxCell>
        <mxCell id="Sw15mcLpqIkYUfUt5M2m-11" value="" style="html=1;points=[[0,0,0,0,5],[0,1,0,0,-5],[1,0,0,0,5],[1,1,0,0,-5]];perimeter=orthogonalPerimeter;outlineConnect=0;targetShapes=umlLifeline;portConstraint=eastwest;newEdgeStyle={&quot;curved&quot;:0,&quot;rounded&quot;:0};" parent="Sw15mcLpqIkYUfUt5M2m-1" vertex="1">
          <mxGeometry x="45" y="64" width="10" height="1526" as="geometry" />
        </mxCell>
        <mxCell id="Sw15mcLpqIkYUfUt5M2m-12" value="compile(problem_qubo)" style="html=1;verticalAlign=bottom;endArrow=block;curved=0;rounded=0;entryX=0;entryY=0;entryDx=0;entryDy=5;" parent="Sw15mcLpqIkYUfUt5M2m-1" target="Sw15mcLpqIkYUfUt5M2m-11" edge="1">
          <mxGeometry relative="1" as="geometry">
            <mxPoint x="-120" y="70" as="sourcePoint" />
          </mxGeometry>
        </mxCell>
        <mxCell id="Sw15mcLpqIkYUfUt5M2m-13" value="None" style="html=1;verticalAlign=bottom;endArrow=open;dashed=1;endSize=8;curved=0;rounded=0;exitX=0;exitY=1;exitDx=0;exitDy=-5;" parent="Sw15mcLpqIkYUfUt5M2m-1" source="Sw15mcLpqIkYUfUt5M2m-11" edge="1">
          <mxGeometry relative="1" as="geometry">
            <mxPoint x="-210" y="1585" as="targetPoint" />
          </mxGeometry>
        </mxCell>
        <mxCell id="Sw15mcLpqIkYUfUt5M2m-14" value=":DeviceBase" style="shape=umlLifeline;perimeter=lifelinePerimeter;whiteSpace=wrap;html=1;container=1;dropTarget=0;collapsible=0;recursiveResize=0;outlineConnect=0;portConstraint=eastwest;newEdgeStyle={&quot;curved&quot;:0,&quot;rounded&quot;:0};" parent="1" vertex="1">
          <mxGeometry x="390" y="170" width="100" height="1530" as="geometry" />
        </mxCell>
        <mxCell id="Sw15mcLpqIkYUfUt5M2m-18" value="" style="html=1;points=[[0,0,0,0,5],[0,1,0,0,-5],[1,0,0,0,5],[1,1,0,0,-5]];perimeter=orthogonalPerimeter;outlineConnect=0;targetShapes=umlLifeline;portConstraint=eastwest;newEdgeStyle={&quot;curved&quot;:0,&quot;rounded&quot;:0};" parent="Sw15mcLpqIkYUfUt5M2m-14" vertex="1">
          <mxGeometry x="45" y="80" width="10" height="80" as="geometry" />
        </mxCell>
        <mxCell id="Sw15mcLpqIkYUfUt5M2m-19" value="check_connection()" style="html=1;verticalAlign=bottom;endArrow=block;curved=0;rounded=0;entryX=0;entryY=0;entryDx=0;entryDy=5;" parent="1" source="Sw15mcLpqIkYUfUt5M2m-1" target="Sw15mcLpqIkYUfUt5M2m-18" edge="1">
          <mxGeometry relative="1" as="geometry">
            <mxPoint x="365" y="255" as="sourcePoint" />
          </mxGeometry>
        </mxCell>
        <mxCell id="Sw15mcLpqIkYUfUt5M2m-21" value="/*Connect to the&lt;br&gt;&amp;nbsp; device/QPU specified*/" style="text;html=1;align=center;verticalAlign=middle;resizable=0;points=[];autosize=1;strokeColor=none;fillColor=none;" parent="1" vertex="1">
          <mxGeometry x="450" y="270" width="150" height="40" as="geometry" />
        </mxCell>
        <mxCell id="Sw15mcLpqIkYUfUt5M2m-22" value=":Workflow" style="shape=umlLifeline;perimeter=lifelinePerimeter;whiteSpace=wrap;html=1;container=1;dropTarget=0;collapsible=0;recursiveResize=0;outlineConnect=0;portConstraint=eastwest;newEdgeStyle={&quot;curved&quot;:0,&quot;rounded&quot;:0};" parent="1" vertex="1">
          <mxGeometry x="640" y="170" width="100" height="1510" as="geometry" />
        </mxCell>
        <mxCell id="Sw15mcLpqIkYUfUt5M2m-24" value="" style="html=1;points=[[0,0,0,0,5],[0,1,0,0,-5],[1,0,0,0,5],[1,1,0,0,-5]];perimeter=orthogonalPerimeter;outlineConnect=0;targetShapes=umlLifeline;portConstraint=eastwest;newEdgeStyle={&quot;curved&quot;:0,&quot;rounded&quot;:0};" parent="Sw15mcLpqIkYUfUt5M2m-22" vertex="1">
          <mxGeometry x="45" y="182" width="10" height="138" as="geometry" />
        </mxCell>
        <mxCell id="Sw15mcLpqIkYUfUt5M2m-25" value="compile(problem_qubo)" style="html=1;verticalAlign=bottom;endArrow=block;curved=0;rounded=0;entryX=0;entryY=0;entryDx=0;entryDy=5;" parent="1" source="Sw15mcLpqIkYUfUt5M2m-1" target="Sw15mcLpqIkYUfUt5M2m-24" edge="1">
          <mxGeometry x="0.3598" relative="1" as="geometry">
            <mxPoint x="300" y="355" as="sourcePoint" />
            <mxPoint x="1" as="offset" />
          </mxGeometry>
        </mxCell>
        <mxCell id="Sw15mcLpqIkYUfUt5M2m-27" value="&lt;div style=&quot;&quot;&gt;&lt;span style=&quot;background-color: initial;&quot;&gt;/*&lt;/span&gt;&lt;span style=&quot;background-color: initial;&quot;&gt;1-Check that problem_qubo is&lt;/span&gt;&lt;/div&gt;QUBO formulated&lt;br&gt;&lt;br&gt;2-Check that &lt;br&gt;device_qubit_num &amp;gt;= problem_qubit_num&lt;br&gt;&lt;br&gt;3- Generate the atomic id for the compilation */" style="text;html=1;align=left;verticalAlign=middle;resizable=0;points=[];autosize=1;strokeColor=none;fillColor=none;" parent="1" vertex="1">
          <mxGeometry x="700" y="370" width="270" height="110" as="geometry" />
        </mxCell>
        <mxCell id="Sw15mcLpqIkYUfUt5M2m-28" value=":Hamiltonian" style="shape=umlLifeline;perimeter=lifelinePerimeter;whiteSpace=wrap;html=1;container=1;dropTarget=0;collapsible=0;recursiveResize=0;outlineConnect=0;portConstraint=eastwest;newEdgeStyle={&quot;curved&quot;:0,&quot;rounded&quot;:0};" parent="1" vertex="1">
          <mxGeometry x="950" y="170" width="100" height="1520" as="geometry" />
        </mxCell>
        <mxCell id="Sw15mcLpqIkYUfUt5M2m-30" value="" style="html=1;points=[[0,0,0,0,5],[0,1,0,0,-5],[1,0,0,0,5],[1,1,0,0,-5]];perimeter=orthogonalPerimeter;outlineConnect=0;targetShapes=umlLifeline;portConstraint=eastwest;newEdgeStyle={&quot;curved&quot;:0,&quot;rounded&quot;:0};" parent="Sw15mcLpqIkYUfUt5M2m-28" vertex="1">
          <mxGeometry x="45" y="360" width="10" height="80" as="geometry" />
        </mxCell>
        <mxCell id="Sw15mcLpqIkYUfUt5M2m-31" value="classical_hamiltonian(problem_terms,problem_coeffs,problem_constant)" style="html=1;verticalAlign=bottom;endArrow=block;curved=0;rounded=0;entryX=0;entryY=0;entryDx=0;entryDy=5;" parent="1" source="Sw15mcLpqIkYUfUt5M2m-1" target="Sw15mcLpqIkYUfUt5M2m-30" edge="1">
          <mxGeometry relative="1" as="geometry">
            <mxPoint x="280" y="515" as="sourcePoint" />
          </mxGeometry>
        </mxCell>
        <mxCell id="Sw15mcLpqIkYUfUt5M2m-32" value="classical_hamiltonian" style="html=1;verticalAlign=bottom;endArrow=open;dashed=1;endSize=8;curved=0;rounded=0;exitX=0;exitY=1;exitDx=0;exitDy=-5;" parent="1" source="Sw15mcLpqIkYUfUt5M2m-30" target="Sw15mcLpqIkYUfUt5M2m-1" edge="1">
          <mxGeometry relative="1" as="geometry">
            <mxPoint x="280" y="585" as="targetPoint" />
          </mxGeometry>
        </mxCell>
        <mxCell id="Sw15mcLpqIkYUfUt5M2m-33" value="// save classical_hamiltonian as&lt;br&gt;// cost_hamil" style="text;html=1;align=center;verticalAlign=middle;resizable=0;points=[];autosize=1;strokeColor=none;fillColor=none;" parent="1" vertex="1">
          <mxGeometry x="185" y="573" width="190" height="40" as="geometry" />
        </mxCell>
        <mxCell id="Sw15mcLpqIkYUfUt5M2m-34" value="/*Create the problem&lt;br&gt;classical hamiltonian*/" style="text;html=1;align=center;verticalAlign=middle;resizable=0;points=[];autosize=1;strokeColor=none;fillColor=none;" parent="1" vertex="1">
          <mxGeometry x="1010" y="553" width="140" height="40" as="geometry" />
        </mxCell>
        <mxCell id="Sw15mcLpqIkYUfUt5M2m-35" value="// get and save the mixer hamiltonian&lt;br&gt;//as mixer_hamil" style="text;html=1;align=center;verticalAlign=middle;resizable=0;points=[];autosize=1;strokeColor=none;fillColor=none;" parent="1" vertex="1">
          <mxGeometry x="190" y="625" width="220" height="40" as="geometry" />
        </mxCell>
        <mxCell id="Sw15mcLpqIkYUfUt5M2m-36" value=":QAOADescriptor" style="shape=umlLifeline;perimeter=lifelinePerimeter;whiteSpace=wrap;html=1;container=1;dropTarget=0;collapsible=0;recursiveResize=0;outlineConnect=0;portConstraint=eastwest;newEdgeStyle={&quot;curved&quot;:0,&quot;rounded&quot;:0};" parent="1" vertex="1">
          <mxGeometry x="1170" y="170" width="100" height="1520" as="geometry" />
        </mxCell>
        <mxCell id="Sw15mcLpqIkYUfUt5M2m-38" value="" style="html=1;points=[[0,0,0,0,5],[0,1,0,0,-5],[1,0,0,0,5],[1,1,0,0,-5]];perimeter=orthogonalPerimeter;outlineConnect=0;targetShapes=umlLifeline;portConstraint=eastwest;newEdgeStyle={&quot;curved&quot;:0,&quot;rounded&quot;:0};" parent="Sw15mcLpqIkYUfUt5M2m-36" vertex="1">
          <mxGeometry x="44" y="500" width="10" height="520" as="geometry" />
        </mxCell>
        <mxCell id="Sw15mcLpqIkYUfUt5M2m-39" value="__init__(cost_hamil, mixer_hamil, p, routing_function,device)" style="html=1;verticalAlign=bottom;endArrow=block;curved=0;rounded=0;entryX=0;entryY=0;entryDx=0;entryDy=5;" parent="Sw15mcLpqIkYUfUt5M2m-36" source="Sw15mcLpqIkYUfUt5M2m-1" edge="1">
          <mxGeometry x="0.0356" relative="1" as="geometry">
            <mxPoint x="-40" y="506" as="sourcePoint" />
            <mxPoint x="44" y="506" as="targetPoint" />
            <Array as="points">
              <mxPoint x="-450" y="506" />
            </Array>
            <mxPoint x="1" as="offset" />
          </mxGeometry>
        </mxCell>
        <mxCell id="Sw15mcLpqIkYUfUt5M2m-42" value=":AnsatzDescriptor" style="shape=umlLifeline;perimeter=lifelinePerimeter;whiteSpace=wrap;html=1;container=1;dropTarget=0;collapsible=0;recursiveResize=0;outlineConnect=0;portConstraint=eastwest;newEdgeStyle={&quot;curved&quot;:0,&quot;rounded&quot;:0};" parent="1" vertex="1">
          <mxGeometry x="1430" y="175" width="100" height="1525" as="geometry" />
        </mxCell>
        <mxCell id="Sw15mcLpqIkYUfUt5M2m-46" value="" style="html=1;points=[[0,0,0,0,5],[0,1,0,0,-5],[1,0,0,0,5],[1,1,0,0,-5]];perimeter=orthogonalPerimeter;outlineConnect=0;targetShapes=umlLifeline;portConstraint=eastwest;newEdgeStyle={&quot;curved&quot;:0,&quot;rounded&quot;:0};" parent="Sw15mcLpqIkYUfUt5M2m-42" vertex="1">
          <mxGeometry x="45" y="515" width="10" height="80" as="geometry" />
        </mxCell>
        <mxCell id="Sw15mcLpqIkYUfUt5M2m-47" value="__init__(algorithm = &#39;QAOA)" style="html=1;verticalAlign=bottom;endArrow=block;curved=0;rounded=0;entryX=0;entryY=0;entryDx=0;entryDy=5;" parent="1" source="Sw15mcLpqIkYUfUt5M2m-36" target="Sw15mcLpqIkYUfUt5M2m-46" edge="1">
          <mxGeometry relative="1" as="geometry">
            <mxPoint x="1410" y="695" as="sourcePoint" />
          </mxGeometry>
        </mxCell>
        <mxCell id="Sw15mcLpqIkYUfUt5M2m-49" value="\* save p and important info about&lt;br&gt;mixer and cost hamiltonians */" style="text;html=1;align=center;verticalAlign=middle;resizable=0;points=[];autosize=1;strokeColor=none;fillColor=none;" parent="1" vertex="1">
          <mxGeometry x="1226" y="778" width="200" height="40" as="geometry" />
        </mxCell>
        <mxCell id="Sw15mcLpqIkYUfUt5M2m-54" value="/*with self.block_setter() method, it creates&lt;br&gt;the cost block and mixer block with&amp;nbsp;&lt;br&gt;the GateMap() objects.*/" style="text;html=1;align=center;verticalAlign=middle;resizable=0;points=[];autosize=1;strokeColor=none;fillColor=none;" parent="1" vertex="1">
          <mxGeometry x="1216" y="840" width="250" height="60" as="geometry" />
        </mxCell>
        <mxCell id="Sw15mcLpqIkYUfUt5M2m-56" value=":HamiltonianMapper" style="shape=umlLifeline;perimeter=lifelinePerimeter;whiteSpace=wrap;html=1;container=1;dropTarget=0;collapsible=0;recursiveResize=0;outlineConnect=0;portConstraint=eastwest;newEdgeStyle={&quot;curved&quot;:0,&quot;rounded&quot;:0};" parent="1" vertex="1">
          <mxGeometry x="1640" y="170" width="120" height="1520" as="geometry" />
        </mxCell>
        <mxCell id="Sw15mcLpqIkYUfUt5M2m-58" value="" style="html=1;points=[[0,0,0,0,5],[0,1,0,0,-5],[1,0,0,0,5],[1,1,0,0,-5]];perimeter=orthogonalPerimeter;outlineConnect=0;targetShapes=umlLifeline;portConstraint=eastwest;newEdgeStyle={&quot;curved&quot;:0,&quot;rounded&quot;:0};" parent="Sw15mcLpqIkYUfUt5M2m-56" vertex="1">
          <mxGeometry x="55" y="740" width="10" height="50" as="geometry" />
        </mxCell>
        <mxCell id="Sw15mcLpqIkYUfUt5M2m-62" value="" style="html=1;points=[[0,0,0,0,5],[0,1,0,0,-5],[1,0,0,0,5],[1,1,0,0,-5]];perimeter=orthogonalPerimeter;outlineConnect=0;targetShapes=umlLifeline;portConstraint=eastwest;newEdgeStyle={&quot;curved&quot;:0,&quot;rounded&quot;:0};" parent="Sw15mcLpqIkYUfUt5M2m-56" vertex="1">
          <mxGeometry x="55" y="810" width="10" height="50" as="geometry" />
        </mxCell>
        <mxCell id="Sw15mcLpqIkYUfUt5M2m-59" value="repeat_gate_maps(mixer_block,p)" style="html=1;verticalAlign=bottom;endArrow=block;curved=0;rounded=0;entryX=0;entryY=0;entryDx=0;entryDy=5;" parent="1" source="Sw15mcLpqIkYUfUt5M2m-36" target="Sw15mcLpqIkYUfUt5M2m-58" edge="1">
          <mxGeometry relative="1" as="geometry">
            <mxPoint x="1625" y="915" as="sourcePoint" />
          </mxGeometry>
        </mxCell>
        <mxCell id="Sw15mcLpqIkYUfUt5M2m-60" value="mixer_blocks" style="html=1;verticalAlign=bottom;endArrow=open;dashed=1;endSize=8;curved=0;rounded=0;exitX=0;exitY=1;exitDx=0;exitDy=-5;" parent="1" source="Sw15mcLpqIkYUfUt5M2m-58" target="Sw15mcLpqIkYUfUt5M2m-36" edge="1">
          <mxGeometry relative="1" as="geometry">
            <mxPoint x="1625" y="985" as="targetPoint" />
          </mxGeometry>
        </mxCell>
        <mxCell id="Sw15mcLpqIkYUfUt5M2m-66" value="qureg = // n_qubits" style="text;html=1;align=center;verticalAlign=middle;resizable=0;points=[];autosize=1;strokeColor=none;fillColor=none;" parent="1" vertex="1">
          <mxGeometry x="1216" y="1030" width="120" height="30" as="geometry" />
        </mxCell>
        <mxCell id="Sw15mcLpqIkYUfUt5M2m-68" value="//Get the variational params with&lt;br&gt;// create_qaoa_variational_params()" style="text;html=1;align=center;verticalAlign=middle;resizable=0;points=[];autosize=1;strokeColor=none;fillColor=none;" parent="1" vertex="1">
          <mxGeometry x="200" y="1100" width="220" height="40" as="geometry" />
        </mxCell>
        <mxCell id="Sw15mcLpqIkYUfUt5M2m-74" value="No object&lt;br&gt;(qaoa_backend.py)" style="shape=umlLifeline;perimeter=lifelinePerimeter;whiteSpace=wrap;html=1;container=1;dropTarget=0;collapsible=0;recursiveResize=0;outlineConnect=0;portConstraint=eastwest;newEdgeStyle={&quot;curved&quot;:0,&quot;rounded&quot;:0};" parent="1" vertex="1">
          <mxGeometry x="1870" y="170" width="120" height="1530" as="geometry" />
        </mxCell>
        <mxCell id="Sw15mcLpqIkYUfUt5M2m-75" value="" style="html=1;points=[[0,0,0,0,5],[0,1,0,0,-5],[1,0,0,0,5],[1,1,0,0,-5]];perimeter=orthogonalPerimeter;outlineConnect=0;targetShapes=umlLifeline;portConstraint=eastwest;newEdgeStyle={&quot;curved&quot;:0,&quot;rounded&quot;:0};" parent="Sw15mcLpqIkYUfUt5M2m-74" vertex="1">
          <mxGeometry x="54" y="1050" width="10" height="220" as="geometry" />
        </mxCell>
        <mxCell id="Sw15mcLpqIkYUfUt5M2m-76" value="get_qaoa_backend(qaoa_descriptor,device, **backend_dict)" style="html=1;verticalAlign=bottom;endArrow=block;curved=0;rounded=0;entryX=0;entryY=0;entryDx=0;entryDy=5;" parent="1" source="Sw15mcLpqIkYUfUt5M2m-1" target="Sw15mcLpqIkYUfUt5M2m-75" edge="1">
          <mxGeometry relative="1" as="geometry">
            <mxPoint x="1790" y="1225" as="sourcePoint" />
          </mxGeometry>
        </mxCell>
        <mxCell id="Sw15mcLpqIkYUfUt5M2m-77" value="backend" style="html=1;verticalAlign=bottom;endArrow=open;dashed=1;endSize=8;curved=0;rounded=0;exitX=0;exitY=1;exitDx=0;exitDy=-5;" parent="1" source="Sw15mcLpqIkYUfUt5M2m-75" target="Sw15mcLpqIkYUfUt5M2m-1" edge="1">
          <mxGeometry relative="1" as="geometry">
            <mxPoint x="270" y="1440" as="targetPoint" />
          </mxGeometry>
        </mxCell>
        <mxCell id="Sw15mcLpqIkYUfUt5M2m-78" value="backend_dict = &lt;br&gt;self.backend_properties.__dict__.copy()" style="text;html=1;align=center;verticalAlign=middle;resizable=0;points=[];autosize=1;strokeColor=none;fillColor=none;" parent="1" vertex="1">
          <mxGeometry x="190" y="1150" width="240" height="40" as="geometry" />
        </mxCell>
        <mxCell id="Sw15mcLpqIkYUfUt5M2m-79" value="No object&lt;br&gt;(qaoa_backend.py)" style="shape=umlLifeline;perimeter=lifelinePerimeter;whiteSpace=wrap;html=1;container=1;dropTarget=0;collapsible=0;recursiveResize=0;outlineConnect=0;portConstraint=eastwest;newEdgeStyle={&quot;curved&quot;:0,&quot;rounded&quot;:0};" parent="1" vertex="1">
          <mxGeometry x="2143" y="170" width="120" height="1550" as="geometry" />
        </mxCell>
        <mxCell id="Sw15mcLpqIkYUfUt5M2m-82" value="" style="html=1;points=[[0,0,0,0,5],[0,1,0,0,-5],[1,0,0,0,5],[1,1,0,0,-5]];perimeter=orthogonalPerimeter;outlineConnect=0;targetShapes=umlLifeline;portConstraint=eastwest;newEdgeStyle={&quot;curved&quot;:0,&quot;rounded&quot;:0};" parent="Sw15mcLpqIkYUfUt5M2m-79" vertex="1">
          <mxGeometry x="56" y="1070" width="10" height="80" as="geometry" />
        </mxCell>
        <mxCell id="Sw15mcLpqIkYUfUt5M2m-83" value="device_to_backend_mapper(device)" style="html=1;verticalAlign=bottom;endArrow=block;curved=0;rounded=0;entryX=0;entryY=0;entryDx=0;entryDy=5;" parent="1" source="Sw15mcLpqIkYUfUt5M2m-74" target="Sw15mcLpqIkYUfUt5M2m-82" edge="1">
          <mxGeometry relative="1" as="geometry">
            <mxPoint x="2046" y="1245" as="sourcePoint" />
          </mxGeometry>
        </mxCell>
        <mxCell id="Sw15mcLpqIkYUfUt5M2m-86" value="/*If through compile()&amp;nbsp; we send an invalid device,&lt;br&gt;&amp;nbsp;we will get the exception in page 1*/" style="text;html=1;align=center;verticalAlign=middle;resizable=0;points=[];autosize=1;strokeColor=none;fillColor=none;" parent="1" vertex="1">
          <mxGeometry x="2200" y="1270" width="280" height="40" as="geometry" />
        </mxCell>
        <mxCell id="Sw15mcLpqIkYUfUt5M2m-84" value="reference to a backend_class()" style="html=1;verticalAlign=bottom;endArrow=open;dashed=1;endSize=8;curved=0;rounded=0;exitX=0;exitY=1;exitDx=0;exitDy=-5;" parent="1" source="Sw15mcLpqIkYUfUt5M2m-82" target="Sw15mcLpqIkYUfUt5M2m-74" edge="1">
          <mxGeometry x="0.0019" relative="1" as="geometry">
            <mxPoint x="2129" y="1315" as="targetPoint" />
            <mxPoint as="offset" />
          </mxGeometry>
        </mxCell>
        <mxCell id="oCmyYP7pr3xFvVx9gfH_-1" value="/* Create the instance of &lt;br&gt;backend_class(qaoa_descriptor)*/" style="text;html=1;align=center;verticalAlign=middle;resizable=0;points=[];autosize=1;strokeColor=none;fillColor=none;" parent="1" vertex="1">
          <mxGeometry x="1930" y="1335" width="200" height="40" as="geometry" />
        </mxCell>
        <mxCell id="mU6L7HNmjxaAw3aRuoAc-1" value="cost_blocks" style="html=1;verticalAlign=bottom;endArrow=open;dashed=1;endSize=8;curved=0;rounded=0;" parent="1" edge="1">
          <mxGeometry relative="1" as="geometry">
            <mxPoint x="197" y="1070" as="targetPoint" />
            <mxPoint x="1216" y="1070" as="sourcePoint" />
          </mxGeometry>
        </mxCell>
        <mxCell id="Sw15mcLpqIkYUfUt5M2m-64" value="cost_blocks" style="html=1;verticalAlign=bottom;endArrow=open;dashed=1;endSize=8;curved=0;rounded=0;exitX=0;exitY=1;exitDx=0;exitDy=-5;" parent="1" source="Sw15mcLpqIkYUfUt5M2m-62" target="Sw15mcLpqIkYUfUt5M2m-38" edge="1">
          <mxGeometry relative="1" as="geometry">
            <mxPoint x="1220" y="1095" as="targetPoint" />
          </mxGeometry>
        </mxCell>
        <mxCell id="Sw15mcLpqIkYUfUt5M2m-63" value="repeat_gate_maps(cost_block,p)" style="html=1;verticalAlign=bottom;endArrow=block;curved=0;rounded=0;entryX=0;entryY=0;entryDx=0;entryDy=5;" parent="1" source="Sw15mcLpqIkYUfUt5M2m-36" target="Sw15mcLpqIkYUfUt5M2m-62" edge="1">
          <mxGeometry relative="1" as="geometry">
            <mxPoint x="1220" y="1025" as="sourcePoint" />
          </mxGeometry>
        </mxCell>
        <mxCell id="Gg8EoqTkq4HEwJrWqN-j-1" value="/* if spam_twirling error mititgation&lt;br&gt;technique was setted, it add a &lt;br&gt;SPAMTwirlingWrapper&lt;br&gt;to the backend*/&lt;br&gt;&lt;br&gt;backend = SPAMTwirlingWrapper" style="text;html=1;align=center;verticalAlign=middle;resizable=0;points=[];autosize=1;strokeColor=none;fillColor=none;" parent="1" vertex="1">
          <mxGeometry x="200" y="1470" width="200" height="100" as="geometry" />
        </mxCell>
        <mxCell id="Gg8EoqTkq4HEwJrWqN-j-2" value="&lt;font color=&quot;#ff0000&quot;&gt;THIS PART IS IMPORTANT,&lt;br&gt;IS WHERE WE COULD ADD A&lt;br&gt;THE ZNE ERROR MITIGATION&lt;br&gt;TECHNIQUE&lt;/font&gt;" style="text;html=1;align=center;verticalAlign=middle;resizable=0;points=[];autosize=1;strokeColor=none;fillColor=none;" parent="1" vertex="1">
          <mxGeometry x="-5" y="1470" width="190" height="70" as="geometry" />
        </mxCell>
        <mxCell id="Gg8EoqTkq4HEwJrWqN-j-3" value="No object&lt;br&gt;(qaoa_optimizer.py)" style="shape=umlLifeline;perimeter=lifelinePerimeter;whiteSpace=wrap;html=1;container=1;dropTarget=0;collapsible=0;recursiveResize=0;outlineConnect=0;portConstraint=eastwest;newEdgeStyle={&quot;curved&quot;:0,&quot;rounded&quot;:0};" parent="1" vertex="1">
          <mxGeometry x="2470" y="170" width="120" height="1570" as="geometry" />
        </mxCell>
        <mxCell id="Gg8EoqTkq4HEwJrWqN-j-5" value="" style="html=1;points=[[0,0,0,0,5],[0,1,0,0,-5],[1,0,0,0,5],[1,1,0,0,-5]];perimeter=orthogonalPerimeter;outlineConnect=0;targetShapes=umlLifeline;portConstraint=eastwest;newEdgeStyle={&quot;curved&quot;:0,&quot;rounded&quot;:0};" parent="Gg8EoqTkq4HEwJrWqN-j-3" vertex="1">
          <mxGeometry x="55" y="1430" width="10" height="80" as="geometry" />
        </mxCell>
        <mxCell id="Gg8EoqTkq4HEwJrWqN-j-6" value="get_optimizer(backend,variate_params)" style="html=1;verticalAlign=bottom;endArrow=block;curved=0;rounded=0;entryX=0;entryY=0;entryDx=0;entryDy=5;edgeStyle=orthogonalEdgeStyle;" parent="1" source="Sw15mcLpqIkYUfUt5M2m-1" target="Gg8EoqTkq4HEwJrWqN-j-5" edge="1">
          <mxGeometry x="-0.0003" relative="1" as="geometry">
            <mxPoint x="350" y="1680" as="sourcePoint" />
            <Array as="points">
              <mxPoint x="1160" y="1605" />
              <mxPoint x="1160" y="1605" />
            </Array>
            <mxPoint as="offset" />
          </mxGeometry>
        </mxCell>
        <mxCell id="Gg8EoqTkq4HEwJrWqN-j-9" value="//Select one valid optimizer" style="text;html=1;align=center;verticalAlign=middle;resizable=0;points=[];autosize=1;strokeColor=none;fillColor=none;" parent="1" vertex="1">
          <mxGeometry x="2530" y="1630" width="170" height="30" as="geometry" />
        </mxCell>
        <mxCell id="Gg8EoqTkq4HEwJrWqN-j-7" value="optimizer" style="html=1;verticalAlign=bottom;endArrow=open;dashed=1;endSize=8;curved=0;rounded=0;exitX=0;exitY=1;exitDx=0;exitDy=-5;edgeStyle=orthogonalEdgeStyle;" parent="1" source="Gg8EoqTkq4HEwJrWqN-j-5" target="Sw15mcLpqIkYUfUt5M2m-1" edge="1">
          <mxGeometry relative="1" as="geometry">
            <mxPoint x="2390" y="1690" as="targetPoint" />
            <Array as="points">
              <mxPoint x="690" y="1675" />
              <mxPoint x="690" y="1675" />
            </Array>
          </mxGeometry>
        </mxCell>
        <mxCell id="Gg8EoqTkq4HEwJrWqN-j-11" value="//set header properties" style="text;html=1;align=center;verticalAlign=middle;resizable=0;points=[];autosize=1;strokeColor=none;fillColor=none;" parent="1" vertex="1">
          <mxGeometry x="200" y="1700" width="140" height="30" as="geometry" />
        </mxCell>
      </root>
    </mxGraphModel>
  </diagram>
  <diagram id="BzUMfbM0G8niO9HiFAAd" name="ClassChart">
    <mxGraphModel dx="1176" dy="1676" grid="1" gridSize="10" guides="1" tooltips="1" connect="1" arrows="1" fold="1" page="1" pageScale="1" pageWidth="827" pageHeight="1169" math="0" shadow="0">
      <root>
        <mxCell id="0" />
        <mxCell id="1" parent="0" />
        <mxCell id="tfjh0CTLJ3QGft80ACT7-1" value="VQABaseBackend" style="html=1;whiteSpace=wrap;" vertex="1" parent="1">
          <mxGeometry x="400" y="240" width="110" height="50" as="geometry" />
        </mxCell>
        <mxCell id="tfjh0CTLJ3QGft80ACT7-10" style="edgeStyle=orthogonalEdgeStyle;rounded=0;orthogonalLoop=1;jettySize=auto;html=1;entryX=0;entryY=0.5;entryDx=0;entryDy=0;" edge="1" parent="1" source="tfjh0CTLJ3QGft80ACT7-2" target="tfjh0CTLJ3QGft80ACT7-5">
          <mxGeometry relative="1" as="geometry" />
        </mxCell>
        <mxCell id="tfjh0CTLJ3QGft80ACT7-2" value="QAOABaseBackend" style="html=1;whiteSpace=wrap;" vertex="1" parent="1">
          <mxGeometry x="400" y="380" width="110" height="50" as="geometry" />
        </mxCell>
        <mxCell id="tfjh0CTLJ3QGft80ACT7-7" style="edgeStyle=orthogonalEdgeStyle;rounded=0;orthogonalLoop=1;jettySize=auto;html=1;entryX=0;entryY=0.5;entryDx=0;entryDy=0;" edge="1" parent="1" source="tfjh0CTLJ3QGft80ACT7-3" target="tfjh0CTLJ3QGft80ACT7-6">
          <mxGeometry relative="1" as="geometry" />
        </mxCell>
        <mxCell id="tfjh0CTLJ3QGft80ACT7-3" value="QAOABaseBackend&lt;br&gt;Statevector" style="html=1;whiteSpace=wrap;" vertex="1" parent="1">
          <mxGeometry x="250" y="535" width="130" height="50" as="geometry" />
        </mxCell>
        <mxCell id="tfjh0CTLJ3QGft80ACT7-8" style="edgeStyle=orthogonalEdgeStyle;rounded=0;orthogonalLoop=1;jettySize=auto;html=1;entryX=0;entryY=0.5;entryDx=0;entryDy=0;" edge="1" parent="1" source="tfjh0CTLJ3QGft80ACT7-4" target="tfjh0CTLJ3QGft80ACT7-6">
          <mxGeometry relative="1" as="geometry" />
        </mxCell>
        <mxCell id="tfjh0CTLJ3QGft80ACT7-4" value="QAOABaseBackend&lt;br&gt;ShotBased" style="html=1;whiteSpace=wrap;" vertex="1" parent="1">
          <mxGeometry x="520" y="535" width="130" height="50" as="geometry" />
        </mxCell>
        <mxCell id="tfjh0CTLJ3QGft80ACT7-11" style="edgeStyle=orthogonalEdgeStyle;rounded=0;orthogonalLoop=1;jettySize=auto;html=1;" edge="1" parent="1" source="tfjh0CTLJ3QGft80ACT7-5" target="tfjh0CTLJ3QGft80ACT7-1">
          <mxGeometry relative="1" as="geometry" />
        </mxCell>
        <mxCell id="tfjh0CTLJ3QGft80ACT7-5" value="" style="triangle;whiteSpace=wrap;html=1;rotation=-90;" vertex="1" parent="1">
          <mxGeometry x="440" y="310" width="30" height="40" as="geometry" />
        </mxCell>
        <mxCell id="tfjh0CTLJ3QGft80ACT7-9" style="edgeStyle=orthogonalEdgeStyle;rounded=0;orthogonalLoop=1;jettySize=auto;html=1;" edge="1" parent="1" source="tfjh0CTLJ3QGft80ACT7-6" target="tfjh0CTLJ3QGft80ACT7-2">
          <mxGeometry relative="1" as="geometry" />
        </mxCell>
        <mxCell id="tfjh0CTLJ3QGft80ACT7-6" value="" style="triangle;whiteSpace=wrap;html=1;rotation=-90;" vertex="1" parent="1">
          <mxGeometry x="440" y="470" width="30" height="40" as="geometry" />
        </mxCell>
        <mxCell id="tfjh0CTLJ3QGft80ACT7-12" value="QAIABaseBackend&lt;br&gt;Cloud" style="html=1;whiteSpace=wrap;" vertex="1" parent="1">
          <mxGeometry x="190" y="240" width="110" height="50" as="geometry" />
        </mxCell>
        <mxCell id="tfjh0CTLJ3QGft80ACT7-13" value="DeviceBase" style="html=1;whiteSpace=wrap;" vertex="1" parent="1">
          <mxGeometry x="700" y="240" width="110" height="50" as="geometry" />
        </mxCell>
        <mxCell id="tfjh0CTLJ3QGft80ACT7-15" style="edgeStyle=orthogonalEdgeStyle;rounded=0;orthogonalLoop=1;jettySize=auto;html=1;" edge="1" parent="1" source="tfjh0CTLJ3QGft80ACT7-14" target="tfjh0CTLJ3QGft80ACT7-13">
          <mxGeometry relative="1" as="geometry" />
        </mxCell>
        <mxCell id="tfjh0CTLJ3QGft80ACT7-18" style="edgeStyle=orthogonalEdgeStyle;rounded=0;orthogonalLoop=1;jettySize=auto;html=1;entryX=0.5;entryY=0;entryDx=0;entryDy=0;" edge="1" parent="1" source="tfjh0CTLJ3QGft80ACT7-14" target="tfjh0CTLJ3QGft80ACT7-17">
          <mxGeometry relative="1" as="geometry" />
        </mxCell>
        <mxCell id="tfjh0CTLJ3QGft80ACT7-21" style="edgeStyle=orthogonalEdgeStyle;rounded=0;orthogonalLoop=1;jettySize=auto;html=1;exitX=0.75;exitY=0;exitDx=0;exitDy=0;" edge="1" parent="1" source="tfjh0CTLJ3QGft80ACT7-14" target="tfjh0CTLJ3QGft80ACT7-20">
          <mxGeometry relative="1" as="geometry">
            <mxPoint x="520" y="-40" as="sourcePoint" />
            <mxPoint x="945" y="55" as="targetPoint" />
          </mxGeometry>
        </mxCell>
        <mxCell id="6xP_ha1uj3AP3WvxZfg0-1" style="edgeStyle=orthogonalEdgeStyle;rounded=0;orthogonalLoop=1;jettySize=auto;html=1;" edge="1" parent="1" source="tfjh0CTLJ3QGft80ACT7-14" target="tfjh0CTLJ3QGft80ACT7-1">
          <mxGeometry relative="1" as="geometry" />
        </mxCell>
        <mxCell id="tfjh0CTLJ3QGft80ACT7-14" value="QAOA" style="html=1;whiteSpace=wrap;" vertex="1" parent="1">
          <mxGeometry x="400" y="-20" width="110" height="50" as="geometry" />
        </mxCell>
        <mxCell id="tfjh0CTLJ3QGft80ACT7-16" value="1" style="text;html=1;align=center;verticalAlign=middle;resizable=0;points=[];autosize=1;strokeColor=none;fillColor=none;" vertex="1" parent="1">
          <mxGeometry x="730" y="210" width="30" height="30" as="geometry" />
        </mxCell>
        <mxCell id="tfjh0CTLJ3QGft80ACT7-17" value="Hamiltonian" style="html=1;whiteSpace=wrap;" vertex="1" parent="1">
          <mxGeometry x="190" y="100" width="110" height="50" as="geometry" />
        </mxCell>
        <mxCell id="tfjh0CTLJ3QGft80ACT7-19" value="2(cost and&lt;br&gt;mixer)" style="text;html=1;align=center;verticalAlign=middle;resizable=0;points=[];autosize=1;strokeColor=none;fillColor=none;" vertex="1" parent="1">
          <mxGeometry x="160" y="60" width="80" height="40" as="geometry" />
        </mxCell>
        <mxCell id="tfjh0CTLJ3QGft80ACT7-20" value="QAOADescriptor" style="html=1;whiteSpace=wrap;" vertex="1" parent="1">
          <mxGeometry x="880" y="100" width="110" height="50" as="geometry" />
        </mxCell>
        <mxCell id="tfjh0CTLJ3QGft80ACT7-22" value="1" style="text;html=1;align=center;verticalAlign=middle;resizable=0;points=[];autosize=1;strokeColor=none;fillColor=none;" vertex="1" parent="1">
          <mxGeometry x="940" y="60" width="30" height="30" as="geometry" />
        </mxCell>
      </root>
    </mxGraphModel>
  </diagram>
  <diagram id="1KysnJVaVC0nRL32DcJ_" name="Page1">
    <mxGraphModel dx="-478" dy="-662" grid="1" gridSize="10" guides="1" tooltips="1" connect="1" arrows="1" fold="1" page="1" pageScale="1" pageWidth="827" pageHeight="1169" math="0" shadow="0">
      <root>
        <mxCell id="0" />
        <mxCell id="1" parent="0" />
        <mxCell id="fasyP74kSTeA-cHdXuYK-1" value="&lt;pre style=&quot;box-sizing: border-box; overflow: auto; font-family: monospace; display: block; padding: 1px 0px; margin: 0px; line-height: inherit; color: rgb(0, 0, 0); word-break: break-all; overflow-wrap: break-word; background-color: rgb(255, 255, 255); border: 0px; border-radius: 0px; vertical-align: baseline; font-style: normal; font-variant-ligatures: normal; font-variant-caps: normal; letter-spacing: normal; orphans: 2; text-align: left; text-indent: 0px; text-transform: none; widows: 2; word-spacing: 0px; -webkit-text-stroke-width: 0px; text-decoration-thickness: initial; text-decoration-style: initial; text-decoration-color: initial;&quot;&gt;&lt;font style=&quot;font-size: 18px;&quot;&gt;&lt;b style=&quot;&quot;&gt;EXCEPTION &lt;/b&gt;&lt;span style=&quot;font-weight: 400;&quot;&gt;The device &amp;lt;openqaoa.backends.devices_core.DeviceLocal object at 0x0000024C54BBE680&amp;gt; is not supported.&lt;/span&gt;&lt;/font&gt;&lt;/pre&gt;&lt;pre style=&quot;box-sizing: border-box; overflow: auto; font-family: monospace; display: block; padding: 1px 0px; margin: 0px; line-height: inherit; color: rgb(0, 0, 0); word-break: break-all; overflow-wrap: break-word; background-color: rgb(255, 255, 255); border: 0px; border-radius: 0px; vertical-align: baseline; font-style: normal; font-variant-ligatures: normal; font-variant-caps: normal; font-weight: 400; letter-spacing: normal; orphans: 2; text-align: left; text-indent: 0px; text-transform: none; widows: 2; word-spacing: 0px; -webkit-text-stroke-width: 0px; text-decoration-thickness: initial; text-decoration-style: initial; text-decoration-color: initial;&quot;&gt;&lt;font style=&quot;font-size: 18px;&quot;&gt;Please choose from dict_keys([&#39;vectorized&#39;, &#39;analytical_simulator&#39;, &#39;pyquil.statevector_simulator&#39;,&lt;/font&gt;&lt;/pre&gt;&lt;pre style=&quot;box-sizing: border-box; overflow: auto; font-family: monospace; display: block; padding: 1px 0px; margin: 0px; line-height: inherit; color: rgb(0, 0, 0); word-break: break-all; overflow-wrap: break-word; background-color: rgb(255, 255, 255); border: 0px; border-radius: 0px; vertical-align: baseline; font-style: normal; font-variant-ligatures: normal; font-variant-caps: normal; font-weight: 400; letter-spacing: normal; orphans: 2; text-align: left; text-indent: 0px; text-transform: none; widows: 2; word-spacing: 0px; -webkit-text-stroke-width: 0px; text-decoration-thickness: initial; text-decoration-style: initial; text-decoration-color: initial;&quot;&gt;&lt;font style=&quot;font-size: 18px;&quot;&gt; &#39;qiskit.qasm_simulator&#39;, &#39;qiskit.shot_simulator&#39;, &#39;qiskit.statevector_simulator&#39;])&lt;/font&gt;&lt;/pre&gt;" style="text;whiteSpace=wrap;html=1;" parent="1" vertex="1">
          <mxGeometry x="2440" y="1230" width="990" height="160" as="geometry" />
        </mxCell>
        <mxCell id="fasyP74kSTeA-cHdXuYK-2" value="" style="shape=image;verticalLabelPosition=bottom;labelBackgroundColor=default;verticalAlign=top;aspect=fixed;imageAspect=0;image=data:image/png,iVBORw0KGgoAAAANSUhEUgAABo8AAAGLCAYAAAAWMAtyAAAAAXNSR0IArs4c6QAAAARnQU1BAACxjwv8YQUAAAAJcEhZcwAADsMAAA7DAcdvqGQAAP+lSURBVHhe7N0HfBRl/sfxbxqBFEICoRNACNKkiIgKFsSGFQt6op6HpyJ3yt2Jnqeof08PO96JnooF7hRBxYJ4igXEAioindBCM5SEJCSEJISQwn+eyWSz2WySTYOEfN68lswzu5nszsw+M/P85vk9flFRUUcEAAAAAAAAAAAAWPydnwAAAAAAAAAAAADBIwAAAAAAAAAAAJQgeAQAAAAAAAAAAAAXgkcAAAAAAAAAAABwIXgEAAAAAAAAAAAAF4JHAAAAAAAAAAAAcCF4BAAAAAAAAAAAABeCRwAAAAAAAAAAAHAheAQAAAAAAAAAAAAXgkcAAAAAAAAAAABwIXgEAAAAAAAAAAAAF4JHAAAAAAAAAAAAcCF4BAAAAAAAAAAAABeCRwAAAAAAAAAAAHAheAQAAAAAAAAAAAAXgkcAAAAAAAAAAABwIXgEAAAAAAAAAAAAF4JHAAAAAAAAAAAAcCF4BAAAAAAAAAAAABeCRwAAAAAAAAAAAHAheAQAAAAAAAAAAAAXgkcAAAAAAAAAAABwIXgEAAAAAAAAAAAAF4JHAAAAAAAAAAAAcCF4BAAAAAAAAAAAABeCRwAAAAAAAAAAAHAheAQAAAAAAAAAAAAXgkcAAAAAAAAAAABwIXgEAAAAAAAAAAAAF4JHAAAAAAAAAAAAcCF4BAAAAAAAAAAAABeCRwAAAAAAAAAAAHAheAQAAAAAAAAAAAAXgkcAAAAAAAAAAABw8YuKijriTAOoVSM0+YP7NSSiqBT/wXka/3LRdG0JG3C5xv1utM48sZ3CgpyZeVla9eYo3TPbKaNxs3a6BVfHFk1nLNUTV0/SwqISAAAAAAAAAHjVYHsehXUaqTEPPKvpM+dq/vwFWrDA7fHFfM2fM11THxunkZ3CnN8Aji+9fzdVM5+doJF93QJHRlCYQls40wAAAAAAAAAAVFHDCx5Fj9CEl+Zq7oyJuuXcAYppG6Yg94ZzIyBIQZEx6n36aE2cMUfPXu/MB44TYRdO1t9v7C1XaLQgT+k74xW/OUGJGXnOTAAAAAAAAAAAqq5BBY/CLrxfb715vy7v4aU3UUGe8ry2mQfRC6PBC1PMhWN0/1PTNWf2IxrhzG28YnTLb4Yo0ikpfamm3jhSo8eO1/g/3KKbrh5Z6+nxGhJXr8Q5c/TIec5MAAAAAAAAAIDPGk7wqOs4PfPnEWrn1ssoa/N8TXtsvEafd57Ou3CkRo60flrTo//wiKbNW6qEDOeFaNjGP6Pp996iEYNiFNnEs5tZIxQ2SgM6OdPK06p3JmleilNs9Kx6orhXYmSQ2FsAAAAAAAAAoOoaTPDo8jtGKtbVEpyupVNHa9QfpmjOt/FWqbT0zYs1Z+ok3XL1aD0xL15p+c4TwPHgtDaKcialHYr/wJkEAAAAAAAAAKAWNJDg0Wid1bskVV3W8rc0aZ5nyMibdC2cOl6TXnOKAAAAAAAAAAAAqFDDCB4N6q42zZxp5WnLz/OcaQAAAAAAAAAAANSmhhE8igxTuDMJAAAAAAAAAACAuuMXFRV1xJmux8bp5QWjFeuUspZP1aj7atr7yH2ZWVr65ChNWmAXKjBCkz+4X0MiikrxH5yn8S8XTZdizVxwtfNuM5bqiasnaaGZDhugy8ffqFGn9rEH8y+Wl5OuxPXfa86L0zV/Z5Yztzzlve8wDRg1TjdecZr6tI9UUID9AmvheUpPitP370zV9C8SrN+oikgNufoWjb5ogLq3bacwV+8vS4613NQ4/fS/OZr+wdIy406VVc66CxumCf8Yp3N7Wcs377kgT+vfG6m4wQs0urv90sq5r2NvwmI08vpxGn3ByWrXPKhk3eRkKXFnnBZ/PE1vV2ndhCnmwhs07oph6tPJbb1Y7z0rZYdWff4fPT/TrBMf9xcfjHhsru4/vSR1Y0WyfnxCox4qXhvl7C+9RuuRu6/VkBhnXylI1MLHb9IT39ovLCt6iEb/brRG9u+udtFhJevQUrT//qT5H0zXnJ99SCdZ3vcjeoTGTbhB5w1op8hmzvfDXqfx+v796Zo2d5X3beS+vEpV9l13tu015+nkjta6Kf6aOts27tt5mjZ7vhIq3FnK+45GasRt9+gGj/0wLyNR8T9Z36OX52lVVb6gxdvEqk9K79fpSnCvT8pb3+UI6zRSN9w+UkN6xpZerrUO8g5Y73XjKi2YNVXzNjjzAQAAAAAAABx3GsiYR0uVkORMWsIG3aTJF/rWkF5fhA2dqOmzn9WECweUChwZQc0iFTPock2cMUfT/zJMVf5kYcM08bU5evbOkRrQyS1wZAQFKbLTAF1+73TNeW2ihvm08DANuH6y3vpkjiaPt5bZ1SNwZDQrWu7I8ZM155PpmnhupPNEFfQarWdnPKLL+zqBIyMgSEFNnOla0Ps663PMtt7fdUPs9V5q3TQLU7seQzS6Kusm+nI98qa1ne4drSE9PNaL9d7D2sZq2O8ma9ab92tkPd1F7X3xuXEa1tVtXwkIV1jp3bJI2ACNeewtzZ89WePMvtu2dODIKNp/R2rc43M031qPI6KdJ6qg9++mau7M+zX69JiSwJFhr9PeGnnns5r5wi3q7cyuE9b+OLl425p1474+nG075DrzPbb2p6FV3Li9btHUD+bofi/7YVBEO/W+cIKenTlVt/RyZlbI+n7+3qwvZ5uU2a+d+uT1mZr6u6qssUhd/tBbmjNjorUdepddrvluRsao9+mXa+Q5zjwAAAAAAAAAx6UGEjxapRc+X688p2T3iLl7pqb+fkDVAy3HQJMLJ2vG30cqxgk0mJ4GCZvjFb89UVklH8oSpJhLJumZ8VVo8A0YqckzHtHIrk5Lt+lNs91a9uYEJWaUWriCuo7UpGfHVdIAH6aRD7ysJ34/RO3cAyN5xcuNV0JSlvIKnPlGsxjrd2ZUsaG6tybcfYsGlBNzStxR9Lfsh/X3XPLSi9ad+2NTgvY5T7vrPf5lTbmt9OfIS08o+p2d6aU+g71uXpigIU7ZKxMAeG2ChrV3iyqYHilJZZcZ1H6EJjx7roKLijW2LyGu5PNut/6OM9/0bEksnu884hK8rQ2Htb/cf7e1L3oLFHkKs177yhO65fR21p5ZwrX/lrOP3f+ar0GQIlFmO93Y29XzLH2n92WH9Rqjv/99hFNys9tZ//bD+k45s613qnRnny15xCnBW+eoXuP08tPjNMR925oePPbvJCg9x5lnmP39wamacLpTrkxLs+wx6u30QCveB8t8j8J6a8yjj8jLJ3TjfD+vd9ZXMbf36lpvAWHqfePfNbmTL3uhtdzHXtWEs922tWtbWA9TV+WU3h4AAAAAAAAAjl8NJG2dYRo3Z2ji6aWjDXkp6zX/tf/T1K99SJdVSnmppSpSnbR1CUpQjGKs38naPE8v/N9ULUwpeqqISZM1To/cWRJckhK18KGb9MSPTrGU0u87YbsU0zXM+jvxmvfvB8qsB5OCatzDE0qCS5bEryfppseXOqXS7ICL9d6LX52XtFRvTX1Ws8qkI4vUkBvv0Z03DFE716Iret8e6275KrUbNEBhOYla+u40TZu72F5Pw0ZN0HnN7tEjrxW9zlZqfVaedssIMwG7e4dY77KI93UfqRETHtddl8daW6FI+etmiO6fOVkj2jpFa93Hz5umJ6Z7pjBzlnmJtUz3xn1LTdLWlXLeZM392xDnPcdrznnjNc2e9qb0/rJqeZoGDIop2l+mP6e3Po1XenSsRv5unAasvEdPuL4DvTXulSka3d21Jyjxx7f04tRZWlpqHVqih2jMhDt1k3uQKWmhJt34hLzuZe7bMydd6YGRigwy6/MFPTB1YakUiJHnTtSUe92DXQmad9stmmrt995V43sdZgKwEzXEtbNY62Zq2e9S5LkT9PiEyxVbvLOU+xnd30Oe0q3FREYGed8Ho0do4tP3aGQn1wdUwrxbdMvUBKdUWtiNUzXnd70r/X6GDRij++++qXQwzCjv+1Nqn8pTwhfPauIzpbdFkaJUlgPypmhaTTOHAgAAAAAAAKi3GkjPIyNL8x+6XVO/TXTrdSEFRffW5Q/M0fw3n9W46qROq2sRRYGj9B+n6MY/eAYvjCwlfDFFt/x1juJdH6ydzhpziyugUb6wosBR+lJNuXm81wBa1s75mnLbRM3ZUrLW2p15g27xtvCu4+xAiqthesscTbxxkpfAkZGupTMn6aa7S7/vEbdPUIxTqkiXfn0UlhevOX+9SZNmLi4KwGQlaPFMj8BRtYzQ/beXBI7Sf56qsV7XfboWTh2vBz6Id+1T5a2bmAnj3AJH1mefOlbjp3ob+6ZomTc+58s4UEdbsPr0s7ZO8f5iAkdmdkq85j/jHjiyPu/4uzTKLXAU/8FE3fSQl8CRkbJUsx66SRPd1qPamvGLfNgTmhUFjtbPfMBan2WDFelfT9GEfy21viXFYjT4+gHOdO0Ycd+4ksCRtW6m3ub9u5T+9VSNv99tf297lm74XWXf0qCiwNGGWXrA2z6YslBT7pqqpRlO2RJz6g3y/gkv1yPXuAWOtszT/Xd4/35mrZqlSb8t/b2vyLAze5TUN1vmaoLXwJFh7fsfEDgCAAAAAAAAjncNKHhkpGveYzdpzOPzFO/W2GoEtR+g0XYQabLGDKisQfco2zNf//fQfLcGcC82TNMLXyY6Bevz9BqsG3z6GIma//Akza9w4es17fkF1isdQb01+KayC7/8jpGKLW6Zzlql6fdMs36zEtb7vvdtt5SCnc7ULT6k8zLjyax/+15Nq4NB92Mm3ODq4WR6WrzywLxyGsKLrH/5PyVBkaBYDRjlTLuM0LizSwIhWT9P1xPzKlqi9ZovJunZr0u2Z/0QZK33RC18rrL95XJNuLAkiJi1arrufbnSPcFaj/fqrQ0lwYqY02+pOA2gI2vV23rgP+UvP+uLafp+j1OwtOvoy1J91HWCbji9+LuQpaXTJmmetwBZMWt//88Pxds+SLGDLnemK2B9l96+f3r536Ws+Zq22G1faRvjdb2FmfHHit9qXoLmPz9Vqyr73t/zltb7ED/q06Yk8J6VsqXiugoAAAAAAADAca+BBY+K2D0Arh6tJ95dpUT3sUgsQe2H6JZn5+itx8aUNLQeU3la9fGUyoMwlvWvLXJr6O2iPmWCGGXlrZqnKb4EYDZM0yK3hv0uvT0bvS/XWSeWrLAEax3P8bEFOWvmx1rhCuZFqttwH3qGZKzQxzProok6RqMGlgR6Er6dVmmKO2mplm4vfi9Biuk90pl2nHeu+hQHo5Sgr1+rJBDoWDrb2j+d6Xpjy2K94DWtoJvLz1J3165gfd5/z/ExmJClWR+vKHltdDedO8iZLleW4j6vbPkJWrjRbU22ialkXCDfxVw2oKSn3M6vNa3S1JXWdv15s+v9BrXvI4+9pYystfMr/S4lfLfebV9pp5jznEmXMN3Q30n1Z8laM1dTffneZ83S93GVR4+2pJS8wbDuZ/oU9AMAAAAAAABw/GqQwaMi6Vr42j266bLRemLe+tID2itI7U6/Rc++NlmXRzuzjpkdiv/AmaxM1gL96ur1YH2G2GHOdPl2bJrjTFUmSwu2pTrT1tLb9lCppQ/qozaugEGi4j7xPuaKdwu1antJA7UvPUPytq/yIahTHcPU3ZVezvfP8f2eNGdKCosqnW5twKkxJSm99sRpbrnj7XiwPmOCRw+5Yy1xU+WBrwF921Tv8xoLVmmL67vYTjEnO5PlyUtQnA8Bm1Xplb3r6hkW286ZstbNmrnyaW9ZsleuvSUiqpI0jXlK2OTDnr48rZLtcrn6dHYmrWVu+dn3vHFztu5wpsq3cJlbb6PoYXrktYka2akkmAwAAAAAAACgcWnAwaNiZoyZCRp9/S2aMi9eWQXObCN6iCa8NFkjj2UbaEaatjiTlUtQYkZJECbIP9iZKk+W0qrQsJ+Qkl6SXs4/SKWW3qudWjmTykjQ+qoEDCzzd7j1DIluVzow5UXq7qXOVC0b1FmRxfnW1E4jX1ugBQsqf8wdVX4IIDbKtWaUl5zgW4ChXsrT3oTK333vdiWfN2vX+ip+3vlKSHImLa06VrInHMzUXmfy6BugziU7i9pdMt3rvlHmMfdyn8b1KpKrTLf1UW1d27nt16lKXOFM1pZ50zXfbXykoK4jNXHGXM15bbLGXegWPAUAAAAAAADQKBwHwSNHVoLmTx2vUX+epqVJbmmaIodo3COjG0zj5979uc5UHUjKVLlLDw9yjXFjHHZ++iqrwG3JnoEpL7IO1VEIJjJM4c5ktUWXTosWFVayZnJzSnooNTy5yvWhJ1S4GZCqWEGV9wTlugVwKw+AHkstFdbMmaw2bynm6kC3KLf9OktZVQzuVm69pt0xUdOWlx7LK7LrEI2+d7rmzn1LUyeMVAxRJAAAAAAAAKBROH6CR8U2zNGkO6ZqqVsbaNiAkbqlq1Oo57q3rMPW2a5RjawHQZYSN8crvqqPTQna5ywBjUdWkpd9odJHnBJKx1sasPWac99ojbpnuhZv9/hQYe3U+/KJmj77LT1yeaQzEwAAAAAAAMDx6vgLHhlZ8zXprVUlY3goRr3K9A7IVJ5bB6X6IUzBbp0+8gprtxdSWLBbL5DCvPJ7IVVDWIDbsrPTFO9MHluJWvyH8Rpf1ccD07TKWQKqytqHA5xJS2Za/dgTfJG4xMu+UOljkqYtdxZwnMhaNUuP3DZa511vfbYv1ivRfTCmZu00bMKrmnwhXZAAAAAAAACA49nxGTwy5sXLbRQehUUPcKaK7VXmQWdSYYryqWdSG4WHOJNV0MT5WbmRimnrTCpPifGLnekKuDXUV2Zkl3bOlLX0pM0qtfR4twH7I2I0oIo9tc5sH+VMWcvOSDx24wItSHDb7q3U7mxnsgYS0kpaz8NadnemfNFdURHOZAOyJcXt83YeUIXxfYwz1ca1K+QpPaU+jxC1UAkpzqSlVdvKRuo6hn7aq5KEiVXbr4e1LRnDqkpSlmrOMxN006hRuueNVUp3pSOM1JDb7y+V2hEAAAAAAADA8eX4DR55yEqvuC9JWJgPTeTn9VGM+8BAvoiIUW9fAzGXD1F31xgsqfp1iTNZrjDF9Pa1af9yDele8uZTt3kEphbEKcHVE6ud+lxWlZDBEA3pWtITYcf6ec7UsRCnva6MW5HqNtQzaFh1cSmZzpSlax+NcSYrdXWsujiTDcnCTQly7Qrt+2hUVQKJpw9RD1fAbIfi5jqT9VRcyc6iyG5nquZ7Sx3JSlRajjNdpf06xvpu1jTNXJZWzb5HY191680Z0UNn1kJgFgAAAAAAAED9dPwGjy6PlVs/G2UnO5MupXsdtOs3qpIeFmEafVEf6/+qaqczb/HlHv0YjbvYbfk7l2mOD4Pitxs2zqceADHjR6qPa+EJWjbXs0fILP20pSSPX8zZ4zTSxw8bduMNGhLtFPLWa9lb7nmujrbFWrGt5O+3O/VGja76Risl4bv1Jb2Zgnpr5F96O4WK9NbEKwaoqrHGemHmT4p37QoxOve2kT7u92EaM2aIikMVeRuW6e1juSv4YPHyX0sCIm2H6Mara7iz1Jk5WrGj5Pvp634ddvUEndneKdRQ1gfuvTmDFNQgd24AAAAAAAAAvmgYwaPz7tfUp8ZpRHGAojJhIzX5pgElDd558VrxgTPtZmmCW2K7TudqXAXjeIRdeL+uHVC9huWw0++odIyQ3uPv1yhXz6A8rV843bfUbxFDdMdjlTTu9xqn+y+PdQUy8jYs0HQvgalZs74raRy2ljvh2XGqNExiLfuZG3q7lp31y8eaXtsBg+Tskp4wEe3cgmDezZu7tORzhA3QLb58DmsNDrj+Wb38kJdQ3PK3tWynM21pd8FdGtfLKXgVppGP/V0ja6nR/uibpbe/L/luhJ06Qc+Mr3wN9h7/jG7q5doTtOLj6SWBmaMmTdmuHjphatezsp1ljpYmOdNmH7j1mUq2bZGwAWP07EuPHNXUbbO+iitZn9Z+fe19lX/vn7nVrR6swIjrRlf+Heka5rasTGWVdNoCAAAAAAAAcJxpID2PwhQzaLTun71Ac2e+rMkTRmtY35gyjaJhnXpr5G3P6q3ZEzXElakpT/HzXtEsp+Ru1exlbgGaMA3581RNPNczxVNRUGHG3aZHRZayXA3TVRGpIffO1MsTRrh6ZbiEDdCYx97SlKvdgjtb5uqVmb43u0eePlEzX5rgJbhm3vtkvfXcaMW6Fh6vuS/N8t6o/+MLmvVjSYtwUPfRmjJzssac6i3tlfWZbvRYdvpSTXtqoVOoRSsSlepMmp4wZ1bWaO7tc7xZ3uew9q0Lx+nZN+fo2d8PUDuvA1QlaOrbi+VaYlCsRj/3liZf76VhPnqIxjw1QxNPt/5WXqISM5z5DczSqbO0tOQDK/bqKXrrsTElPczcmc/ssQ+n/zhNTyxwCkfVUiW6BTVizr6/kh50S/XCW0tLb9unrW17Y0kPKndhnUZq3FNvac6zt2hAm+JPe5TMm6r5m0t6H1X0vY+5cKKmP1303UxMclsh5eg+fJymfjBdj9w4TDHe1lf0CE18+LyS3pxJ6/X1cmcaAAAAAAAAwHHHLyoq6ogzXX+dN1lz/zbEe8CgIE95h6WgZt4bctN/nqrbH5hX0jjsYcTf5+j+oR7NxDnpStiZqtygMLXr2E5h9qLzFP/BdKWdN05DnDFd4j84T+NfLpouxZq54OrYoumMpZq3vocuN8EEw3q/6Xt2KDVHCo7uonbNgxQUUPSULX2ppoydpPnlxo7G6eUFo1W09CwtnRunHqPcUoWlJ2hHSq7UrJW6tI30SC2VrqXPjNWkLyoKTPXWLS88rjG9PNZ2XpYSdyUqK896383bqV10WOn3nbVes+6foOkbnHIZIzT5g/srX3dexWjCjOm6vJNTNLISlbAnS7nmczaN07PXP6LSYaveGvfKFI12G+fJlmN9jqTyP0fWj09o1EPeAmBhGvnAy5pwbjtXgMSWZ23PpJLtGRNZ/KxZ19Ol2ydW8zNXoNT3IV5zzhuvafa0Nx77y5OjNMnXoE6vWzT1iTHq7bkrZCQqca+17hWssDbWOowovY6zNszSA3dN13qnXIbH9+OJqyd5bDsvqvA7MROma/rlbkkoC6xtnmC2ebBadQpX3POj9YjHOuhtLd89+GWzvqtZKdZnPWB9n0xd0NaqC1xjklnKfR/VWec+/k5l26RUnWXN3zJHE1cP0NRK1t24VxZY3xWnYKl4G/tSjwAAAAAAAABoyBpGz6O8vJK0ZZ4CgrwHjnIStfSNezS2gsCRsfD//k+zNng0gjaLVEyPWMV2LQkcJX49Vfe+nGY/XVVxD7n9Dev9Rnaylm0t3wQa3AMXedvn65EKA0debJyk/5u53tWTKCgyxl52bCePwFFOgub/ny8Nvus1/a4b9cjceGUVOLMM0yjd1XnfbT0CLpvn6YnbKgoc1VSCpr46TwnuO0FYu6JtZD5nEy/b3/oc0+65X7PWeW7bCj7HzqV6e1Z5IYkszX98vCZ/mlB6X7RWsvv2tBWka9Vr/2et68NF5YZqw3RNuPERzdtceh0GRTjrvkdM6aBCQZbi5z2hsRUFjo6ChKnTNG+n21YKKN7mMYq06gqve8vL9+r+2db3yH2ft76rYW2d75OpC9wDR1kJWvre25UHvWqb2Sb3T9Mqt/HaDNc2cdVZRfXJ5Hum+bYtCp2fjnK3sVWvLp56O4EjAAAAAAAA4DjXMIJH3z6i0deP15T/zNfSdfFKSM9TXo5HOMn0QDI9htYt1byXJ2n0ZTdp0uxVrqBK+YqCJbc8M0+rdqabOFUJ09tm81LNeXyMbnp8vg/LKk/J31iflKU89wZq0xPG/I1nbtHo26ZocTX+yPr/TNCNY6do3rrE0mn1TM+JpHgtfXeKbrn+Fk1Z4uvCs7T4xfEadeMkTftilRI837PF9EyI/3Gepj0wWqP+MFULPRqza92PUzXh/ulavN3aRp7rb1Oc4p1iKVmrNP3PozT6gWmavzxB6d72mfQErS/+HGMnaU6FATBrvfzT2k7Wup7zY9nlmXWy/otpmnTjaN3z7rEMn9SirMWa+oeSdZiYUXYd2vvYPPO5R2n81IUVBmuPjqWaetf9mv6t2UbOLMN+r3GK2+qUS8nSqjcmlOzzpo7x3Ofd65dRt2jSsdrGG+bonutHa9LL88vWJ6Yn3Paq1yfT/jBaT/xnYVEd6Jma09rP03eu0sL/PGHXq4/MO/ZbGAAAAAAAAEDdahhp6xqa6qTl8lkN0pABAAAAAAAAAABUomH0PAIAAAAAAAAAAMBRQfAIAAAAAAAAAAAALgSPAAAAAAAAAAAA4ELwCAAAAAAAAAAAAC4EjwAAAAAAAAAAAOBC8AgAAAAAAAAAAAAuBI8AAAAAAAAAAADgQvAIAAAAAAAAAAAALn5RUVFHnGkAAAAAAAAAAAA0cvQ8AgAAAAAAAAAAgAvBIwAAAAAAAAAAALgQPAIAAAAAAAAAAIALwSMAAAAAAAAAAAC4EDwCAAAAAAAAAACAC8EjAAAAAAAAAAAAuBA8AgAAAAAAAAAAgAvBIwAAAAAAAAAAALgQPAIAAAAAAAAAAIALwSMAAAAAAAAAAAC4EDwCAAAAAAAAAACAC8EjAAAAAAAAAAAAuBA8AgAAAAAAAAAAgAvBIwAAAAAAAAAAALgQPAIAAAAAAAAAAIALwSMAAAAAAAAAAAC4EDwCAAAAAAAAAACAC8EjAAAAAAAAAAAAuBA8AgAAAAAAAAAAgAvBIwAAAAAAAAAAALgQPAIAAAAAAAAAAIALwSMAAAAAAAAAAAC4EDwCAAAAAAAAAACAC8EjAAAAAAAAAAAAuBA8AgAAAAAAAAAAgAvBIwAAAAAAAAAAALj4RUVFHXGm651fVq1zpgAAAAAAAAAAAFAbThnQ15nyrl4HjwAAAAAAAAAAAHB0kbYOAAAAAAAAAAAALgSPAAAAAAAAAAAA4ELwCAAAAAAAAAAAAC4EjwAAAAAAAAAAAOBC8AgAAAAAAAAAAAAuBI8AAAAAAAAAAADgQvAIAAAAAAAAAAAALgSPAAAAAAAAAAAA4ELwCAAAAAAAAAAAAC4EjwAAAAAAAAAAAOBC8AgAAAAAAAAAAAAuBI8AAAAAAAAAAADgQvAIAAAAAAAAAAAALgSPAAAAAAAAAAAA4ELwCAAAAAAAAAAAAC4EjwAAAAAAAAAAAOBC8AgAAAAAAAAAAAAuBI8AAAAAAAAAAADgQvAIAAAAAAAAAAAALgSPAAAAAAAAAAAA4ELwCAAAAAAAAAAAAC4EjwAAAAAAAAAAAOBC8AgAAAAAAAAAAAAuBI8AAAAAAAAAAADgQvAIAAAAAAAAAAAALgSPAAAAAAAAAAAA4ELwCAAAAAAAAAAAAC4EjwAAAAAAAAAAAOBC8AgAAAAAAAAAAAAuBI8AAAAAAAAAAADgQvAIAAAAAAAAAAAALgSPAAAAAAAAAAAA4ELwCAAAAAAAAAAAAC4EjwAAAAAAAAAAAODiFxUVdcSZRlX5xyri5onq2jNCAcpT9sYPteW/c5Vf6DwPADg2ar1+7qPo+x9UTJRTtGQv+Yc2zo1zSpXgeAE0LuHDFX3TDerUNVR+hdlK+/FtJcxdpALnaQ15VIOuiXUKRrw23/uwMp0SAKC+quE5IQAAQANC8Mhdy6GKGn6Jonq2Vmh4qALd+mXlZ2crZ99mpS/5SCkr4u15ARc+rwHntbani2UseEBbvtjulAAAVeYfoeBBN6nVabGKbNtawU2c+YV5ys1JV/a6Zdq76CMd3JftPFFW7dfPNWso4HgBHCW1UH/UhtCb3lTPfkFOycjT3rd+q11rnCLBIwBwjFLMM9cp2imVJz87Q9m/rtPeL2coc3fd1uEVI3gEAPVOmXPrso7k5yln7y6lr/5IKd8uUwE3cpZWZh1mKOH5O5Syyymi0SJtnRE1XNF/el0n/+1OdR3SVRERpQNHRmBoqMJjBirmwgsV7MzT4TwReQOA2hKkgL53qtvDr6jvtUPVNsat4dfwD1JwaGtFDblEvf72unqNHVWmrnapb/UzxwugjtVi/VELjri6GAEAakNgaIQieg9Vjz9bdfhNFyjAmQ8AgC/8AoMU0qGrOlx8twY88qxadQt1ngFQEYJH3e5Uj/tuV0zHUPk5s3xV8O00bV2fURStLsxT9vp3teMr7iIHgKoLUvAlz6r/zUPVwsdzuJDe16nfX+9UU/cGYkd9q599fj/+EQrseYlaXfO4ejz6vKI7OvMBVKB264/acPCTGUrYnl0UNDZp65bMUGJxryMAQI2E9Bur2Ev6OKVGqElrNe13o6LHPqtekx9UuDMbAOCjZh3U+fbHFVU6OQgALxp32rqYO9Xzj0MVWpUQWtoSrXviReU6RQBAzQUMeVR9r4lVoFOuiiP7FinuyVfruF4+CilK2t6unhOHq6Ttm27igC/qf/3hBWnrAMBRNm1dqXOs8MEKv+xGxQ5sXfpmz+xlinvkOR1yikfPMU5bd/KjOvn6WLd1wfEDACpOuRYqv67nqP01N6qtR7CoYN0Mrfrvl06pkSNtHcrReHse+Q9V2995CRwVZmv/0rna8K8/afm91xc97rtDq/71ojYvWqmMjMPOCwEAtSL8RsVcVbbhNz95pba8dI9W3OfUxY8+p81Ldyvfeb6YX8vh6nRhV6fUgAXWURcI4HhG/QEAx7fMZcqcNVk7PBuvQlvIfWS5RsP60FXNmAIAjVu2jmz/VLtffFcpHk26AT1Odbt5E4A3jTZ4FHjRterg0b/7SHa8tjw1Xlvff1cHdyc7cy2FGSrYvUSZnz2tLS8dg7tTAeC4FaTQURcoyuNolB//rtY987Qytu/WkeKBLE3jwfv3aN378WUagCOGXKmmzjSAxoL6AwAah2Tl5TiTxQ4fVnEVDwBApXLmKv1XZ7pYk2gFu/UkBVBWI01bN1htHr5bHd2DR4UZSnihit3xOt6pnn8aWn6KofKezx+ljjddpdatg+RXGKeN9/1D2c4rTHfK4MFj1facUxXZKkgB/tKR/DxlbV+sXe8vU+i4vx67LvIAUOsuUMfJY9XGvdNNjlUvPmLVi+W2CEQo/PYX1CPW/X7TPO1967faVTymSGX1s62ovo0e2lctoiNKBtcvzFNuZrIyV3+phE++LBqzpNIUJUEKvekN9exX+h7Y7CVPW69ZWeH7CR71ivoOjXDmly/l/euVsNQpAPVBefv1weFqdc0ote3aWsGmS5D5TqXuUNL8aUpdt7vopRa/sx7XwMu6lrqDOu3TO7T9mwynVKyroiY+rq5tnaIlc9ED2vxZbJ3UH2W+k95SFleWdq6mzwNAo1FJ2jpb2fOwQ0ufU5x1fexSTr16sPedirnGurYOt+r95EVa88yrRTcRNItVyMkXKvLkWEW2jFSTUOva3P49KT87WftXfamkzz5VbpnEIzU8Jyzmb517nv57tT9jgCKc634jP2O39q34VImfLyoaK9MRfvts69jlFMrl7XwXABoBH1Oulb329vK6lheo1eUXKLp7B4U41xl2u+yeVdr74TRl7C5pwS1SznFh3n6FXDROHU/rorBmRceYgpxkpX7xqnYt8WzHrdkyml7zuvoMKbkqs35bu1+9VUnxTtHFs/3Fug6a9XvtWpnn8zr0KnywQs88U6169FB4VIiaOO+1uG0lfcm7Svp2Wanjmq1K15ObtXPWP72sfzdV3nbwRePsedRxiHXy6Ew7CtZ/eHROsppbJ8d/uE5tTODIlP2blGwE/1i1+MPL6nvtULWyni8+gfQLDFJ47HD1+vM4tQwumgcAx4XYvmrh3vBryV7xUQUNv0aGMn/arAKnVCRIYZ2qMHCy/0BF3/u6Xd+26eAWODL8gxQc0UGt+vaQx1srX7/71N2jkcD0foh3byQAGoEm/R5Ur/tuV+dY50TfMN+p1rHqfPOz6jlqoDPTOpFf/I2SPRrlIntf5Gq8c2k2VBFugSNzB3raL9uPXf0BADh6wgcrYuxf1MmtQe1I8iJt+dAtcFQO/5g7FXvzUEWFF117+wU2UYD9TB9F//lR9Ro1VG1jrOOVW+DICAxtrVZDb1TfBx9VuEe7QaV8OSeMukQdH3hFfUcNVpTbdb8RaJ2Dthl+u/o//LhatC29HABATQSpaVvPmzbTdHiPM6lQNb34WfX/21h17l0SfDDsdtmYwer+59fV45rhzrGkAn6xiv7rs+o1PFbhxYEUS0Cz1moz6kH1H3tJ2WseT1VYxqHvfva4CS1ULfsPdqbdeF4/Hd6s9NV5TqG6Rinm4bvVc/hgtTJtK27vtbhtpe3Fd6v/X+9UsA9RCHPs7un1erKPtf5fVszJ3m68rcVthzIaZ/Aopr1bVNPIU+rKozNAWtg5lyq6mVMoJULhNz+kbl0rOEFsFqHQ0m8cABo0vw7tVTomnq39cZ534XgRv0OefRNCWndxpipj6tu/KMZjsMxqM2PojepTesyVnDhteX2uRwM1cLyLUNvhfRRSwdll6NC/qGNxo1rhl9b5V+m7v/w691GYx+/7DRkgtzZDHdn+g/YlH6v6AwBQ10KHPqhBz8wuejx8t7r3Di1qiCrMVtqSV7V6yqvKrfBGASNEUZcOLTvGcVU0i1Xs7WPLjKtXLl/OCcNHKebPN6pNJZ3O/UK7qtvtd6lp42yxAYDaF36JWnRyposlxSvLPp4EKXjUFPUe3qHSOj98yO2KOafixoSQ065TTEun4EVg7yvVuptTKEeVlpH8rpK3O9OOprFDPK6VrHkDe5ead2jlF5XceFd7/FoOVc8bLnBK5YlQhysqOnYHKfrS33ukHK/dbYeyGuWpSHBr9yYI46By05zJOhWhqK7lRH+6/V4xvT3uUNq1RBufvFXL7/2tVrwwVymeLR0A0MA1aRHmTBXLV4FnTntvcrLKBGb8gny9O3OYInuWfm320he1YpIzsP7D9yjuvSVK3VcmT4kXQWp6zdjSY+iZNKivP+XzSVju3DuK/u7zS9xSmBqmy7bznqwHKevQMORp/5IZWm1/n27V6reWeXwXgtTm/Btdd3yVuUvOP1aRg92/nxGK6N3BmS6SuvxDO53ksak/AADHypH8fAVE9lFIO1/uqOxgXXs7k94czlDqkk+18aUHSs4BvRy3/NoOVctKGviK+HJOGKHw668qdTNpyTW/9fcfflrbt7vdAR4+WDEXFX2IzFed9/i+Zw4ik56v+P2Tsg4AygqVX9frFPOn69SqVNaCPKUs/rDouqDjOHUdGlHSY6YwWylzn9aK+0zdWvbYEHX+7RXenOBnPZe9zLkmuu8Oxf2Q4aTDLxaqyJ4VZz6o2jIytP/HuNLXOFF91byjM20brIie7sfPDCX/VHkvXl8UZu5W0qKZ2vCve5x1VvSe1322vdR4s4F9z1ELrx0qSvhZ72v3Ww8ULePhF7Vrn/NEsfAeCnfPSlHL2w5lsbqOutKNKiteelemnSP0jAGlI6eZy7TphReVvc80JebpSMK7Snj+U6WVaoABAFRdkJej32EdKY4V5ezWoWUv6tdXXy09xok3MePUZbD7CVieUj9+WCkJNe36DTRMh5ZN09a5Xyrf/j5lK3/Nc9rybbL9nEvb2JLeRV7ukovqOdyZsjS7SJGdnWnjcJz2LeP7BQCNkV8Tc0PBUPWY8Lw6n1PpAEClG5Duu0Or3/7COuMz4pQy5Q79OnemsrdvLzkHdI5bu7c6RVuoQjpV0k3I8OWcMOoqtXEfc886pm1xXfNbclYq7Z1FpXrHhvc6hxQ7AFBlEYr5k9OD9ZnXdfIfRinaoyrPj/9Qu5cW1bihw08tlaEq89vJSliyUkfsNtiiY8POdW71eZMeiuzrTHtj0qu+51wTFWbo0EdvaLfH4KahHSo5jlV1GSu/UGKp5yMU2c/tLopuZ6qV+w0OySuUXis3HMzVrkfv0e7PPtXB3buddWax3nPuore1x72zhn9rNS0V0Cor89unlLTGuUDMWaK9c5bpUFHJEaFmbteHtb7tUAbBI1ugAiqJfNaW/DUzSzWqHNkep3z1UUjH0ne8Hly7SIc8A0WZn9TSFxsA6oeCMm3APtbH1tHLdWeJoyDnoDNVmd3K9TzpGnK3Tn74WXUcdZ1CWrqfelTAL1ZtbnAf3LHoBHTXDx4N5UCjkaHUn5Y40yXy18RbZzzuotSkvTPp5S65gB5uFwD9+ijS7WzVPbXCsak/AAB1zQwSXtSTxrlr+I0vlebes9Q/VK0umajoShqgMr52a0AqzFB+Qnzpu7abtFbTfjcqesyDirnrefV95HX1f2q2eni05wW3qOQP+XpOGNtVpdoum/RRT+vvuVL0mcf9F5R+TXikue0JAFCLMpe+qnWvFqcULdsmGz788dJ1s/XoWWo8uyAFRZV/Y0F2/JJSPW6kZTqY5Ez6qOrLWKZ9v5Q+7rjfgBB8Uo9SnRbSlr7rsfwaaharkMFj1Xbsg+r851esY+qbGvCUdXwtlfwrVE08k4GVkqH04sBRsa3bPMZzclf72w5lNcrgUW6iZ8NeOQOJ1bps7f3J29hKsWrm8eXJ3uNtkPUMFVR6GzwANBz5Vn3s2fW6uXVhXam+fRXpTBbLSvZM41GeZUr9Ir7MiZJfeAe1GTpKvf72uvr+6U6FRFV8qd504FXq4F5356xUPOMcoVFL0yFvN7ns2qUKQzOed8mZu8H6mYkghfePdQv0lE6tcGzqDwDA0ZWt/I0ztP1Vz/S+EeowvKKxE3Yr9TuPBiiX1goZ9az6Pva8+tx0iWIG9lF0TGsFh4YqsBotJL6eEwa3q8Y4C6EtCB4BQE0V5ik3O1lpSz9V3BO/1eb3F7nV0WXbZH1R6Y0Fx0D+oh9KZ6xqO0AR9mfro+a93AImhfFKXVxLY6P4xypi7Cs6+dFH1evaC9Shdx+16hBhHVODFFDnUYfjZ9vVZ40yeKT47fL8ijQdeKUi3Lvv1Qkfc/EDQGOxYbPSncli4adcWcngwBEKP62HRwqPDGXElddAUFbB0se07r9LlFbOLSzBHYeq158fUngFx4XcPR4N4s0GKubygU4BaIzyVejZa9po21ohzqR3nnfJBalFz6HWWepwRbinrPNMrXCM6g8AwDGwa4nSPS7iAzr2KDMYeImD5Vx7m4G1H1XPoR0U7BwvjqTF6df3XtS6J4rGP9pcxfsJOCcEgPqm9PjBy+/7rdY98idtf3+mDqWVSV9w/Mj5UMnr3T9fa0X0i7B+DFWkW5ClYP1iZXq7bquy1gq/9SF1710y5lDurmXa/tZzWvWEGf/oH0pwT1uHBqlxBo/SvtF+z85HTbqq2x/vVNNSg6cdLQdV6MqzXKRJC293zvZR02pEVAGg3sr5ROmebbbhg3XiraPKze8eMGSiTnDPF29UOV9vngrWvajtj/5WK16YoV+Xble2Z1ekZrGKubD8XqlHkuZo+w+lWzFCh45TmxjuD0Vj1VpN3QcvLdbamu9MFslVgUdXJM+75IJ7D1FI/1NLDWpbJrXCMas/LAGBzgQA4OgIkV9tVL3+l6jN6W4Dax+O06an/qHUZUuUm+Y+/pHvfD0nPLw/y5lyZC9TnCs9X3mPhytI1wMAqLkUHS7dtVVpn97hpT4u/dg4N855dX2Sp+zFq0qNERR10mUKPqWPSu6LzVbiYm9Zsaqh47Xq4H5tlbxIG59/TmlrlqkgzW38ozpzPG27+qtxBo+0Xfu+iy/Tjdyv5VD1eewVdbz4AjWNcOvO16S1AjoMVcSoB9X9D7dXcHdTdcXroEckNqLf+SpzbhwzXC1bOtMAcFzI0P6vPAdAlAJjr1OvP92t8K7F6T2C5Nd6qKLGvqL+18R61I952vvFjGrm683TkYQvlfr+A9o46R5t2Vr6LqSmUR2cKW8OK/fjtzwGrYxQx1sfUngtjaPn30iP0mioIhR5sufNL156+mT+Wua8p8xdcqE91Ob0LiW/5zW1wlGqP8JaeKQxClJoLKkOAOCoih0iz2EpjyRtV5WzurfvqBD3Oj1rv/LdG7f8Lyjd69Unvp0THtm9p/T7De2tFp43NFRZIOeLAFAj63RonzPpiDzpsnJvRqv3tn6kve4dJjr2VvtubmlT01Zp/1ZnuqY6tC413p8ykktfV3n0eKp9x9m2q6ca7WnGkaUvamu8l66K/hFqM3ys+jz4SsngWpOf14A/36nuQ/soIqIuuiZt14ENHl2hWg9X7NjrFNzMnEyGyq/rjep6a+lBOAHguBD/grYsyfAYu8SkjhusHn943qmL39TJ996prm7doYuZAYkT11Sl6/kl6vi3RxU9dKiC3W8UCG2vAI/r90oH0S9coqTZHo3XzWJ1wk3l93wo18FsjwbsCLW9yFoODQJoQMLPnqSOg50AUpOuCr3mUcV6NIxl/vJRmYBP2bvkIhTZueSsp9zUCnVQf+QmeIyl1KSPOl1zgQLNKaB1nhg8/O/q3remjX0AAJ9Y9W5gvzvV7abBHr1Y85S8qhbunI46VW2GOsetZgMVdceNalOdS35fzgnjv1dKqQBTqDrc+oI6Dh2sAPu6v2ieX9RghV78V3W//hJnnpucwx43wXZVuyuOxvjNAHC8ylDG6u2lzv/9Yi5Rrz/dqdAObkGXZh0U3PM6Rd/+qFrV6/vItmvfUrfP499VkW7vN3P1pz7eeBGhmD857eJeHj1H9XFe56bbRWoT67SxtLxAbW8Z7tbjqS4cb9uufmrETVLJynz9n9q+qyoNjnUnf9GXSvHIyRzSe5T6Pvqm9aV8XSf/4RJF1dKd7ABQv+Qpd+7Dil+fXaYBuFKZy7TJy4DEFQuSf8tYxYy6U33dbxR4+G51LZVeJFtJPy1ypisQ/4J2eDQ+B8ZepY5nuJ2s+CJtnTI98pKYHhQDnip6fzFDnJlAfeYfqjbXPl70nZr8uHoOaV06YGN9ZxM+L2d8IY+75PxcZ6kVpVaog/pj1WIle6QtCh08Vv0nW5/pqVfU9+KuCqjzFAwA0HiFDn2w5PzMqnf73zRULTyuhe3g/8pqXMvv2qysUnV8kKJHOcetR/+qrl2Dqp9mp9JzwmXaOzeu9M1C5ubVUXdrgH3dbz6zde1//93qOXygIsK93KgQH68Mj/cXesbdzu++omgaxQCgyo5895p2JDkFhxkHueefi29GM8eIZ9X396MUE+txfVMPHVn8TanrGdd1VeF2JS+qxbFe47erVG4I65jW8XanjeVvY9WhpfVe6vi66XjbdvVR476fuXCl0l64XxuW7FbusW4EyPlUCa8vqnDAsiPJ8Ur1zNgCAMeFZGXO+JPirAvqg1Wpj8MHq0tdDEhcmK3UT59SkrceqmXkKfvtmdpb6gaAILW64tEqXsAvU+oX8dVMvwfUB9nK3lf+d+ZIdry2vPiCDpX7Hfe4S65YpakVarn+KPxSifPK/y6azxH/eRVHUwcA1JrcrZ8qrso3DxWruI7Pj39XO6qdzseHc8I1/9C6WSurdrxyl/Oh9vxYtsctAKAmtivtn09r+65q3JBWH1nXM6krPQYDshzZ+rP2e3RcqJG0mdrpJQtEsewl72r3fqdQZ46zbVcPkQyncLcOzr1H6x55WhsXLVNacrZyPc4kC3KydXD3du1eNEPr/jWt6nmVfZXwqjY/9A9tWWm9J7cIcUHmbiV99pxWT3lXB6t3hgwADYBV/y75hzY89IA2fOalPi7MU26GZ2o3c3fqX9TtwqoEkFZr35KV5Sx/t1KXfqq4p8br12+q0DhsnZztnuvREOEfoU433qngKhxpC5Y+pnX/XaTU5DwVVLdRAThm8rVv5j2K+yxOmTl5rpP3gpxkpS6ZqbjHH1ZGWsUBWc+75AzfUivUbv3h7bt45HCGMlbOtT9HZiUZLQEAtasgx6qD1y/R5hfu0LpXZpYep6iK3Ov44mPVkcPWsWrRq1r3+lxVoz9TCR/OCQtWPm0dr/6hzUvilJFR+pzvSL51vEreriTruLnurU+due5Mj9uJipu70v5dGsoAoJaYDgbPj9fqVz7V7oRk5Xpck+RnW8eh+GXa/sZTStnlzKzHDn33s0onNslT8jJvx5WacDsmZbpd/5l27Ln/0EbreHhUmjWOs21X3/hFRUVxvtFg9FH0/Q8qxm2wsewl5ssY55QA4HgXpOBRL6jPUM+xS/KU8v49SljqMX4cgLrT8U71/JP7eIwZSnj+jpqdkHe7W33ucBvXonC7tj7yQC3dIUf9AQAAAOD453fW4xp4WdeS657MZYp79DkvY88CFaPnEQCgATF3tjysrVs97wkNUvRVj6vjwCqOMwSgHglS6LABpQZEL1j/TS2mVqD+AAAAAHC866qWQ9wCR5bMXz4icIRqIXgEAGhgkpXx9odK8WxQNgP1/+ZRRcd4GVwYQP3mH6Hg4X9X975u39/CDO1e+KVTqC3UHwAAAACOU026KvTa+xTjfl9cTrwSF213CkDVkLauQSFtHQAAqCdqnLau7HmNu+wlT1vnOCudEgAAAACgrFGKeeY6RTul0kjRjZqh5xEAAADqlYNrZiiewBEAAAAAVFOe9i/4J4Ej1AjBIwAAABx7hXnKTY7Xr/+9Rxve+lIFzmwAAAAAgI+s66qDu1dqy7/Ga+sX3JCHmiFtHQAAAAAAAAAAAFzoeQQAAAAAAAAAAAAXgkcAAAAAAAAAAABwIXgEAAAAAAAAAAAAF4JHAAAAAAAAAAAAcCF4BAAAAAAAAAAAABeCRwAAAAAAAAAAAHAheAQAAAAAAAAAAAAXgkcAAAAAAAAAAABwIXgEAAAAAAAAAAAAF4JHAAAAAAAAAAAAcCF4BAAAAAAAAAAAABeCRwAAAAAAAAAAAHAheAQAAAAAAAAAAAAXgkcAAAAAAAAAAABwIXgEAAAAAAAAAAAAF4JHAAAAAAAAAAAAcCF4BAAAAAAAAAAAABeCRwAAAAAAAAAAAHAheAQAAAAAAAAAAAAXgkcAAAAAAAAAAABwIXgEAAAAAAAAAAAAF4JHAAAAAAAAAAAAcCF4BAAAAAAAAAAAABeCRwAAAAAAAAAAAHAheAQAAAAAAAAAAAAXgkcAAAAAAAAAAABw8YuKijriTNc7v6xa50wBAAAAAAAAAACgNpwyoK8z5R09jwAAAAAAAAAAAOBC8AgAAAAAAAAAAAAu9TptHQAAAAAAAAAAAI4ueh4BAAAAAAAAAADAheARAAAAAAAAAAAAXAgeAQAAAAAAAAAAwIXgEQAAAAAAAAAAAFwIHgEAAAAAAAAAAMCF4BEAAAAAAAAAAABcCB4BAAAAAAAAAADAheARAAAAAAAAAAAAXAgeAQAAAAAAAAAAwIXgEQAAAAAAAAAAAFwIHgEAAAAAAAAAAMCF4BEAAAAAAAAAAABcCB4BAAAAAAAAAADAheARAAAAAAAAAAAAXAgeAQAAAAAAAAAAwIXgEQAAAAAAAAAAAFwIHgEAAAAAAAAAAMCF4BEAAAAAAAAAAABcCB4BAAAAAAAAAADAheARAAAAAAAAAAAAXPyioqKOONONTnR0tEaPHq1hw4YpJiZGQUFBzjMA6ou8vDwlJCRo8eLFmjNnjlJSUpxncLxpjHVyQUGBUlNT7ceBAweUk5NjTxtmvzdlb5o3b6527drZ061bt1ZISIhCQ0PtabMeGwPqhvqD8ykA1UE9Dnc9e/bUPffcoxNPPFFNmjRx5gJA5Q4fPqxNmzbp2Wef1caNG525QO2qr9c8BYWF9iPfeuw7eFDxyanavGuXtqWl6VfrsT8zS5m5h1VQkG+9upIQgJ+/AgMC1LxpU0WHhSumbbS6RbRQ93bt1LV1tFqGNFOgn5/8/f3lb/30sx7HGueTda/RBo8uvfRS3XffffXqxPSItSWyD+Upv6D6myQ4yF/NggOdEnB8MSeFTz31lP73v/85c3C8qI91cm0qtE7kzEmNeaxbt04fffSRVq1apW3btjmvqF3du3fXwIED7ZPbHj16KDAw0D65NSd5xyPqhmPneP/uAjg6qMcbtwcffFCXXXaZUwKA6vvkk0/0j3/8wykBtaM+XfMcOXJEufn5OnAoV2nZWVq/O1Frdu/W+j2J2p2ervz8POeVtclPwU2C1Tm6lfp27KD+1iPWmm4REqLw4GAFBQZarzj2OJ+sG40yeGS+9A899JBTOoaSVkt7fpFOOE+KiFGhNWtzQoYW/rJbKWmHdKSyiLAXTYMDdN7gjhoQ29L68pKVEMenxx57jIPBcaTe1Mm1zASKvvvuO82dO1crV66074AxQaRjwQSNTK+kM888U1dccYVOOeUUBQQEOM8eP6gbjq7j9bsL4NihHm98CBwBqG0EkFCb6ss1T25evlKys5SYkaF1uxO1fMcObUhMUtbBbOcVR4+fn7+iwsN1UscOOqVLF/Vo01ptmzdXVGiIgupBOwPnk7Wr0QWPTDfDDz/88NhGi3MPSMtektbNkXKs6cjO0qnjpd5XK/dwgTbvzNDML7bolw0pdkS5qqKjmmnoSW103Xnd1SayqTMXOH6YuwmuuuoquqMeB+pFnVxLTAq6uLg4LV26VAsWLNCKFSucZ+qnoUOH2g8TUDKpYo4H1A1Hz/H03QVQf1CPNy7m/OO///2vUwKA2nPzzTeTwg41dqyveUyLcMbBHG3fl6oNSXu1ckeClu/cqazsrHrR08fm56/oiAidEtNJ/WNi1KtdW3WKilSItc6O1XvkfLJ2BTRr1uwRZ7pR+N3vfqdBgwY5paOsIE/a9aM091Zp03fSoVxrnjU/K8MqL7Ce+0aBMaepjfVFGzG4g9q2DFHctjQdziusUh+kgzn52vjrfn2/OlGtWzRTh9ahMmko60MuSqA2mB4TplfHsmXLnDloqI5pnVwL8vPzlZiYaOfWve222/TWW29pyZIl9rz6bqd10mne6+zZs/X+++/bYya1aNHC/tlQ09tRNxw9Df27C6B+oh5vXJ588km1adPGKQFA7TFpvOfNm+eUgOo5Vtc8hUeOKO3gQS3dvkOfrlmructX6st1cdqevNc6TzpcfwJHtiM6eOiQtuzdq19+TdDWlBTtzThgD83SvFkzNbHO7Y52ezTnk7Wr0fU8mjVrlrp16+aUjhITNNoXL619W1rznpTrzPcmrIk06FbpxMulyBO0OzVHs7/aoqVxyUrLMKnsqm5InzYafW5Xndg5QqFNGcQax4etW7dqzJgxTgkN1TGpk2vJZ599ZneHTk1NdebUjsjISPXr10+tWrVS3759FRIS4jxT5KB1EmnGTdqxY4fWrFljnxTVJnN3lUkhc/HFFztzGhbqhqOjIX93AdRv1OONx/fff08PVgB1wvQ8MBkWgJo42tc8JvtUlrXv/rxth77fvFlrd+9R0v79yi/Id15RNUEBgQoJDlZ406ZqZv1sFhio5k2LxigqVlh4RJk5OTpUWKjc/Dxl5xxSVu4hHTqcp/xC0+Oh6poEBimmVZT6d+yk4T1PtNPbNQ06uu3RnE/WnkYXPFq8eLE9aPjRYa3a/QnSpnnSmlnSPh8bGM0N3x16SX2uknperhy/5vplY6oW/LxLS9cn2z2RqsJEeKMignXOwHa64NSOiu0U4TwDNFymwXzYsGFOCQ3V0a2Ta8701nn55ZftwFF2ds1zC5vA0CWXXKJTTz1VsbGx6tKli93zpyrM+zCBpPj4eP3888/69NNP7QBTTYWFhdkBpLvuuktt27Z15tZ/1A1HR0P77gJoOKjHGw+T6hcA6sqQIUOcKaB6juY1jxkfeeXu3fpg+Spt3LXLDhoVHPG9/TfAL0DNQ0PUPjJSXVq31gktItQ2soVahDRTE/8ANbE+R6C/v4IDA+XvX9ITyASsDuflK9/6mV9QoMMF+Tqcn6+0gznamZqmnfvTtSUl1X4/B3NyVJXx+ZsEBKp9VKQGdumq0YMGqlt0K+eZusf5ZO1pdMGjo3aCWpgvxX8m/fKalLTR2mud+VVhbsKKGSydcpv1c5hSDxRoZfw+ffTNDm36Nb3KvZACA/zUqU24zuzfVqPO7qIWppcT0IBxMtjwNYRGAzOWkenp8/bbb+ujjz5y5taMyfH/xz/+URdddJEzp/aYk6SvvvpKzz//vLZt2+bMrZkrr7xSt956q33XlekCXt9RN9Q9GvwA1CXq8caBYwmAusSxBDV1tI5TiZmZ+u+Sn/TD5s3al5Xlc0+joKAmdnCmX6dOOrVLF3VtGanQ4GA1teaHBAUqyLp2D6hmSvr8wkI7iJSTZx6HlXUoV/EpKfphyzat371LKRkHVOBjzyTTE6l18+a6/JSTddWA/gq33uPRQB1QOwge1YWsJOnLv0pbf5RMkLima9h8p/peJZ3zkAoDQ5WRlaf3v96qj77boUO5Ve9CGODvp46tw3THqF4a3Du6VMQZaEg4EDR89b3RwKSku+mmm7RlyxZnjm9uuOEGXXrppbr++uudOSVMqrvf/OY3TqluvfPOO3rooYecUonXXntN33zzjR0QqwqTTs+M6+SZSq++oW6oezT4AahL1OONA8cSAHWJYwlqqq6PU3n5+fp6U7xe/36x9qSl+Rw0ig5vrjN6nqiRfXqpW3S0Pa6QCRT5+/nV2fhCpodSQeER5RUWKDv3sFbvSdTnceu1YstWZR3yLfNJcFCQerRrrztHDNdJ7dtVO7DlK+qA2tEwR8Suj0xXQhM0+uVVafrZ0uYfJRPXqY3QnBkjafmH0mvD5L/xY0UGZuq2y0/U0388TQN6tFJ4SJBVORS91Bfmy/5rUqYeeWO5nntnrXbuzbYqrKqlwgOA41madeJ288036/TTT/cpcBQYGKjx48frww8/tHspPfLII3baN2/MSdfRUt7f6tChg/0e165dqw8++MB+774wYyz179/fXjdmHQEAAAAAAN+Z6/TEjAN66ssFmvy/T5WQklxh4MjP+mfGL+rVoaMevOJyffDHO/TARRdoYKdOat60qT2ekAnE1FXgyDDLDgzwVzPrb7UKC9WIHt31zJXWe7lrvG4752x1bNlKgf4B9nstT25entYm/Kq/vjtH//lxqTJzc2ul2Rx1i55HtSEvW9rylbR2lvTryqKgUV0xY5p1GyqddL3U+UwdVlMtXL5bC5bt0fptadYXsep/vE3LEF0xrLOG9murDtEh9ERCg8FdBA1ffbvjNCMjQzNmzNC///1vZ07FzFhFo0ePtsct8syFbHotmeCTN6eddpodsBk8eHCt51A2aeuWLFmiN954Qz/99JMztzSz3q3jv1MqYn7PjJf07rvv6pdffnHmVsyk3hs7dqwiIurXWHrUDXWPu8UB1CXq8caBYwmAusSxBDVV28cpe3yhggKt3rVb079folU7dqiiMYRMMKZ5SIh6deygawYO0KkndLXHLaqPDufl6fMNG/W/1Wu1bW+SDh7KrXDMpqCAIJ3Z80TdfMYQu/eU6TlV26gDagfBo5owX4Ldv0grZ0g7FknZdRk18hARKnU5Rxp0qwpb9dGe1IP6cV2yPvhmm5LTcpwX+S4o0F8ndm6h807poAtO7aCmwSZKBdRvHAgavvrSaJCfn2/3qrnuuuucORW7+OKL7Z47kZGRzhzvxo0bp6+//topeWfGEhozZozdU8mkgwuuYv7f3NxcHTx4UJmZmZo9e7Zef/115xnvzjvvPL388stOybu9e/fq8ccf12effebMqZgJOJmUdqYHVn1A3VD3aPADUJeoxxsHjiUA6hLHEtRUbR6nTON7Rk6Ovt6wSW//9JN27dtX9IQXAX7+igwLU59OHXVJ//4a0jlGTYMaRjttRm6uFm3crK/WxWlzYqIyrc9cUYCsX8eOGnPaEJ3WvZvdq6k2UQfUDoJH1XVov7TsZWntO1LmwaJaoKradpF6j5JWzJD2Zzgzq8AEm8OaSQPH2kGkPP9Q7cvI1cwv4vXVz7uqnIrO9G5sFhyo7h0jdNc1fdStY3PnGaB+4kDQ8NWHRoNDhw7ZadhWrFjhzCnfvffeq6uuukotW7b0qUv44cOHNXz4cCUnJztzKmZ6ITVv3lx9+vRRly5d1LZtW3u+CSiZIFGxpKQkbdu2TXFxccrKyrJ7DfmidevW9lhHvvR2MndFpaSkaO7cuXrmmWecueU7+eST9d///ldNmzZ15hw71A11jwY/AHWJerxx4FgCoC5xLEFN1eZxam9mlj5avkLvW4/Mg9nO3LJCg5uqb6eOOq9XL511YqxaNGvmPNOwJB44oAUbNmrR+g2KT9qrw/nlt1l0iIzSb04boov69rbT8NUW6oDaQfCoqvJypOQ46ct7rW/+LmdmFZiAT2iwNPiP1uN2awtYM7KTpe+ekDZ+Kh22nq/qFjHtl+26ScMfsX4OUIF/sFZuTtWMTzZpy+4D1RrPyPREumb4CRp1dhe1bB5MKjvUSxwIGr5j2WhQWFioOXPm2D2ITM+jivz+97+3ewi1atXKmeO73bt3a+LEiVq+fLkz59gYNGiQpkyZYo93VFUmBZ/p0WRS4VXE9Dwy69Ok8vM/ht3pqRvqHg1+AOoS9XjjwLEEQF3iWIKaqq3jVEJaut78aanmr1pd4dhGMa2iNbLfSRp+Yg91bdXSmdtwFR45orW79+jrjZvsnkj7Mg84z5TVPDRMowadrBtOHawWzWongEQdUDsIHvkq75CUEietmWU95lnfAGd+VYQFSSecXxQ0iu4l5ezQkewdUmh3+TXtKO38QVr+hrTrR+lgQdWDSE2sx0nXSH2sR+u+ysj117zvd+i7VUn6NTHTqqCq3hOpR6cWuuzMzjq1d2u1iqhaKiWgrnEgaPiOVaPB/v379eSTT+qDDz5w5nh3xhlnaOrUqTUe08cEp6ZNm6YXX3yx0kBVbTMBnTvvvNNOoVfTtHJmTKgJEybohx+s41UFrr76av3tb39TixYtnDlHF3VD3aPBD0Bdoh5vHDiWAKhLHEtQU7VxnNqSkqpXvvlWizdt1pFyxgAKDAjUOb176ZKT+mpwl851Mv7PsZSZe1g/bNli97pal7BTheWth6AmuqR/P9165lC1Dgtz5lYfdUDtIHjki6xEadWb0oZ5Ulpy1YM65ubrEwZLJ10vdT1bR/wKVJj8uZS6QEcObpFfaE/5t7lEftEXSYezrZrlKynuXWnHmuqlw2vZUup9jdT3Wql5J23edUDfLN+jRSsTlZx20KqsnNf5qGmTAJ18Yiudf2oHDenTxi4D9QEHgobvWDQamDRvJiiUk1P++HBm7KGFCxeWSU9nUsUVB06GDh2qrl272tO+Munl/ve//+mvf/2rM6duPf3007r00kt9SlPnK5PObt++fRoxYoQ91lJ5mjVrZq8rM5bT0UbdUPdo8ANQl6jHGweOJQDqEscS1FRNjlPmunnN7j16/bvF+mXrVhWW08DbIixcN5w2ROf27qmONbxptT4z62PT3mR9tmatPl65SocOl6Tld2cH0vr01h/OPksdWtRsfVAH1A6CRxUpzJM2zLV+6SUpfZfk25ASpUW2kE6bIHU7XwqN1pEDK1S46y3r5xqpwK3hMrC5/ML7KqDzbdbrTpSykqTt30qLn5IOlN84Vy7TTtiqi3TKOKnP1daXskBbd2fqna+2aMmavUWvqaJ2rUI0blQvnTWgnTMHOLY4EDR8R7vR4L333tOkSZOckncPPvigrrvuOtfYPZmZmXr44YftoI8n05PH9LIxyzTBEl8VFBRo48aNWr16tb777js7pZ3pDVUTppePSU13zjnn6KSTTlLPnj0VUId3LJmxombNmqUnnnjCmePd5MmTde211zqlo4O6oe7R4AegLlGPNw4cSwDUJY4lqKmaHKc2J6fo+S8XaNWvO5Rf6L2nTZc2bXTrmcM0tNsJahYUVOrG1eORCUCkHzyohXHrNX3xD0rLyix6woMJIJ3Vq6f+cv6IGvVAog6oHQSPvDFdc/bvkL5+SNpqvb46KepMe92Jw4vGIQpvbxXyVbD9JR1JmiMVmIGNyhEYroBOY+XX9mprGU2lg6nSt/+Q4j41i6iemN7Sxc9LEZ3tXHRL1yVryjtrtC/jUJV6IYWFBGnclb11yemdnDnAscWBoOE7Wo0GJlWcCWLMnDnTmVNWnz599MILL6hTp5I6bteuXbrlllu0fft2Z453vXr10vTp06s1JlIxM66Q6dlk/qb5mZiYaAeuDPP+zaM4oGV+xsTE6IQTTlDHjh3tnzX52zWxc+dO3XXXXYqLi3PmlDV27Fi7t1VN0+b5irqh7tHgB6AuUY83DhxLANQljiWoqeoep7anpun5rxZq2batyi8scOaW8LP+ndS5s24/5ywN7NBBgQHHbrzgo800Q+fl5+v7rdv08jffamdyctETHoICg3RB376acN651R4DiTqgdhA8cmdyLmbuluK/kH5+UcrIdp6oAjPuUHQ36dQ/SrEjpYJMHclYbgeOlGst2yf+8os8Rf4dx8ovrKe1layF7vhG+unfUvI66ZDzsqoIt5ZheiH1uEyK7KLk9FzNWbTV7oW0N/WgT9nxCB6hvuFA0PAdjUYDkyrusssu09atW505ZZnxgO655x6nVMR0q77ooovsQI4vTPBp7ty5TqnxefbZZ+1xncrTr18/vfPOO7WaQq881A11jwY/AHWJerxx4FgCoC5xLEFNVec4lZSZqecXfK1F6+J0xEtrq7/8NKR7d004f4ROaNXSmds4LduxQ1O/WqD4pL1e26WDAgJ19SmDNO6csxXSpOrtCNQBtaPxhDYrk5MmxX0gffYnacFTVQ8cmTUZ3VY64y7pqv9IPS7WkYxlKtj2nAriH6tC4Mgo1JH0n1Ww+VHp0A5r2YHSCedJV1vLPXuS1LmPVNWbtzMPS9++UPT5Vs9U66bZuv3yXrp3TH+NPD1GzUPrvjEPAI625ORknXbaaRUGjmbPnl0mcGSYlGy+Bo4M0/PGjJNkgk7mUd8Vv0/PR3WZdWjWZXnWrFljjxNltgkAAAAAAMcLcy29PydHs5cu07frN3gNHJl0bMNO7KGJBI5sg7t00V0XXKCeHToqwK9siCKvIF//W7NWc1evUm5edcaSQW0geGQayvaskL76m7RwkrRjrTXPec5XJkXdwGukS/9t7fl36EhgoQq2TVHhlqd1JGWBVFDFrkJ+gfKLGqaA7vfrSHCMM9MSHCH1v0m66DnpzAlSuO/ja9hM+r2dG6zP+agdRAra9a0Gdm+u8Vf31r03DNDJJ7ZqVF0lARzfzJhCZuyiAwcOOHNKGzx4sD3m0CmnnOLMKWF6Kz355JNOyXcmgGLGMzJqGoypK97elykXFhbaj+IUeeZzuD98+TxmXa5atcruZeRNenq6vU12767KDRUAAAAAANRfOdY19Kfr1unjFatU4CVVXaB/QFGPo/NGqBOBI5dTO8foj+efqxM7dpC/lwBSVs5Bvb/0F30fv0WHrXWMo69xp60zYw8teVZaMUPKtcrVWRPtukoXPi216iUF+Ksw5QsV/vqqtbwU68mqD5bkFxwt/5hx8mt1rrW8UGeuFwV5UvZe6bsnpLgvq/7ezRhsJsVen6ul4Q+pMDBEWQfztfCXPfrPpxuVebBsRPd4S1t3IDNT27f/qtTUfXZD6e49e3Qo95D27z+gkJAQNWkSaN8V0Lp1tPVorRirIutoPVB/0AW14aurdCV7rO/ziBEj7O+2N9dee609BpKn4iDK3r17dfbZZztzq+bHH39Uy5YlJ4P1bdBLb4Gjyn6adVJcNszYRf7+RSd25qe3zzhp0iS99957Tqm0Zs2a6fPPP1f79mZMwNpH3VD3SDUEoC5RjzcOHEsA1CWOJagpX49T+QUFWrx1m/751UIlpe1z5pYwqerOiO2uP51/nmJaRjlz4e6nXxP00lcLtCkx0ZlTWr9OMdb6O1e92rVTgNMWURnqgNrROINHpgFs52Lpq0lSivedskKmjSyiubXnjpEG3SYFNdORnO0q3DlDR9K+kwqrGgm1qpEmEToSMUSBXcdLTdo6831gxmn61fqbJgiWtEmqTi++8GDpnP+Tup1n925K3n9Yr3wUp5Wb9tlBpEKnwbAhB48OHz6srOxspaSkauOmzdYjXtsqGQDfm9DQUPWI7aaBA/qpa+cuat68uZo2tdZfFZlG2AMHMvXDTz9rXVycEpOSFdKsqbp26axzzj5TMZ06HpVxQRo6DgQNX100GpjAUUWBn8cff1xXX321K/hhAiOHDh2y6wnDBEKSkpJ06aWX2uWq+u6779S2bUk9Xp+DR+4BIvefhvu84uCR53Txw3xGU2c1bdq01Ho1waOHHnrILnvz7bff1kkAibqh7tHgB6AuUY83DhxLANQljiWoKV+OU+Z6eFvqPj356Xyt2ZngzC1tYNeu+ttFF6hLq1bOHHjz09ateuarhdqVYjpklHX+SSfpT+edq+iwMGdOxagDakfjDB4V5klf3iet+sSZWwVhTaQu51jf/N9J7QZIh3bqyL5vVJD0gZSb6rzId35BzaWIU+Tf5nL5RZ5m5hQ9UVWmF9J66z2snyvt3V71Tk8m9V63M4oCYp3PUr5/U/2wJklf/LxLqzanKie3oEEGj7KysrV1+3bFx2/VmnXrlJqyz2v30eqIaB6h/v1PUr++vRXTqZMiTEDRB+bAsmvXLn348afatGlzmfcTHBysC84boXPPOUshIVVMTdjIcCBo+Gq70cCkqrvyyivL7XH0z3/+UyNHjrQDRSZgZF5nvpPFvWeKH2ZcnuoGjxYvXmz3VjTqW+ComPnMvv40D8+AUXHZ/DSP4teaafOZTc8kE0hq0qSJ5s+fr7/85S/2azyZHkjm+Q4dardXJ3VD3aPBD0Bdoh5vHDiWAKhLHEtQU74cp8xYPI9//pU+X7XKKhVdR7vr3rat/nbpJTqpXRU6CjRiizbHa8pnnysls+zwA4GBQfr9mcN08xmn+dT7iDqgdvjWzwtOcOVk6fwnpQufkdr21pHk/6kg/gkV/Ppa9QJH4X3l1/Uv8u92T80CR0ZoG2nweOnif0lDx0ktfAtkuJj4xeYfioJqCycpMGWtzhzYThNG99UdV/bRiZ1aFL2ugcjLz9fyFas0+905emvmO/pq4dfauze51gJHRsaBDH3//RK9+fY7eue99xW3foPzTMVMo/XHn8zX+g0bvL6f3NxcffHVAi358Sfl59fe+wWOdybgM378+HIDR1OnTtXJJ5+sHTt22D2LsrKylHs4t8y4PiYAYlJXVldERIQrCFVfFb+/4qCZe/CsmHugyCgOFJmHe+DITLuvQ7NOzbo1qf/MujZjS5l1701OTo5uvPFGe9sBAAAAANCQzI/boK/j4qypsoGjVmHhGn/O2epL4MhnZ3fvrlvPPlPBgWWzMeXn5+n9Zb9o7e5qZBFDtRE88oXp/DH8r9LFL0g9LrH21hQVbPibCrZP1ZHMtdaTVezmE9RC/l3/LP9eT8k/+kL5BZmxMWqjkdFaRnRvachd0pUzpD4jqr6FD2RLaz6R5v5Ofj88qzahh3XxGZ306LhTNPaSngpvFui8sP5KTk7R81Nf1szZ79kBpMysTOeZ2nfE+mcG41+1eq1m/Pdt+2EG2q/IpvgtlQaaTIBp+fKV2kuDKuAT870zPYpMrz5vnnrqKXXq1Enp6el2cMkVLCo8Ygdx3YMg5qcJHp1//vnOb/tu7Nixdo+bhsQ9kBQQEGD3GjIp6EyvIfPTlM06Ma9xX0/uQaTin2ZdmnVq1nHxIzU11V73Zht4Y7bZb37zm0rrTgAAAAAA6ouE9HS9/u13OpxXlALfXbB1LX3LmUN1atcutdLi21j4+/tpRO9euvKUQfLzK9uovS8rU899tUBZubnOHNQ1gkcVMUHOE4dKty2RTvm91KSJCne+rvzl1+nI/p+lgoPWC8pGlssV0Ez+rYYrsP/r8u9wvfyatJL8TJemWhYYLLXpJ132inT1v6WW1t+pyp8xsbD9mdJ306T3fqOAxF8UHe6vK8/urLMGtCt6TT1kGimXr1ylyU9NUfzWLTp4MNsO7hwNhUcK7SDVTz//rCn/etHu5WQaU73ZvHmr/frKpO/PUHr6fqcEoDzmu3/ZZZfZgVxvHn30UTt4YYKyxQGN4uCRZwCp+GECJY899pgdOPGVGRNt4sSJTun4YAJKJoBkgmnmER4ebv80gaXiYFLxozhwVBxYKl7X5mHWvdkGZlt4s3PnTt1yyy32awEAAAAAqM8KrGveqQsXKeVAhjOntItOOkln9TxRTarQpoAiYU2a6IoB/TWoS2dnTmmbd+/WeytWOyXUNYJH3phAS0xv6ZJnpMtfk5o01ZGUBSpYf48Kd86wnqxiQCKgqfyaD1BA9/vl3+MxqelRHDOo2wXSTfOloeOl6HZV3+K7t0jvjJG+f1LKy3Zm1j/792fos/lf6u3Z7+nQoRxn7rGxfccOvT7jTevnr14DSCbdnS9yzZgsRNKBSk2ePFlbt251SqXddddd9ng6dnDDCWoUTxcHNsy0v5+/Pf5O8+bNFRUVZT9atmypKVOmOEuq3BNPPGGPWXa8Ku6dZIJJYWFhrvVk1plZd2YdmvVpehAVr1fP9W22xZ133ukssbSffvpJTz/9tFMCAAAAAKB+Why/RSu2bXdKpZ3Yrr0u699PrUJDnTmoCtP20LVVS91w2hC1Ci87LIvpKPDuDz9o6969zhzUJYJHnlq2lM78o3TxVOvbfqmOZK5S4bbnVLD16aIUdT70GHHxC5Bf6Iny73S7Ano9Ib/oC601XjZnY51r2kI67a6iz3Tqb6XQKnRDMntIdHcpvJ1UWD9TCmVkHNCcD+bqy4WLlJ1dPwJcCTt36uNPPvX6fmI6dXSmKhYWFqLm4eFOCYA37733nmbOnOmUShszZox69uxpBy3MWGLFQQ3TC8YOGPn724EPE9Bo3769WrRoYfeqce9tdPHFF+vTTz91ShVbZQ+Q2biYdWXWmVl3Zh127NjRNeaTCRoV9/Yy6754/ffq1cveNt7MmDFDn3zyiVMCAAAAAKB+OWBd5765dJkOernhO7xZiK4+ZZD6dmhvXxejesy6GxAToytOHqjAgLK9t7JycvTmTz8rr4Cx4uuaX1RU1NHJ61VPLF26tCgI8uV90iq3Bqom1qPfNdbjJqllrFSQpsLds1WY+o2Um2Q9WbXV5Gd6G7UbLb/WF8vP9DQ6FkEjb/IOSikbpOWvSpu+lirKEBRmfTkH/l7qNUqKPMH6UPUv1mgaI1+f/l+tWRvnUyo4T02bNlPvnj3U7YQTFBgUqKjIosZjw/RmSktPV2LSXm3cuMlOIedrGrwA/wANG3a6rrnyCju9kzszJtNTz/5LWdlZzpyy/Kx/A/qfpBvH/EZhYdypUJ4hQ4Y4U2io7Dq5mrKysjRw4ECnVJpJY3fWWWfZwQ0zjk/x2D1mPKIY6wSkVatWdtkEkHyRY52YrFu3Th9//LG+//57e57pdWPmuYuPj3emGjcTODKBopSUFCUkJNjBu+IgUnEvpG+++abcwNzKlSvt3k3VRd1Q92ry3QWAylCPNw4cSwDUJY4lqClvxymTrm7OilWa/u13yjhY+obxQP8AnX9SH40ffo7a1PBmcNP6mGNdP2cdPqzQJk0UEhjYIIJR5j0fyDXvOUihQUE1fs8bEhM19auFWvlrQpk22TYREXrgskt1WtcuzpzSqANqB8Ejw/Q2Ov8JqfNZJuoj7V+m/Pgnpdzd1pPVWD1hfRXY6+9ScAerUE+/2GYdbFsoLXxQSveSRq3TidLI56WoE6xC/fwMphHynfc+0JIffipTgVQmMjJSl158kQb0O0mhoUXBIsOzUjNp58w80xC6Z0+iPv7fZ1qztnRjsScTLLrg3OG68MLzremyQUOzrG+/X6J3rfde3vs2vSH+9Mc71LGj2YdQHg4EDV91Gw32799vB4dMUMdT7969dc0119gp5IqDRyeccILdw8h892vrhMsEREaMGKG9bl2lzzvvPP373//2OSjVGJh6ND093R7XaMeOHXbwyNTfZv198MEHWr9+vfPKEiYN3uLFi+26sDqoG+oeDX4A6hL1eOPAseToMOdiRdnUS649zflwbZ0To3L2NiiasMvWyrdbWdgGdYtjCWrK23FqV/p+Pf7pZ1qxfUeZNr1OraJ113nn6uzY7s6c6im06ord+/fri/UbFZe0V33atdU53bvZqdwC6mlbg3nPyVlZ+sp6zz8n7FKP1q10Ua+e6tIySkEB1R/v3yz3w+Ur9fp33yvd4yZ80yPpgpP66J4LL7ADbJ6oA2pH4w0eLZhUFDzpcal0xl+koGY6csj64pveRilfWAf1KvZi8Q+SX8gJ8mszSv5trGX6l91p66WcfdZK+be0cZ50KEOK7CqdcrvU52rryfp7ImMaHk0A5n+ffe618dgbU6m079Bew844zXqcroCAqle4JvCzaXO8vlzwteLjtyovv3QqP9MT4dKRF2rIqafYjdblMamcvl/yo75f/IOysrLtxtSAwAA1a9ZUMZ066YpLL1br1tHOq1EeDgQNX3UaDcz38IEHHrADD55MsOG2226zA0bh4eHq1q2b+vfvX6YHYG359ttvdeuttzqlIgsWLFDnzt4HdmzsTN1n0vtt27ZNmZmZdt330ksvea3Hb7zxRj300EPVCsRRN9Q9GvwA1CXq8caBY0ntK+rhXWCPnWsehw/lKutgjj1t5psAkjlPDg5uopBmzdSsaVM1bRpsP4Kcm65Qc2Y7HM7Ls85xD9mPbGsbHLTOd/Py8u1mFpMVwaz/sJBm9rZoGhxs33hq1j83odUejiWoKc/jlOl19P7yFZrx/ZIygYzgoCa6bOAA/XH42QqpQfuDCTYnpKXp1e9/0NdxcSosLLBbZ0/t1k3jzjlbfdq3K3phPbPnQKa1Xhbr05WrVGC3qfvp1O7ddeuZQ+33HFiDum1PRob+9eUCLd602Vl2iU4tW+pP55+nM70E7KgDakfjDB4dsU6aTOCoaaTU/hTp8G4VJn+hwqRPpdw91quqtkpMWjq/6BHyb32R1Mx0lWuAd48krpCS10ldzpEiOlkz6u9nMBXpRqvCeHPmO0pLT3PmViwwMEjnnnOWhp4+RG3atK7xHT6ZWVlasHCR/cg3gR+rEuzRI1aXjLxQsd27Oa+qmGkA37lrt1JS99kNqubEvVWrlmrfrl21AluNEQeChq86jQbvvvuuHnzwQadU2m9/+1s79WTfvn117rnn2hdmdcnUR/369dOhQ4ecOdLgwYM1a9YspwRvzA0A8+fP1+bNm+1eZGabevPCCy/ooousY2sVUTfUPRr8ANQl6vHGgWNJzZlzUZMOOCv7oPalpStxb4p1jblHq9au17q4TdqdlGRdd3pv3zBBiuhWUerbq6dO7t9H3U/orE4d2ql1dCs7oOELEyDZa/3NQ7mHnTkO63K7aZMmatUyyr5BsrrMe88+eNBOJ3/YBF7cPop5/+FhIWoZFVnjoNeBzCx7/RUF2EqYv9EysoUiIsIrbUMw28IE6VJS9inB2gYbNm3VLytXa92GzcrMyraf9xTaLEQ9enRV/7691KPbCWrXrrXaWuvfpNM3AT0CSTXDsQQ15Xmc2nPggB3E+G7DxjK9jrq2bq37L71E/Tu0d+ZUT6ZVj7z2/RK9v/RnFRSWrpNO6dpVfxwxXL3b1a8AUurBHL208GvNX72m1JAiR/z8deaJPXTfRReqdXj109KbNT1/XZz9N1KsbeCuSWCQLh84QOOHn62w4GBnbhHqgNrROINHxQrzdCTlcxUmzdOR7E1WuexAZxUKCJVf6wvl33qk/EJ72b2PUPfMyfFr0/+jVavXOnMq1sw6IRt12cU64/TTvKaRqy6Tcunrb77TF199rcGDBuqC885VtHWih6OHA0HDV9VGAxOkMeMcmXrA07BhwzR06FCNHDlS7dsfvcEpTTo2E6hy9+qrr2r48OFOCd6YC+g9e/bY4x4tWbJEP/zwg/NMCZO+7ueff7bHqqoK6oa6R4MfgLpEPd44cCypPhNUMT1Zdu9J0rYdCVq5Zr2+W/KTHTwyNylWhzl3Hti/jy698FydMqCfYjq1rzQos279Jj3379e1ecv2UsERf38/dWjXVtdedakuu2hEtW/o2pe2Xx9/+qU+/eJrJaemlgqEmeCKCXrd9rsxij2hS7XP/XNzD+u1N9/R/C8WaX/mgVIBKhP4GnPNKP3mmssUUkEQzNwYtSNhl35evlpffP2dVq/dUK3tYHog9e3dQ2cNHWIHlGK7dVFYaOhRu6453nAsQU25H6dMHffF+g166etvtHd/ujO3iAlgXHHKIP3p3HNqlKLN2LkvTX9+5z3tStvnzCmtf6cY3XX+CJ1UwyBVbUk+eFDPf7GgqJeUlyxe5mb+N8berBNreCN/hnXM+8cnn+qH+C3K9wiq9WzfXn++4DwN7GQ6Q5SgDqgdjfc2hoNbVbDhHhVsfUZHMtdUOXDkFxor/56Py7/Ln+UX3o/A0VEUv2Wb1qyJc0oVax7eXLf//maddebQWg0cGWY8lfOsA8N99/xZ115zJYEjoI6ZgNGYMWO8Bo5atWqlUaNGaezYsfbYRkfzAquTdYLieVJiesygYmYbmW31+9//XldddZVatGjhPFPCpLMzz3vb5gAAAI3RoUO5WhO3QbPnfKxHn3pek/7+jGa//7F2J+6tduDIMA2jK1ats5Y5VZOfeUHfLF5qB1YqsicxWYlJyco4kGn33il+7M/IVNzGeP337Q+0dXuC8+qqMemh1m/crP/Mel+bt263l+n+N5JT9unzBd/Z66Emn3vF6nV6dcYsJezeowMHSpZvHnuTU7V7T6IOHiw/Vb7pVfT5V9/qyede0ZP/fFkrV5s0U9V7P6bn0i8r1+q5F1/X3594Xh/O+0Jp6fudZwEcSxlW3bvOqidSMsqOG98iNFSX9T+pxoEjo0lQoFqFld9LZ83OnXphwddanZjkzDl2krOzNWX+F1pUTuDIMDeCNgms+Xppbi1nRN8+dq9WT7+m7tNaa9vk0W5QJxpn8OhIvgr3vKcj6T9VLWjkFyi/4NYK6DxOAf1fl3/4APllJ1vLq/6JCqrGpHeb/e6ccisld02amODO2XYaubrq7m3uoGrXtk2dp8YCYJ0krVmjtWu99zicOnWqrrjiimOWp/2JJ55wpoqY9zl37lynhIqYbWa2nRn7yBvT82jHjh1OCQAAoPEyaeJ+WbVGU154TS+8+l+tiduovILabyxbumK1Jj/7gv73xULlWtfg5encuYNCQ0OdUlnpGRlaunyVU6oaM1bQpi3blb6/bEOtu8U//VI0llA1/e+Lr72mlDPMGCZtWkereTnplg5kZmrWe3P11POv6OcV1fuc5dn2a4Kmz3xPy1etq9HnA1A7Evbt09qdO8u0R/pZ/wZ1iVH36NoZtzzKqlOvHDxI4WHhzpzSTLq8dbt22Snc1ibudeYefXuzsjXl8y+1xMs4RMX8AgJ142mnql1ERI1v8DW/f1Zsd3Vp1dKZUyLHOk6t3Z2oxMzS41ChdpBA1SfWDh7cWv5tLpV/n3/Kr9Mt1lnQr9JPz0vz/yLlHXReh7q26NvvtTc52SmVL8DPX/1O6qMhQ04lsAMcBzKsC8/rrrvOKZVmevmYcYaOJdP76Prrr3dKRf7xj3/YAW/4xmzDp556yimVZlIRHjzIsRYAADRupjfMt4t/tsc0Ki/gUVtS96Xr5TdmasE3S8rtSdO5Uwd1aNdGgeXcwJWddVAbN29VQUHpFEO+MD164rduc0rlM2Mu7dqd6JSqxqSbW7ZitVMqq02baHXt0slrFhMT3Jrx9hxNmzHL7nlVF0yvo18Tdin3cBWHWABQq/KtOjA+NVVbUlKdOSXMzZDXWNeyAbWU/cT0Xjo3NlZ/POtMhTdt5swtzYyFtGbHr/r3wq+1fm/lbaS1LSX7oD320+JNm8u9gcHPz183nDpYo/qdpGa11C4bYi1nxEknyb/MOP1HtH7XLu1I3Vfnx8bGiOBRZUxvo1bnyr/73+TfZYL8AqKlX14rChr9+Lp1RmOdpBy97EiNmukq/svylU6pYuERzXXR+SPUwvqJ8plKNefQIe1NTtGWLdsUv2Wr9u/PqHFlaxp5k6wDmFnexo2btWNHgjMAKXdMoXpmzJjhTJX2m9/8RhdddJFTOrbGjRvnTBUxAS8zng98Z9LXXXPNNU6ptDfffNOZAgAAaJzyDudpv5eUSd4E+gcoNCREERHhioqMUGSLCLsHjRlXx4xJVBlzTZiamqa33/tIGzd7D+IUjdFzokJCvDdwHs7P0+7EJCVby6mq7Oxsbd5See9zc+W6fJVv4yF72v7rLiUnl20MLtalc0ed0CXGKZUw6+bDT77QW7M/qjRNktkO4aGhim4VpfbtWqtj+7bqYD3ato62tksLhTYLUUAFmVJMbzP3sZ4AHH1pVn207tcE5eeVvTm0m/Vd7t22jVOqHSZ13aX9T9KtZ5+pCKse98b0gFq1Y4f+/fU32rA32X24tjpj/kZyVrZe+nqRvt2wQfnlBI4CAwI15vTTdPPQMxRZQe/U6rikT2/72OZp34ED2mQdb3LoqVnr/KKiohrVUcge7Mykrdv6jAqTKkkpFNJNATG3yS/iZGvPD5N2/iQteVZKXGcdwZ3XtGot3fyFFFR+PkrUjq3btuu1N/6rdI+B6by5+KILdPmlFx/VcU98ZU40s7KylJZe/ufw9/O3x1DyZZD4AwcyrQuI/eUGfJoGN1XLllEKDAx05hTJzMzU/z77Qps2x9snvCawY5bRynqtWXc9T+zhvLJy5vfMAKarV6/V6jXrlJWdZR1U84tOpK235R/gr6DAAIWEhqlzTEedPKC/nU7QM8WYWY4JMmVbv18e03U30jrJNtuWwe8aPl8GSk5LSyt3W3/11Vfq0qWLUzr2XnvtNT399NNOqciPP/5oj8kE38THx+viiy92SqWtWLFC4eHeu++7o26oewxyDqAuUY83DhxLqm5P4l499+/X9cXC75w5JZoENVGLFs0V27Wz+vbpoQ7t2tpZOMx1YPF1sRlHKP9wnlLT92vNug322Elpafvt+eUJadZMV156oSZOuM26pit9TWmsWB2nSY8+rV17vI+/0TWmk+798zidebrvmQJMT6efl6/WXff+nz0OUGUuOu9sPfPYA07JdzPfm6un//WK12vpoMAg3XDdFfrjbb+1g2Tu1sZt1H0PP6mde7z3eDJrOzw8TAP799Xggf3sa+zg4CDr+jfQDtyZv2c+Y35+gZ2pwPQo27hpq7099iQl2zd4Frvjlht002+uKjd1HsrHsQQ1ZY5TpnaIs77r//fxPO1KLR1sNinr7r3sEl09oL8zp3Ydzs/Xu8uWa/ZPS5WWlek1QGR6+JzWo4duP2uYTmwdXWEwuiZMvZWYman/LPlB/1uxyu795E3TJsG6bOAA/X7YUEWWc2NBTT36yaf6dFXZVKFDYmN1zwXnKyYqsqhMHVArCB55ZX39oy9UwAl3S4HhUu4B6aep1lnRWyVBo2IEj44KU0l99vmX1uMr6wQrz5nrnQm8/GvKk9bJWekTvPrCnCQu+uZ7vffBh86cskJDw3Tb729WLx8COF8tXKSP532qvHLWy4lW5fnbG69XKycvqN01f/lKffDhx3aQx1NE8wiN+c01GtC/nzOnfCb9gOm1NPu99xW/eYt1IPO9Omnftp1GXXGpevc60ZVa0Ly3t2a9q6U/L7PL3pw59Axdf901duCJA0HD50ujwc0336wffvjBKZW2efPmehUkNr3uBgwYUOoCdOLEibrjjjucEipj1l0P6+TXm2HDhpXbC80ddUPdo8EPQF2iHm8cOJZUnQks/PPfr+vzBd/a5aCAQLVu3VKnnTJQg+wgRQv7xsF2baIVXsGA64dyDysxaa927U7S/AWL9M13PykzO9t5tjRzrt2zRzf9331/Vp9esc7cEgdzDmn8XybZqfS8pbeLjGiu390wWrfcdK0zp3KHDuXqg08+15PPeR8T01Pr6Fb6au5bVR7reMJ9f9c33/9Y6ty9WPt2bfTHW2/S5Ref78wpUmi99uF/TNGnXyzyete9eQ99evbQNVdcpAEn9VGHDm0V7GWAd3fmpsuU1DR7m+xJTNYPS3/Rj8tWKvNAlu6+6zZddfmFaubDjaUojWMJasocp/IKCvTlho16fN7/ynznw5uF6N3x49Qy1HvvoNpgeh/OWvaL3lu6TPuyvKfINAGkM3r21G1nDrUDSP613EZSHDh668elmrd8Rbk9jszN65cM6K9bh56hqDpcJ0u37dBfZs0uM9ZSZHhzPXbVFRrUqZO9DqgDagdp67zxC5Bf07bWmViE9Ot30sxLpJ+8BI5w1OTk5Gj3rj2VBo6Ms84aVm8DR8daVla25v1vvma9M8dr4MhX5qJgT2KS3v/oY/3j8ae1eXN8lQJHxp6kRL36xn804z8ztW37DvskHPBkgjHlBY6M+ta7MCQkRI899phTKjJlyhQlJlYvD3tjVNE2Xbx4MWMfAQCARiukWVN1jumgllGRGjJogP42cbzd42b8rTdp5Pln6/RTB6lHt64VBo6MpsFN1LVzJw07/RTdefvNuuLSC+zUat6YRsOkvSn6uZyxgcx76n9SLwUHeQ+QHMjM1rYdCfaNgr4yPW82box3SpVL3ZemhF27nZJvsrIPasMm6zq2nOvQju3aqkf3E5xSiZ3W31mxal25jafdusTYgbJLLhyhE7rGVBo4MkyPrvZtW2vQgJPsXlR33TFW/3ryYb3yr8k6f/gwn5YBoG6YNGim55G373zfmJg6DRwZTYKCdP3gU3TdkFPVIqS8erpQP2zcqNcX/6D45JQqts5VLikzq9LAUROnx9Ftw4bWaeDIGNCpg9pFFvUucrc/K0vbrM9vAn6oPQSPKrNujnUmcvQHH0Np+6yTwb0pKU6pYkMGD3Km4C7bOjn+6OP/adE331kn7tWPhJqTa5NCcPa77+ubb74vt6uqL0wwcPmqVZrx35lavnwlASSUYnq2XX311U7Ju23bKh9E92i77rrr1KlTJ6dU5NFHH3WmUBnTm6wid955p9e7WgEAAI53Jih0/dVX6PUXntLfJ91t94o5qU9PtWndqkyacl+Ym3bat22j3990rU7scUK56Y5MqvSNm7eUGwAacsoABTf1HuAw14sm+LQnaa8zp3ImeLR+81anVMK8X283Gplzw5Wr45ySbzZs3KzsLO83JQX4ByimY3t17VL6nN5YG7dJB7K834hp0tsN7N/HTtEXHFy9gE9QUFEgacBJvTV4UH+1jm5Z5R5VAGpP1qEcxXkNTvvp7BPL9sasC8F2AGmQfjvsDIU19Z4KzgSQlmzYoFe++VbbUvc5c2su9eBBvfH94goDR35WnXn1KYN0q/X+6ipVnTuzPgZ17eqUSph1sG73Hh08TO+P2sQRCA1CtlVZmeBHZVq3jrbHCkJp5mTa9Db68ael5aa389W69Rs0c/a7io/fYg/QVxuSU1L04cefaOUq73ezoXHaunWrtmzZ4pS8mzZtWrl3Cx5Ld999tzNVZMGCBfa4YqiY2ZZPPfWUU/Lu+++/r3S/AAAAOB4FBPirZVQLdT+hszq0a1NmLJ7qMmPyXHLRCIWWc7e4GRMp1U6r5v3G2pP7961wTJ7Ufenatn2nU6qYOR88cCBL23ckOHNKnNC5k6JbRTml0pavWudM+caM1ZRXzsDqUdY6PrFHN689fnbs3GWP7+uNWQcnxp5Q7cARgPrF1Efp2QeVsK9sMCa0WYgGdujglOqe6YE0etDJGn/OWRUGkH6K36J/frVQW1JKj89UHSZwNHXBQn22anW5gSP/gEDdNPQM3TL0dLVoVveBo2Kndz9BJl2fp8179yrncM3aPVEawSM0CAcOHND+/fudUvm6duliV6gobYVV0a9as7ZGvYQM0+Po5VdeV1LS3iqnqatMWlqa5n/+pXZaJ+OA8frrrztT5fvwww/19NNPO6X646KLLrLHPnI3YsQIuzcVymd6aH33XdkBoD3NnDnTmQIAAEBtOPP0UxUW5j0lknEgK1t7k703RprxeE4Z0E+B/gHOnNJS0vZp26++BY/MDVcbN22xxwHydMrJ/dWzR3e7Z5Ank0quKjeVrVgTV+6NlW2iW6pPT+89Cvbvz7TO6b3fRNmkSVClKQMBNBzmm759f4YO5uYWzXDTIbKFIstJ91lXmgQG6vKBA3TXucMVXk4Aydzk/cvWrfrnVwsUX4MAUmpOjqZ88ZUWrI0rty3RBI7GnjlUvz1tiJof5XHZTmzTRuEhZW942GNtr33Z2VU6HqBiBI/QIBQWmlBF5V/8VlFRCgjwfsLaWB3IzNS33y32abyoipjeQW/OnOVzAMrP+hfSLESRkZF2bzAziGmUNR0aGmY9413S3mTtYWwYWJKSkvTRRx85pYqZINOTTz5ZpTzqdc2kDXnkkUecUpE9e/ZoxYoVTgnuDh06pPvvv9/noNDs2bPtfQQAAAC1wwRM2reJLjdF2qGcQ0rPOOCUyhp6xinlps4zPYkSEnYrN7fyVEJ5+QVau75sGmOTUq9LTAedMuAkRUSEO3NLJKfu067dvp0fpqSm6dedu+0eVZ5MWry2bVurZ49uzhzfmYHts7KznRKAhq6woFBbkxIlL1l3erZrpyaBR7/90QSQLurXVxPOO7fcAJLpgbRy+w7988sF1eqBlHowR89+9oW+37CxwsDRLWcO07WnDFLYMehtGR4crC6tymaeOpybq1/T0hgWoxYRPEK9Z+7Uzywnp7Cn0NBQ8gF7SExKUlp6ulMqYYI7rVq2VPdu3dSndy8N6H+SBg7opy5dOinEYxC+g9aB48uvFiklxbe8qVFRUTr9tFM1+upR+v3vbtK4W2/R+HG36tZbbtb1116tYcPOULu2bcsNIgEvvPCCM1XapZde6kyV9sYbb2js2LE+9VA8Wvr06aNevXo5pSKTJk0ifZ2HXbt26YILLtD777/vzCnt1ltvdaZKe+2115wp4PjBNU7DY+5qrOzOxkqft+9rre7GN7/n7XfNvEJn2cXLL/9vcHcmAKNTxw7y95IGyDCBEXNdWJ7TThmo4Gblp9FLSk5Rwq49Tql85oawtRs2OqUSbdu0th+x3bsoMiLCmVvCpGpfvW69U6rYmriNysk55JRKaxHRXCf1OlFB5WQ0iWzR3E4f6M3+9ANau26TchlvAzgumF48W7yO1+anfu3bKegYtT82teqnC/r20R/PHV5uCjsT9Fm1Y4f+ueBrba3CGEj7Dh7UP7/8St9v3Ki8ClLV3TzsDF17ysl2qjpvY9HVtSCrHu5uHRPKOqIdKSkEj2oRreyo98xJ4MGDvt2907x5OMGjSpigUaeOnXT1VaM09uYbddMNv9EN11+rG6+/TmN+c61GX32lYjp1dF5dZMevvypu/YZKex2ZZfft01u/u+kGXTf6Kp1x+hDr5L6bfRHSvl07dTuhqwZbB5ffjL5aN465TqcMGqTAQNIMoqyvvvrKmSpx8cUX69lnn9U555zjzClt6dKlGjx4sN5555160wj27rvvOlNFtm/fXm6QpLExNwY8/vjjGj58uBLL6XF49dVX669//avOOussZ06JTz75xJkC6oeK6h1zLmNS3OTnF9gBZK+PvHz7e2HGXyhKcckFT02Y7VFfjgXmgrq892Lmm/Onqr1T8+rih2E+q9nHivcv89PsS0U/8/OL972Sh9kfzd20xevpWFz0A6h/IiMjrOtp7/WBuRasaPxcM97PoP59nVJZSXt9Cx5lZmZry9YdTqmEGeOpTetW6to5Ri1aNHfmljDZSlat2+CUKrYmboMOHSqbhspoGdlC/U/q7ZTK6hLTUYFB3ntYHbbWz/JVa/X5V9/okJc0VwAalgLrHGnH/gynVCIoIEDto1rYPSKPFRNAuqRfX91+zpkVBpB+2bJFzy9YpO370py55UvPydGLCxfpm7j1yi+n/S8gIFDXnzZEY04drIijOMaRpwDr3LVHS+9j4G1JTrWvv1A7aGVHvWeixVlZB51Sw1d8kX4smLvITA+jW8f+VudaB5ju3U6w795qGRWl8PBw64Q/XNGtWqlp05I7xg4fPqy11sl1upfeS+785acR555jB45O7NHdWkb5+U5NOgMTSBrzm9EadsZpXnNWo/H6+uuvve5vDzzwgJ2W8vnnn7fHDyrPQw89pJEjR+rjjz925hw7zayTqauuusopFTHvvzEzd5P+5z//sQNCM2bMcOaWZXojPfzww3aDpgkyeTL7yJIlS5wSUH+ZBn3TQJWRcUBpaenaV+aRpn3WxZx5zoz/Z35mZWXZ35Vjdb7QGHk7Pzt669+Ej8oPMHnyfJX5NRN0zMzMsvYlsx/tt37ut3+mWw+77PwsnpeRkamcnFz7wprAEYBiTZsE2/WRN97qSU/DzzzNmSorOWWfHTyqqEHPBIDiNmz2Ot5Rh/Zt7eBRuzbRdoq9wIDSARzTQ2Dd+k3ODRjlM8fXDRu3KNdLcMfciNqmdbR6nVh+yrp+fXuqeQXjGiXs3qM33nxPH877XLv2JBUdz53nADQs6QdztP9A2XSdUeHhigoJOebnUGbM91EDBui3Q89QZGh59dIRLY3frJe//c5OYVdRj5zt1vO7UveVW9c3DW6qq08ZpJtOP/pjHHkybUMdrfo6yMsN6bv271c+waNaQ/AI9Z6/VRmbgSdRc7Gx3XXTDdfbOZx9HRvKNGwt+2W5uafVmVOWCUoNHXaGLr34QoWH+zZAqDnIhoQ007XXXKkhpw4u9yIFjYu52HvwwQedUolTTjlFbdq0sadDrJO0f/3rXzr33HPtsjdbt27VPffcozPPPFM//vij3RB7rJhUde5SU1P18ssv+9xIeLwwYxSZXmEDrJPbyZMnKzk52XmmrCuvvFJTp061t7Vhtv3JJ59sT7u79957uaMIx1xxY5r7xaP799s06qdaF2Lxm+O1Zs0667G+1GP16riS6VVxWmv93L5tp9LTDtiNaKgesz3K2yaGe7l4+5mH+3xTNnWM5+/6yvxe8cP9vRjF892nPV9TnqJzppKH2U9MMGj7jl+1Zl2cVq1eqzVrrf1qrbVPmX3LTFv73iqz/1nTq63HZmt/3GvVw6YXkvt7AdC41TSLx2mnnqymwd5T12UdzNau3YnWeXn5WUVML8pVVt3lqUlgkDq0a6uoyBb2e4zt1lVhYaXveDf1mOndZB4VSdiVaAeyvI13FNosRCf1OVEhFdxN36lDe508oG+Z4JW77Qk79dyLr+uZqa/q8wXfaVP8Vvtzc94KNCz7srJ02Eswu1VoiIIqqAOOpuCgIF03eJCuPXWwosoNbB/Rt+s3aMYPP2qbdV3irf4zBnbqqN8NO0Mntm2rQI8Ups2Cm+rS/v001gSqjmGPo2KmrTiyaVOFeAliZWRn6wDjz9UagkdoEAge1VxkZKRuGHOtQq2DXFVs2hyvzMxMp+RdB+sE+pyzhtm9LKrKBLF+c+1V6t79BGcOGjMTYEhJKXvBd9111zlTRUzPtmnTpunJJ5905nhnlvfb3/5WAwcOPGY9fpo3b66///3vTqnIc889pwNe7mA6HpnA3Y033mgH8kyvMNObsSKzZs3S008/XSbAPWrUKGeqhNlXKgpCAUdDeUEHd6axqHTaOjNtPYrTipl0Y/bjiOs15V3UwXcVBUTsbeb8K95+5uG+7YrLntuzqop/v/hvuC/X/WHm+8r9tWbSlAvMvmOnPTT7V0lKRDP4fHGaOrtsvSbfKRvFfx9Aw2e+67m5h7U/44B+TdiluA3xWrkmTivMjQrrNmrTlm3atTvJej7T7hVr6oOq1D2Vads6Wn16xTqlsnbvSdSepPLP3ezUc2vjnFKJlq0i1b59GwU654c9Yk9QuJe77PMO52ndhs1Oybv1GzcrM9v7jWXhzUN1yoCTnFL5rr3yErVqGemUvDPjHn397RI9+I9nNfmZFzVrzsf67KtvrL8fr+yDOQSSgAYg0W4LK1tHtggLU5PA+hE8MkwKuzFDBmv04MHl90A6UqiFa9fpjcVLtD3Vew8kcz54Rmx3/f6sYYpt08Y1Bp7plXpx/376/bAzFFXFNsW6FGi93wgvwaODublKJ3hUawgeod4zdxY1Dy+b09ibAwcyOQkrx2WXXKQ20dFOyXdxcZXnjR5y6inq0L6dU6q64OBgXXnFZXbqPDRu5aUhu+SSS5yp0syYOAsWLLDHOqrMiy++qNjYWHvspNdee00ZGWVzF9cV8zc9vfrqq87U8WfFihWaOHGiTjvtNDtwZ8ajqozZlmb7l7ctTW8kb7777jtnCqjPTKDCvXHeXKxZD2tWcaO9ffnm58wv9UBdMlvG/ukRQCluTK0sqFLR88VPFS3LetjlutmmZd+FmVP8KFH0saz/zEQlnw1Aw2Cuf8118LLlq/X+x5/qzXc+1OtvvqvnX5mhp59/RY9Pecl6/FtP/vMlPTf1df379Tc1/a139NbsD/T2nI/1wbz5+mHpL9q9J8kOeNS0lhpxzjBnqiwTuKooeJRhfY6t2xKcUgkTlDI9j4rZPY/CQ51SicN5Jni0ySmVZT7b+k1b5C0tvml3aB3dUr17lh/8Ktavby9dc8XFrmBWRcz2Mb2pXnj1v3rosSl69oVX9d+339d7H32qlWvWKzv7oB30A1D/JHsZ78iIDAmxvv/1q0m9OIA05rQhCg32nlLO9O5ctH6DXvt+iX5NSXXmlmbODofGdtdt55yl7m1M1qJAXXHyQCdwVLbePVbM+XVQUBNFeultZW7KO5hftscYqofgEeo9c/d5SKhvPVqys+kK7o0Z1+jkAQOcku9MfuaNmyu+c8vciWCCR5U1rlTG9F7q07uXU0JjZQI8nm655RbrpKD83oedO3fW22+/rX/+85+u1HYViY+Pt3u2mFR4JmAxffp0rVy50t7f60qLFi30+uuvO6UiJni0fft2p9Swmd4/X331ld3D6vTTT7d7is2bN0/79u1zXlG+vn372mMfPfHEE2rdurUztyzT28z0IvPkbZ8B6oNSd3Jbh8iiPi6GSYNWYE2bMRnMOYuZax5m2nrO/km7fm0w5yZmO5iH53mKPc+eKruiS207HxT/Ha/8zN8329r8PfM+imYXK35/9vvxstHdn3dX6rPZM+zZjqLXmsXZD6tcsgzz037a/hVnFoAGyHynTYrxzxd8q5env20HJZ7+5zRNfWWG/jvrfX21aLFWrF5nXc9tsdOmrV2/ST8sW67/fb5QM95+X1Nf/a+mWL/z5JSX9czzr+lFq7xsxWpVNmZQZc4+41SvY1AYe1NStScxye4F6Y3plZOTe8gplTBjHXVoX3Keb4I87duankil7/y3r183bSn3M5jUcTt27NQhL+MdmbFD+vXp5XMa9jHXXqErLrnApwBSsfyCfGsdr7G210w9+dxL+ue/X9fLb7ytt979SKvWrLd7gxXV1QDqg6RU7wGWiBCTts737/7RYgJIJoXduOFnKaSCANK3GzZq6qJvtKO8AJJ1AnlG927644jh9nhKY4eerpb1KHBkmPcY6O+vEK89wI7owOG6a99pbAgeoUEI8A8sc2LoTWpaWo1Pdo9HJ/XtW63Uf0lJeytNMXXCCV3VvBZ6DAU3aaLePXu4usWi8dm4caMSExOdUonyeh25MycOl156qRYvXmwHkXy1Zs0aO2hx7bXXqnfv3vrjH/+oZcuWKT093bp4O1SrF2/Dhg1Tu3ale+hV5b3WF+Zi36SyNCkB//3vf9u9i4YOHao//OEPmjlzpj2mky9atmyp9957Tx999JG9brw1mnq64oornKkSZp8x+w5wrFW0D5euSUwPF3/rf3O8M7/j8bCWc8TviAoY76jOmLq9aHsVP7wzryk+DpifVT8mWMs+YpZfsq2PWGV7ufa/QmvavJeioJKvyy9+nVlO0bLMPOthzy1hz7P+K3p98aPk94qmnWecZQJoGPKs8zETGHrptZl6Ydp/9PZ7c+0eNYfzq95Ylpt3WFu279D/vvja7iFTUFiz62mTkSK2WxenVJoJ2vy6c4/dw8ib5avWOFMlgoOaqH3b1vZ4R8UC/P3VM7abmjUtPb6SSfmatDdVScnez0e3/7pTKWnpXm84bWot6/RTBzqlyoWHheoPt92kG39zpdcxNypj3qtJKfjf2e/rpVff1L9eekNTrW359Xc/Kiu7bM8oAEffgTzvge5mVh0UUME55LFkxkC6cuBA3XXuORUGkH6M36JnvlygbeVcv5tzxSFdu+qm04fYPa3qo0B/P4UFeW8rzs6nbbi20EqLBiEsLMynlGa/JiToMNHlMkyvnuoMfmruZKtM714nOlM1Yw5MpjG5VXRLZw4am++//96ZKq1Hjx7OlG9MEGn16tV2b6Sq/u6XX36pMWPG6NRTT9XJJ59sp5sz4yqZNGwmMO3+MA1t5sKzuGHO/eGN6UX5yCOPOKUi8+fP17p165zS0eftvZvPZB7un9UEimbPnq2bb75ZQ4YMsdeNGcPoX//6l0+9i9yZYODnn39up6gzKe2qorzt+dNPPzlTQP1hN+pb3ynTNG/+WXPs+UU/ix/l8bOO2/XzgrShcQ+UFCsum3NGk+pp37407UtNU2rqPutR/HOfUlJS7Z9m/JAiVQ2wFAWFzMOMK2LSJKWn73ctOyXF+mn9veSUNHs6zTrvMnedm3q3WPF7Lf5ZtE/ZU24P63nnUcL9+eJni19RUucbRe+x9G8DqL9MPfHt4p/sYMPcT7/Qrj1JbnXDsWeOX2cPHeKUyjJjMSVbdZ43v6xa60yVaNGiuTp1bK8gj7vLe/eKVdNmpYNHxsFDOdq8ZZtTKi1+6zbt95K62tSBLSMj7Z5HVdG6VUv9/qbrNHHCbfZYTwH+1euJYHpbLV+9TrPnzNMLr/zH7gVmeoqRzg44tnK9BJqNpoEB9fpc3YzHZMYo+tN551YYQFq5Y4ee/XKBdqSlOXNLM3VjaJMmTqn+8Q8IUHA5ga1D5Ww7VB3BIzQIzZuHK8I6aaxMSnKq9u/f75RgmBPYCGv9VadRIC298uCRZ0+KmoiIaK4WESV3lKFx8TbekUkrZ9KVVVWIdQJhAkCffvqpPvjgA/3ud7+r8phaJu3Fli1b9MYbb9hp2Hr27OnqYfPYY4/pnXfescfy2bNnj/MbJcq7gD/33HPtZbibNGmSM3V0eb7HgwcPasOGDfY6M6ng7r77bjt4Zj63CRQ9/PDD+uGHH3TgwAHnN3xnlnHffffZPcNMwKlbt252MK2qzL5ggoOezHKB+sDbd981xz4Mm//Mw8wtesbzV8wy/KyLUXMxZLfqo9aYdWseJkCek3PIDtbs3ZusPbsTtXv3Huth/dxl/dxV9HOXmbbm5xzMsX+/OudS5g5+04vb9GhNSU5RYuJee7m7rL+xc1eS/TDT5rE3KdlOqeTZWOj975bsQ/az9ms8X1e8c5U8Z/a34n2uOp8HwLFl6pPvfvhZL7zyX61et9Ee46e+MXXLmUNPlX85dcyOnbuUnFq2oTIzM0vxW3Y4pRItW0aqc8cOTqlErxO7K6Rp2fT2OQcP2anrPJn6f7O1/P37y/Z6Mj2ZBvbrreY+pqxz18K6hr3y0gv1wMQ7dfddt6lHbLdy0/ZVxqS127rjV30073M98/w0ff/jsjpNrQ2gYoePlA1AHPHzV0hYmF1v1Gcmhd1FJ/XVhBHlB5DMeeqq7Tv0zBdfaYePGUTqE5PNobwhDvzzKs6iBN8RPEKDEN2qpdr6MJaJqfjWxm1wSjBM41N1GmkN06hSmVbWyXxtCW4SrGZe7h7D8c/cZe0tePTnP//Zmaq+fv362QEa03vIBJJM8CbQa17cypleNl9//bXdq8kEU8wYPOecc47dI+aCCy7QnXfeqVdeecUOsqxdu9YOPu3atcsOaptUb+ai9a677nKWVmT9+vV1mnbNpN8zAR+T3m3Hjh12gMik5jPBr4ceekhXXXWV/f4HDBhgp4UzQaMXXnhBn332mbZt837Xpi8iIiLsnkpmXXzyySe69dZbfRqTqjImCOXp22+/daaAY6uixnhzd1/JOEdFihrxTUDD/LR+1/p9swyTwtVckNK0X7vMujXrOjc3T1u3bNWW+Hj9+muC9u5NtR/J5pHs9AiyHvtMDyTrpxlA3toyznaqCj/l5uRp9+4k629t19Ztv2rPniTrb5jlp9nLNjc+FfVASrXPu3JyclzBI3PMcGfK5jOY3azoObOHuKetKyqXKC7br3Def9EyAgID7JTGFe2zAOoXE/jesGmrXnrtLW2z6i7POsKd+W6HhoTohM4xuuLi8/THW2/SX/90h/UYZ09fd9VlOvP0wercsb0dMDHXYbVZH8R0aK9uXTo7pdJM/WfGPfIMisRt3Kwc67zVU6uoSMV0Khs8ahnZQp06tCvT28fcHLAxfluZ9ZO6L83upXXYS4OiSZF/5rDye0tVxjRe9uvTU9dcMVJPPHyvnnv8QY2+4mJ7rCZf0u97Omith9XrNuhf/35dPy9fpXzSLwHHRGE59axfPQ8cFTMBpEv7n6Txw89WM6ue98a0o/5inRdP+WqhdvpwA3n9UnRe640fPY9qDcEjNAjmZKyrdfIZHFx5YGHBwkXK9TIAZn1iXb47U/WbyaVdmcBq3lXljbnTuqiRA43NL7/84kyVMN/7tm3bOqWaMXVCWlqaOnTooOeee84OAJkeNib4U1tMYMakvTPLNz2dTFBm5MiRGj58uAYPHmynejNBGhNE8XTZZZfZqdeKH8nJyc4z3plxhdxfb/6uGT/JPP70pz/ZYzidddZZio2N1UknnaRBgwbZ5fPPP1+XX365nZrPBL/efffdWk2b16VLF7300kv2+jUp+UwvLZMy0wSvaqteNvuEt7uLfv75Z2cKOPaKG6zMxYz5Z065i366H+NMEMCa7xdgB4vsV1q/Zu7UDg5uombNmlXYkFdRo2Ftq+hveT7nXvacrmg5VWUWVZXFFf9tk+7J1KH7D2TpYM5h61ynQHkFBcp3HmYMCnPnd1G50Co779vaFEXb0Dtv28qkqjPjeiQlJSv7YI5dLvobBSos9ci3b6LIt6bNOWLxeaLnMkvKRfuO+ekUnd9xftuaLH/dmOcL7QHeQ8NCSY8INCD70vfb4+OYwFFFTMBi8sP3auZr/9ILzzyiv/zxVt143ZV2YOOaKy62x+j542036eH7/qR/P/eY3pz2T82eMfX/2zsLAD2K+/0/5265S+4uycXdnRACBCdIkeLWYqVAaf8USuVHDUpbpC1WKFqc4hacYDEk7n6Xs5y763+emd175d73JHfvSe77SeZ2Z3Z2dlbe2Zl59juDJx/8O45eOL+VGHMocP6gBfM9D0/MMnZ/WgaKS12t2dd5GLIuWLU1kxKHePxgkXXMaVMnqHqhqzjDsjQvn/Me5VshhrQDmcgvKGx5HzgTHhGGhXNnWb5DJzwsFBPGjcbiRfPxs+t+pK/pE8pdeO4Z6jwG67K3o1As3H8gA/95+iUcyMiyQgVB6En8PZWHqgxpqK3zWJb0RfhB2vThwzB1aFujBjXju7378MBnnyNVlZPeRLO+iLf70NxPBL7+gFxJod+Qogo7dqS0R2VVJT759HPLJ3SFqMj2zfbLvUx2eijU1tT2eeFP8A3vvPOOteaAQ5sdCqw8cAg2ikW5ubl6WDlaDHGYj4aGBt0Qo/iQkJCgrYBohUMR5a677tKCz5AhQ6yUfENFRYW15srll1/e4mgdReHHmzvyyCNd4t94441atKGjxdCGDRu0pZGv4fxHt912G5544gl88cUXeO2117RQxmED2clpz53E+8F7wHvBe8J7w9/6oVa4KVK5Q7FKEPoqfvpZ1/KQCVANNBsdQq+Kw378yIgIRCkXYo0vzt+J/VtxXu8LdDQv3Z1nz+kxrP3j1NRUq/KIFj41aNBfJPIOUHIxqzoVLu11hh8itFgqr6xEaVmFFqJabj9VwhbsQHUsFWy22Nu5dI7rjNmvJYb2eorrSF9rT8qxUzcyMgIR6jlj52tfe64EQWgN67AbN2/HVyu/9fp7Zd3rtJOPw+MP/A2nnnAMxo0ZqS124gfF6d98WFiodnzPxMXGaDFjZMpwjB09AuPHjMK8OTMwdcqEQx61wpnAwAAcdcRcU+54YG9qGoqLXeceWrex9QdN0TGRGD0qxWuepk+d7PGjojJV7u5LPWD5DPvS0rX1kSeOXDBb1V/b72voKBSJBsXFYtTIFMyZNRU333A1Xn7qQbzxwmO44qJztdVUR+Yk5r3esm0XPvj0C5RXVFqhgiD0FCEeyjDafFep+h0/COrr8KMoikHPrfkO69r58ID1yJW7duPJlav6jYDEPPJDME809eG5mvobIh4J/YaU4cMxOCHB8rXN2vUb9GTEQtfgHETtkd/JyfLbolK9gMtVRV8YWLBRxKHN3KHFTkehQEFRhoLJnj17kJWVpYeKM8P/8KvuJu14LOclHaFQdeqpp+ph3D7++GNtzfOXv/xFz7k0c+ZMxMYO7Lm4OMzfuHHj9JxNHNbu7bffxqZNm/QQfRdffLG2qoq0xGZeb7tTw77GtuM23hPem/T0dH2vKCjx3nFbR6F45g7FK/u4gtAePf+sOA0oZq/4Mcw4bmcfEr+eHpI4GLFxsbrjzc4nOwS5zqXzujMM89V5uR+LuOfN2W/jvp+ndDoLj8N0TFL2cd1da+xj80OCinKWOar8d4pqttNZ6et15dPDDZqILUun820Llnd0jgOZNFu8PIoK0sfWm9SGlnS5dHYG52PrpXItWpSVVluOHZrsSI6PH4SQEA5bR+s3s00QhL4LBe9lHy9vc46joxct0EPSjR6Z4lFQaQ+KGbQ66o7SgGLPmFEpGJrseRQBDuNZ5DRXMT8q2rZjj+VzEBsTg7GjUyxfa2ZMmYRgN8sjQuF+zz6HeMR6aOqBDBQWeZ4f+fijXeck7U54XSMiwpGgyt3RI4fj/91wFT568zm8978nMGfGNAS2Y+lFa9W3l32s8t7fhpMShP5PuBeRt1KVxbRO78tQWKEI9PTqNfhi+3ZVZWx/GDfGWb51G/67ajXS+oGA1NjQiJoqz8J6WDdY0QoGEY+EfgPHZT9mcesOQ0/k5xfg034wfF1fJzoqylrzzqbNrYcXOFSKS0pR1O/GWBW6CjvyPFnJcJi1tmCnGcdKT01N1ZY2FCLy8/N1ehQi3EUj/Y9LpwqQy3bldMdaYCAGDRqkh377+9//jtdff11bJzF9zq3zxz/+EfPmzbNSODyhUMQh55588kl93pwniZY9jz32GK6//npMmTJFW4LyWvGa2dfP+Vo6X1t7ad8T+/7wXnH4KB6D95D3kveUcduCwwG6w3svEwoLHaU7Osqdn1P3Z9Y5fXYa0YooPDxUf/kdFRGpXXSkWkYZFx8fi2HDhmL8hHFITk5q+fqZ+9ppOf/WbLjO31RncM/rocL8eLqO7unbfjv/XcX9mDpd/a9j8HrxC34mY4Zss9Mzqeg8OuXTbDXbnM/B27nbjpiyjkMAO8dV6/TaTsGGeTOHx2OQlS6TaKb5k4pk1k263G7Hsdfp5dBOnDg+KjwCMar+Fh0ZhUj1nGlLNvXcGSuDIRg7ZgxGjBiOuLgYKw29EAShj8OhL1evWWf5WhMWGopLzvsBUoYPbSkjDoXGpgZdFnUHFEzmz55u+Vxhuy8jI1tbaJLNW3fqstmd2JhojBnpee4kEhsbrS2T3M+5oqIS+/anWT4gKzsH2Tl5Ht+ZnJPo2C7Md9QZmE8Ke7QAHZEyHM/85z68/N+HMHL4sDbvW15+oWp3b5O6riD0MLFeps7gp0F92e6IdcY01c5+atVqLQZ1RDiyYdzP1D60QEov8myt2VdoVOdZVtt6HjsSGyjiUXch4pHQr5gze5Zq8I6wfN7h1znfr12PjZs2d7pTpbNQoKqsrLJ8hxdD2xwT1bB9+06UlrmOV30osCKckZGpJ/cXBhZsKHr6nc6e7XmcdFaEaK2ybt06Pc8NhSd20DEdOy1bnLA720hTo8P6hY6dshRAoqOjEcWONrXkED6hqvFtOuNaN+CGDh2Kyy67DC+//LIWPNavX6/n93n33Xfxwgsv4K9//aueR+noo4/G4MGDrb36FszXwoULtVXVr3/9azz99NNaIPv000/13FM7d+7UQtHNN9+MY4891trLFfv68FrxmvHa2c4WlXitbcd7wCWxrz8dw/jb532jn/eS95T3lvfYvnfueHo2KERJg1roHvjcte3Ms+lwprgw4e6PLQWKqOgoJCUlqjrMMD2EkFkO1S5lxFAMGz4UyUMT1e8zQQtHtDoyabviqVyywzxt80RH43UXPJ7nY7Y+v87Scu62CuOsyHhBl0dWA9r5XtnrTNM9ZyZFx/ukPex82c+D8+m7XwrnJF020ZxImxQ5L7mB6/bSOKYZFhainp94/WzxmUoZkWyeMbXODsrhw4aqd1gSEhMHa8HyUKwSBEHoHVhf2rVnH2rqvH8YOX/ODAxT7xHP5W3HKSuv7HBZ1x58n82fM9Nrnnbt2a+HlyMbt25vqSvaUNTh/E10bTF75lQ9X6AznLs3JzcfedZoJOlZ2drviaMXzddzDfYGvDaTJozFI/+8E3NmTrNCPbN52y7U1bc/J7EgCN3HEFW38kQ5RzjphCDTk7AMzygqwiNfrsAX23Yov+d88sOj0FDPw3Vyn8+3bsPDn3+FjGLPFpt9Afb9VnjsQ/RHeJAMW9ddiHgk9CvYIXnuWWe0a9pNOPfRhx9/hsws300uSdHouRf/h/888TQyMrNaVXj7O4MT4pGUmGj5PMMJT9d8831LV8ahUl5egXUbNqh0uqexIvQfdu/eba05oGWL+9jmFAcYl2LNli1bUFxc3CIYUHzQHYLqN0hnr3MbHdeDg4O1SETxhPMa0bqIwgfLFR7rUBrbTC8lJQWTJ0/W8/+cf/75eug7CjIcio8C0/bt27Uww3mdaLlzzz334De/+Y0WZy666CLtOGTeokWL9HBsdDz/kSNHenXTpk3T8yLZjsPJ2Wlde+21On1aSPF4zz77rD7+xo0bdX6Yr+eff15bVV1zzTVa6OLQfJxHKCYm5pDGuee14368lrymcXFx+hpzyWvEa0+chSLne0XHcG7nPeW95T2mpRfvOcOd4bE8zXvEofAEwRt8zpyxnz1XGMZ3OcPNdhPHEU+F6L/eOvIdYVxr1s8rLY6SkykepSBlxHBrmYLhKcNUGTJcd+oPGhSnO6+MNYwD93zy90bHMHvdxg53jt91THptpemcD+f8uOPYxivjeq26CgUk5yw659de10sr2ITZzsDcOeffIUo50NvVf/fr4e4njMsUnDe5HFaHq/uo/pp0HcKVDlM+9TZTa0Ygcmx1TsA8B3x2hgxJwIiR6rkaPlQ9VxSRKFQO1+tDhyVrcYnPIstq7uecZ0/5FwShb8DfZ1pGtuXzzEj1W4+KbH/UiPY4mJOv62fdQXBQECaOH6vn/vHEzj17UW7NBbpp685WwyNFRoZjwtjRls87HPqNQ3C6U1xahrS0DH390jMOIic3z9riyknHHW2t9R7DVRl95aXnI7yNOZ4zs3N0fVkQhJ4jKdpYartTVFmpReq+Bsu7A4WFuPfTz7Fy1y7l92wfReHouuOPw89PWKI/CPUEa6Erd+7EvR9/0mctkDjfUakeItqV4MAARHgY0lQ4NEQ8Evod48eNxRELF1i+tjmYk4OHH30Cm7ds1Z2V3UlJSSneePtdrF23Hrv37MFD/34MX361AsVOYzcfDkyfNtVa8873a9ciz0tlvCOwEvz5l1+r+5VrhQgDCc4x5M6MGTOsNSM47Nu3T1v3UFDg3Fi2aETLP1uQcF+a8cUjtLUQLRYTExO1ZQy/tua2noLHo9BBQYgizznnnIOrr75aDwt35513anf//ffrIeIef/xx/Pvf/8abb76Jzz77zKt766238Mwzz7Q4ikR2WrfddptOnxZSPB5FKR6f16Incbbs4rXnPeC94NxI3Mb75One2ffUWUSi8MZngOE2tJ5yh/EEwRvsYGeDynsnOZtIZrvpzueQccaZKrPpzvezw3WYI5z7mf5/pkFhtImh2g/QzwYdtzO+wc4T4dLRYeecpkOYccb5fJydt/hdw5xbR2AePGHC1XXQTqWnw0x4R5yB67a4Z6dJzPVyvibO18Be10vl+M+xqxWm4/ipe2DyRlRKLes8pDmedXz7vvKfdTzbteTLWjitKEx8/nMJ19ng0ewwPlsByktB3zxrHMZO76sd4zo9l/o5Nbl15EXtrq6XsbQyeTR5M8cwxzM4rwuC0Lfg77aktNTyeSY6MkIP894VOK/SgfRMVQ56bzebMqTjREdHYs5Mz+3J/almDiIOybdn3/5WolWUqrtOGNe+eDR18gSEerAc4jVLTc9ATW0dMjKzlb/1aBkRYeE4amHvD0fNunFy0hBMmjDGCmkNP47t7PUXBKFrJMfEwM/Dx+uFZWW6vdqXYPmQRuHok+VYu3ef8ruWqTZBgUG44cTj8MM5s3DmjBn45YknqDLUu4D0nUrr7o8oIPWtKSZYGlZUV6O0qvVIUOEhIYiP7voHFYKBrQyhW1CPrRdFtz+wK70Uy1an42BhtSpgrMA+Cr/gPerII5CYOMQKaZtSVWl84aVXsfyLr7Tg01XYwblt+w688tobWLV6jRWqjlNWijfeehevv/42UtMOdNsXW73NjOlTEeLlRWKTm5ePr1asQpWq+HcWXqeVa77BF199bYUIA40VK1ZYaw445w7Jzc3Fq6++iq+//lo9X1VaWODk46yo8bdIUZhLhjOM/mHDhmmhZsKECdoqiKJJX+8UY76Zf54Hh24s64ahIPsavAe8F7wnEydO1NZTSUlJLufOe2k7htHxfvPe8xngs8BngtjPiDOeniVBsLE7XOzygEt7vWWb1QlvhXbA2eIB0/NXa+yct8obnba1rmH81jAPrnlzCAQdxezH+HSWuGE5I9a4hnXO2XnUq+1in4+df3udWdRSjJWsXrc9HXAmHbWq/e7YcVzrXnYeiJ0PG33JiAqyV0067n/9wfmQmV99j3l/uUlvttbdMPeDcEfnCOYcuJ3/bHQU2zlhrpuJ27Lu5Mw5OR/PFSbnHJ84x3W+HoIg9G1YN2oLbbXTxd/09xs2o0TVQb2lwiGgGxo618aNiY7GLNWe9FROVaj63X7Vbt60ZZuq67UedigqOgLjxra2NHeHc7qNGdN6XqTS0nKkpWchM+sgMrJbz69KKGzFxvSNDsaQkKA25xw+lNEBBEHoGnFhYQj18NsrrKxClWq/9pW6FHPBoeru+2Q5NqSmqneC5/5pLRydcBx+MHMmwoKCEBwYiFOmTcXNJ7UhIKn69YbUNNz90cfI6ENzlPPal9TVo6qutYiXEBWJcC8WVULnEfGou6gvRNOB/wDVB5SnbxQeHaGkvA6Pv7MTd/53PR5/ewfufHo9Pl+b1afPgBVPDvdywnFLEBHesS/pKewse/8jPPXM89iw8dDnQapRL4cPP/oEL778mk7HHQ7htn7jJvz3uRewas033W7t1BsMTU7CpAmtO2mdoTXAmm++0+fcXsPGGV6fL79eqe9NZ/YTDi88DVuXkJCg593h3EJFqhJEAYGiii0cUWiwHX/PtGihtRKtUbjOYdJ60rqoq7AxyHOjVRWFkry8PL1+uMJ7w3tEIYn3jPeOoh/vpfP9tdfte19YWKifCT4btGZyx9OzJAjtYTf6Ghub1PNWj4qKKpSWlukPTtp2JSguVks67S9DTXWN9T7za5EGzHOt0i2v0PE4Sbizc07THLdED4vrbGln495AZZ2IQQ31jeo3UqPyXtGSRouz8lhcTL/r8Trq9Hk6LXmuTK+yolJft7YazvYmVr0a6hpUPmtRXl6p09Bpdtip662dWrfOhUPesmyor7fnzmudD+bNJX/0u8QzAoyNa/+m8qj//Cqex9XnrfPCvJehVLmamlqv9T2m60jbOg7Ttw7Sss06Js+BHai8hzxHc67GlZaV6/dDvbrXLTtY8Pz4vHCCePva6CX3ZT5bPc9l+trV1tapYzqdvCAIfRQ/hHmZtN2mpLQcNR460DoKy5j3P16u34He4LuM5VBnCAsNwaTxYxDj5Qvwrdt347t1m1Cv3g/OBKq6cVLiECQObnu+I5sFcxyjFtjUquuRfTAP27bvQlamZ/FoyTEL9bu0L1CnrgEFNW/ExcYioB+1bwThcCAiJBjxHoauo8VLoWqjug+32RswB5nFxbj30+VYv3+/ngfIExSOrjvuWJwzexYirGHlSWhQEE6bPg03nXCc1w/Hmea6/am49+NPkanqkn2BBlX/Ts3LU3XZ1uc7asgQBEp52W0EhIWF/claHxBwLgjVNENz8Wo0V+w0ge7wi9PoGfCLnQ/s/gDI22dt8ADFi1mXo7mxAk37/4Wm3LfhFxAOv6hJamPfqIR4or6hGas25eLP/12Hb7bmoryqHnX1TSgorcGKTTnYsKsA08cOQlR4sFsjum/AStOokSOQX1CAjIxMK7Rt2LAvLCrC2vUbsHP3Xt3QHhQX1+aEwaZTphkF6jgffbIcL7z4CrZs26Y7KrzBDgl2+m7esk03zCdOGGeNLW9gerRM2r7Dy/OnYKfq3Dmz9JxD7bE/NQ27du2xOk1aw07pI+bPRUJ8+2l5gteHL4qt23Z6PQapb6jX58ROlEkTJ+hr11ZFnI2PTz/7HO998JG6nh1vhIwckYLp06bozmcO8yX0b8477zw88cQTls8B7y+tBtkJy9+Mc8ec/RxyOLRJkyZh/vz52oIlPDy8XwlGzjDftDYqLy9vEZB4/jyvwx2eO+8d50gaPXq0vt/sAOe1oHhkD2FHEYnPA5fZ2dnYunWrR7Ho8ssvxwsvvGD5BF9h6lP9C0/vJT5vdHwO2ZHOTvqD2TnIyy3Q7/7CwiLtCrgsKFSOSydnbWf9oqiwUKVv3uEhISE6Xfr53BYVlajnNhc5ObnIV/EK6FR6dEV6aadnjsFnng280NCQljyb9Fq/VxtUna66qkankZ9XaDnm307TydlhnXB2OkU6DZM/niuvR536fUZGRqm6Bofya503xzX30+V4maoXFRYVIze/AHl5+aoeZ86d17d9x+vm8JcUl6CivFKXEbx/rK8EBAS2HNP9etnrzAOve1uiiZ2GvU+NqvdRjDH3TR2f10Dd8+LiIh0nOChEDxelDqlwHJeCIY/XYpltLoVeGAGLx3Acj8PL8Tnk1/IFKv2CwmKdV947vhN4rjwO5zey96GjgMd3R7Z6drOysvW9sq+ZuWe2M/eR4RT+OPRiWHiY9e70/Hz1FlLHGxj0x3dJb8DyLD0jG1+t+tYKaU2kqkvNnzPD6/xCbcEPJN9a9jHe/eBTVFR6b5exDj56VAqOnD/bKjfah+VKrWr37d6zHxlZrQUcll98J9A5tzUj1PmctGQx5nkQhTzB8nPZR8stn4MIVcZVVFViy/bWc2hyWLybfvpjbbnU2/A67NqzF2++9zGqvPQ1HH/sIiyYO1PVD2Qej44i7xKhq1x9zTVYm3YAGUWFVoiBotE41X6dNnRor4q6zActjh764ius2b1HvS8899mFB4fg8qMW4cL589R66z5QnsO4wQl6CNDtqj5Z19D6IzbWFbNVPf6gaqdPTk5ClGrv9GbdsVa1sd7btBl7rZFJnDlm3FjMHTUKTz/1lBUidAWR4bqb+lI07rsXjRuvQXPxKtWipyLb+0q0TVVNPbanFuNvz23AXc+uR06B58rhln1F+MX9q/HiJ3uRkVfZJ9R0T1x4/rl6WDV/Pc57x+HcGc+/+DL+74934oGHHsWzL7yML75aia9XrNYWNByC7cOPP9Xh96vtd/z1Hnzy2XJtwdRRwsLC9aTE7EDqz/BlMHb0aIwfN4ZdHFaodz7/8ivc+88H8P3adchRhTjHmq6sqtKd4WVl5bqzaMu27Xj8qf/i3WUfoK6u1tpTGIiwc9YT7GzlM2NbndiOnWNsWB533HE488wztXjkLM72ZzikGzsHOc9Pfn4+9u7di4MHPX8lebjCe8nh7HhvOV8T77Xzc0Dhnut2mCe8PVOC4Am+49gpV15WgYz0TKSmpqnfXyHKVKOorEK9tyxXTldZ7XAVlmvxMx6F3xr9cYQtXKi/WqRgWLV6bsvLq1Ch9qOrVPvRMR121mmn0qB4SrGCk/A6V7/cG2dsGxYXlyH9QDp27tyl53PILyjSczowP/x6vCWfzq4lzx1zTIeWUHa+mceyskq1rVILHZ5gXu1r29DQqMWPffvSsGfvPmRmZqGwoFilodIsV9eA6XfImetVVcl3QbWqk1VqISoz86AqL/fpe0cR3lh+Oa6XnRfndV1vVNfWcX253eH418wvZBwt0liX0flQxzb3jfWaKv01O4fvtdvqTJ/nrYcKVAn5+bumrZsFfD6034LxlWO/aW1NnXqOzHWhOGauPT8oKNfiEMUkI0bphIzz43Vu0M8N4+pnVu1bwedNXWPeNz57DNPPoFoyDX6V36yeT14ec4laLoggCH0ICjVjRo+wfJ7ZuWevcvu1qN8ZKHBTNHrxlbdRVNx2W5fvpayDucjJ61xdK35QLKZNnWD5XElX7669+w7oL8id4ccTkyeOt3ztM3XSBISHhlk+BxSsvl+/WZfh7kybPBFDOvCxpjMsqz/87Cu8+OrbSM/I6rZ+Egr+H336tV56gh27s6ZP0R+WCILQc/C3N2HIYMvnys6cPNR3UxlwKLD8OVBYiMdXrMIK1RbwJhxFh4XjgiPm4+IjFngUjmyCg4JwwZzZuPTIIxAbGWmFusIa7oodO/HYVyuRXlyMRifRv6fhfHb78loLR6xjj0tMVPV9p7q20CVEPPIRzRXb0LT7T2hKfRDNJd+pkN77QZH6hiZsTyvBMx/swe2Pr8WX67N1WFsUl9Xi2fd34b4XN+O9lemoqO5cRbQn4Feml158obbSaW9eHk/U1FRjx65dWPPNt3jltdfx0iuv4tkXXsLLr7yGd957H6vXfIOdaju/AO4MERGROOmE43D60lOskP7NYPWyXHLs0YiOibZC2ibtwAE8+/xLeOLJZ/DS/17F/159A6++8ba+vhw68JFHn8CWrdv0i0cY2Hib24edbxQIKBbQcZ2NtVNOOQVXXXUVRo5sPa55fycqKko1lEP11+wUjzh03bJly1ysrgYSvMe817zntmBE8dB2dmewO4wnCJ2BIiUtmWmNwTKJX2DzK2kOhebVNdDZcWi9bRw7v1hWGdh0oZBgvijmcGOM22A5R1qO9To6pq3SMV9gG1HBkSaXHKKsQVvt0JKJwkVRSQkqKitQXVOjBQHmpSWP7k4f2y3Mi9Pp2PlS68YxXZNfXT615M0V5pnCES2hDmbnqTKtABw+jWIIxeB6lU99PVRajGeW7Th9Dbnk8ev1vWJ5wOHdmH5GZpYWz5hPKxeWc6BLDv5xKkIcwolxpn6iHM9NOd6/hno6p3yqdR6HIhoFNdPxyf0cOA5jwp0OqTHHtWMpp6LxmjJ9XuOWYynHumiVunbm+rUWzylSMg/63ql88TqZZ8DcO+f1Ol5H1Q5oVNfdURdzz50gCH0F1nmGD01GcqLnDkzCYeteffM97N6b2qHOPL5jtu3cgyeefRlPPvcKsg7mWFvaJi0tA9t2dG6Y4MiICIwfMxrRUa07I2vralFdW+P0njOEqTrxpAljLV/7cFi88eNbz4/E4fjy8l0tBmyOWjRPW3N2BlpIPf+/N/HwY8/ivoeewN33/wdfr/pOl7vu59AR2PmblZ2Dx55+Ecu/WmWFtmbCuDEYO3okAgNl3iNB6EkoHk1U5a+nD9Z35+Z0abjQrqCFI9UWeHr1Gizfth3NXoaqo3B0ztw5uOzIIxHZgfKOAtKlC+bjgvnzERvhXUD6bOtW/HfVamQUFfeasUGhagNkePjoITIsDCmDBol41I2IeORDmuvL0JT7ARr3/B2Ne/+O5uo0a0vPUlxeh+c+3IN7X9iEt75MRUl5xy09GlVDdHdGCXIKq/SQJH2RmJhonP/Ds3HSCUv0l/u9TWhoGE447ljljjlsLCJY5E6bMhlnnn5qhwtgdmBkZmdj0+at+O77tVqg4zxRFJY4rIAn+EIO8JcK8UCCQ5N5ggIAO8psoYBz4vz85z/XViltDTXZ3+EcQBSO6Gh1xKHZ1q5da20dePBe857feuutmDx5cov1mS0oeoKWW8LA4VA6amy4Lx07fPibY6e8Ts16z+mF7TTc6n48J7+9qnZ0FTcd686hjvSUs4/jdNBm18gaNtbYKcjfwIH0TGQfzEUpJze33qvc3RzaTtfpGN4c43iMZ9BrOktqTTvb7x7TFQoutMTKzMxGTk6enjfIpEVLFyst/XGVtxQYbjl1LPuaut9zXifWV8tV2ZCenoXc3AJtcWPfX4+pOwWaOM71ErVRb1d/WvKps6Ac/7rmmfejsbEBTare45w3DglnbgbDbGenQUfUUq9aYXawQoe0bLPxA4U2CkNWDOOsh8VxdBWqgsyx6PHgPOJ1gyAIvUxkZDgWL5xv+TyzcfN2/PPhJ/Hmux/q94RzmcR1CkYVqqz8evV3uPv+x3DPA//Ba299gIOqjLbx9nGOzcHcPKzftE3PndZR2I8wbGiSFj86AjtrKZYlxMdZIR1j/uyODXFHwsPCMHfW9E631zm8bVlpuZ6b6IsVa/DSq2/jgUeexu1/+Qf+cs9DeGfZJ/rdTNGf19v5HhBzH8yQ3GnpGbj/30/irvsexrsffKbfY56g5dnZZ5ysrscgK0QQhJ6C/V8pcXGIDg+3QhzklJQivciztaAvYTmSUViEp1avwadbtnkVjsJDQnHuvLm4fNGRiApxzHHUHiGqDX7ZEfNx4RELEOXhvAnbHh9v3oqnKSCp9rd7WdcTbM4+qD8kc2dEQjxiI8LbfZ8JHUfEI5+jGpi12WjOfQ9NW3+OpuxXVFCNtc238Le7/PssXH/vCrzy2V4cyCnXjeuOwp/ZtLGDcO/PFuKq0ycgLLjvdurHxMRg6Skn4fxzzz4kC6Tu5PglR+OUk07QFgSHE6xYH3XkQvz4R5ciMKD7RbGQ4BDMnz8XiV5MgoXDE28d/RQGONE7LU44Hv6FF1542P2mPBEbG4vhw4cjIyMDmZmZOHDgAG677TY9nN1Ahvf+sssuwxVXXKE7+ik6cmgvT1BgEgYOXWkUcF82dLRVR229Fjt01djuiGeViX/Mig4z2Ov2sdlFr9a115Ef50YUQ3VeO5Nftb+dhn2ePA6Hv+PQZfwd1Ne7f+3IY/hbQ6UZv59fgHKs8tMxnKKGk79ZLen0NmeMyHOol5jleFZWphZ8OXeiRp2PTk4nyrzZiRvxhqdrTtlsN3lU9c+WcMc14Xaucdg141R8dV75+QV6OLtG28JexW+3QethM3cxu1nD0CnH62GGstMx+MextM6pbRjX3o+odZ2YcfqMdBJ2GHFbV411b8OStMZ5X0EQ+jOhqo279KQliPIylBDh19/fr9+Ex595Gb/87V9w021/wk2/+hN+/mvl1PrPf/1n3Pq7u/DPh57AG29/gPUbt7oM58biZ+mJx7Zp8UPrRR5jy45dVkjHSFJtvInjO2ZJxKHZpk4Z3+F5lWw6Oj8SmTJpPIYMjnd6D3UMT++T3ftT8cEnX+DN9z7CI0+9gP+781784jd3qGv+Z33d9T3gkveAYep+/ELdiz/c9U+88sYyrFjzPWpbvc8dLD5yPhYdMVfPRSIIQs8TEx6GUR7mEKe19/epByxfz8ASKLu0FI9+vRKfcTQfL8JRUEAgLll4BC478ohOCUc2FJAuWTAPVxy1CMHBnqfiYH30ky1b8NhXK3CwzPNHwb5k1b796m/rMnkS58MOlvKyO+nc21g4dNjQq81FU+r9aNx2M5rLNwGNnr8s6Sq19Y3Yur8Ytz/+Pf7+/EbkFVWjobHjDccAfz8kJ4Tj6h9Mwt+un49pY2IQ2FyIpoOvoangMytW34PixpELF+DnN16HcWPHIjw8QlWAO1cZPFRYmI4aNRK/ve0WnHXm6YetOTkr8PPnzsUVl1+EuNi4bru+FKMWLz4SJyw5ptONBKF/QyHAExRLAgICcPfdd2Pq1KlW6MDgmGOO0UNnUThKTU1FdnY2nn76aWvrwGbOnDn6mWA54c1qzdtQiMLARnf+t3Skc80hVjSpVYdFLN9rtmsHlyh8I5r3lz6SSti1Q6oD6bnjIRu0cuHQbxzWkuUnv1721JFlBDDlrE3OUXSSOsDhLBlGOWIfWLlOdqrZMG/8LRYWFJl5dazj6fugV+3jOR2LOFn6GKx4OsiEm+tq4vOq06/D1H+KSJyHiccuKi7RX3a3i7WvDbNmjuTAbNZ3Vq9rPyMpp7PrvoNCn3OrcKcDWSk5onFdhbnsQ4+91eCy2SvOxxEE4XCA1jsTxo/BOWee0u4vPCc3Hyu/XYuvVn6DL1euwRdfr1HLb7R/1XfrsC8tvZVYwaLwpOMX4ydXXoqrL7/ACvVM2oFMbNqyTc/V11Hi4mIwfuxIj/MSuUPL8+lTJ1u+jsN5j8I6kD45Yt4sRHj5or4t2hKbOPJGdk4u1m7Ygq9XfYuvVvH6W/dghboHdGqd9+ErtX3D5u2oauejp4kTxuGS83+AYclJbR5bEATfQSFi2tBky+fKKtVeN0NN+x7WAbOKi3HvJ8vx5fYdbQpH1y45VotHUV2Ygz1UlcUXzZ2Dm45f0oaA1IzPt27DvR9/gmzVRukpSqqrsS0jw/I5YN/i5KQkhB0mo0D1FaSXtqehiFS6Ho20Qkp7EM1l64Gm7hkjkwLRjrQS/HfZbvzpqbVYsyW3c5ZGqi6SOCgMpx01AndcMw+XnDwW4f5FaMpZhqbtv1L5fQSo7/udcuPGjsH/+/kNuPSi8zFn9kw9j4ivYKfFsORknH7qyfjFjT/FqJFtT2R6OMBO23lz5uDySy/CtGlT9TU4VLhvXFwcjj3mKJx71plOX0oLAwV+ke6N22+/HfHxnf8isL/D4TcXLFiA9PT0lqHZHnnkET2s1kCHzwKfiT/84Q/aWkQQPGEECk/1H4bZjph1u5PfhNrb2seUTI7yicnwGfX4XjzEYkzvpv7Y51Rf14CKiiotIHltqLqcAgUJBlDMMkMBBanGVEhwkJ7nIVg1hu31kKBgPXSsKXOtDNsiVCfhcEmcB4gdi3ruDRdByFwrxz1ypM+1AHX8oMAAna+QEJO/EJVPk99AvXR9L5g88i/T5HWprqrW88fRmkzfE5f4Ngy3j27+mizZ99DepxlBQSo/Ki/6Ouk8Oecr2GnYI9fz7Cj2kbjGDyeC1L0wx3M+ljk2v8hv70Mbc7qOVAVBODyIiozAOWecgsVHLrBCugeWkT88cyluuu7HGD1yOI47ehEWzJlpbW0NrUnZQce5MTpKoCrbRg4fhhEpQ60Q7wSqMnf6lImWr+NEhIdh8qT2rZv4Hpw3a7qeV6mzDB+WjNCwnhkNYdzoUbjuykswX92LoCDpCBWE3oIiypShQxGi6mDu7M3Nw4GSEsvnWygc3f3xZ/hm925VZ/UuHF1/wnE4f/5cRKi6Y1dhOX/2rJn45YnHq3qpFwFJ/Vuzazf+9uFHyCotdarj+46V+9NQ6qEvKSk2FqMS4js9JKnQNiIe9RaNNWg6+C6a9vwVjemPA7WZ1obOw99ldkEVnv9wD+57cTNeW74PRaUdn9eIBAf54+iZyfjFBdNxw7lTMHZYOJqLvkbT3nvRlPpPNFfstGL2D3SFcO5sXHLRBVrkmDt7lhYpuhPOTXLqqSfi8ssuxoknLEH4IXy51F9hx8bUKZNw8QU/xA/POQuDExKsLR2HHSOzZ83QaZxz1plSuA9QODSbJ2688UZMnNj5RuPhABvw119/vf7q0pn777/fWhP4bHA4Q0/k5HRswmdh4MGudG1j00xpwGElxA97jMcSkvzYGGNY+w0fu5PetJGMtRHHRufSbjgxziF146t86uzwn5UeBeWamlptcUR02vzTAsPNNsdRdSLaspxCRHRMJGJjYhCnGlfOLjomWg+JY4QJKw1vZjXtUFXFecmq9XHNhyF0TMdep2MIw3i9G9WhmvRdYQdZVFQ4YqKjERfDvMXpIT1jlT86KgpRkeFOFt4mf7w2vFb2/JwcvpLWicYyS8XQ2xnXQh3eXDaTD52MgtfS/pCFQ/2Z4f6MqB8Xq/KjXYzKj+Xi1HWMi0VEZISVnjmWTocBVpgDpzxY6P0YVV3rgAA/hEfw3NU9io7BIN4bVX/l/eEQzTHq+BHq/Dsy95/JT6sMCILQj2H5PHpUCq6/5jIcOX+OFdo1QoND8Msbr8HPr78SI4YP18egUP37227SHxy4w/gXn3cWLjj3DAR1smOSwsvYsW3Pe8Syc/TIFMQPirVCOg73nTOz/RELpk6eoIes8z+EDxcjVRl947WXY5Aq+30JBaPf3XIjlhy1oFMinSAI3U+gKguHqTJppId+r/raGry3cYvl8w2sW2YWF+PvH3+Gdfv2Kb/nD8goHN1w4vE4a/YshHdjucEyaOmM6bjlpBPbFJDW7duPv3/4MQ76eCQQXo/3t2zVx3RnSlIiBkdHSQ24m/EbNGhQ66t9GPPtt9+qJ60RTRlPoinzeaDJw5BJfoHwH34Z/EdeDyy7Edj6ibXBAwlDgB99rB7eajTu+A1QvtXa0An8guAXnAD/YRfDL+lcVSvs+I+cjeLP1mbh9c9TkZ5bjrp6L1+htkFCbChuOGcK5kwajMhwde71eWhKfRjNJd+iuZ7DAllpBoTDf9RN8E9WeexnsLOlqrpaT9i8dft2bNq8VX+R2lmio6MxY9pUTFdu5IgUREZGdKgB7wz7Lti5ecCDiaUNhZQJ48ap47VvNXXwYA4yMjP1GNeeYCfWpIkTdN59AYeEKS4uQXpGJjZs2qyvba16gXojIiIS8+bMwhEL5iMpcQjCw8N0RZ+kq2vy7HMvITM7W/s9cfRRi3DxhedpAeuII46wQoX+yhlnnIHnnnvO8jnYtWtXu19WH+689tpr+N3vfmf5DHv27LHWBM6HNW3aNMvngPMiLVu2zPIJvkLXp/oYdqe9jfFbHgVfk8ZvNTWa/fTwakVFxdixYydqao0luInH8sdTs8P5XeucuPkzbuxoJCcnIjIqwgSrxDiMWm5OLjKzclBWzrm6nNMg9DsfqxkJCfEYNnwoEgcn6PcdYZ0vL68A2VkH9bw+Rt6iHMb82gKWwfVaNCFuUAziByVo4YMCC7c5ro1aUfvW1zcgO/sgiktKUV1dY1KmeKTT5R/7APaOzUhU73HWMUJDbdHJkKHqBKyfFBZxvjbGd91X3wH1384jlyHBgXrew9i4OISFher86a16dxOvoaFB1+fSDmRoyybeJ56rnb65d35aKIuMjMTsWdMQpuoZzmSp67dr115VZzaTmRP7enB/x7Uzx+T147BB8e4TtzOujtOk64Imz/Y+Js2DB3P1Nc1T98ukZ283+XU+BqGl0bBhyVqYCgsJUbF4BMd+9PNYtIByrn82NDTq5/hAeoaeD8v1+0D7WK5w3hTWw1JGDNMdxX0NqeMNDPriu6Q/wHLqYG4ennzmf3j93Q+tcrDzUID62XU/wtRJ41veNTZM8933P8Xtd/3DCgHGjhqhrZOOXXzEIX34xzT/98YyPPzYMyjzMnclLWB/e8sNuPDcM6yQjsP0d+9LxQU/urGlfPfEzTdeo9OnpdKhwLQ5JOvf/vEI3lr2sRXaPbBsvvi8M3HV5Rci3O29InQeeZcIXcV+TxWr+ufTK1bhVQ/vrSGD4vHGddcg2AcfROvyvrRUC0dr9+51zCPqBoWjnxy/BD+cMxsRqj7pC2pVu+m9TZvxwPIvUFfn2WDBX9XN548fh98sPQVDfdQHmarqvD96/CmVH9c88Ng/P/lEnKeuAQ0KiJQB3cPAFI80TWgq+AJN+/+lWsvF6hfpNPyNs3j0/o3AljbEo1j1Y7jsfSBiiGq5FaMx/Sk056v4DZ46B9pDNQ+jpsF/9I3wi5zWpohU39CE9JwKPPTGNmzew0Zi56CgEBEWiKWLRuBHp41HWLCqLKo8N+d9iKb0x9Xl8DCXRD8WjzzBjhcKHqaRDezdvx+NqvHNimBoaIjuBGGBM3hIAoYPG4bkxEQMHz5MxxW8w5dbWVk5CgoLUVRYhHLVMAgOCVaV33A9hOCIFHZSeP5aQcSjgQfn93n77bctn+G0007DAw88YPkGLuzUPvnkk12ssxYtWoRnn33W8gk33HADPv30U8tnEPGoZ+gPHX58H9l9Llynx8+qm+m/zX5agMjNydOd7nWcm0dvZVRHh31HYHw22iZMGIMhiUNaOuN5XAqdPEZmdo56P3ZFPAIOqjSyD+bo96vpFjP7Mrs8RXf4VXWQquONSEnRwkxUVKTTdWk5W+3q6uqRmnoA+XmFqKisVFsZzjh2POf4xLt4dOBAOrKzc1Gq6gPO+XLNJ1eMRRXFkERV30pOTkJsTDQCreF59H2z4nFfClyVldXYsXMXSkrK9HV3xDFpM4z/+HX4nLkz9UcqzhjxaJ+e9F13Lqp0WS/WKbT8sc+R6QGzZk5DUpKq61vHISYq45kw88won3WC9FNAy1b3zJN4ZPJq4pkvSJvVdQzF2LGj9f1np6ER2cw+jMuU7RSc11qLR9xmbzf5cUfEI6EvIOJR1+H8Og8/8Sy2bduthwllx6K7cMJyhp1q/HiAw8fNnjkVN173I0yf3LaVP8uWDz/9Enf/6xEcu3ihFnUiI8zHEYcKPzz87MtVeP3tD1R7vLClzCQxMVFaNFly9EIrpPPwGuxUZfwjTz6PrOyDei48m6iYSJz/g9Nw4vFHH7Jw5AnOXXTfg49h955UXW7z+jMfbQlYhO8eimX+6r5Eq/fz+WefhivV+dMKWOge5F0idBX7PcU5zT7cshX/+nQ5KmuqdZgNy9c//vAcnDp5khXSPfAD8eySEty//AusVHVfbxZHoUHBuOyoRbjkiAXdMlRdW7D+/Oq6DXjy6xWo9vLROOvhR6trcfNJJyKZVkCsxHYTfGf86/Mv8drqNaot5FrHHZOYiFuXnoK5qt1jI2VA9zCAxSOL+hI0Zr2A5vwvgFp2WLMR2QnLI5I8Wj2RNwEjVCUnbBCaS9ehKet/aK7YqtLnF5edJDAK/olnwG/IqfALG6tKIqcvCxubsT+7DJ+vzcYHq9NRUe15svm2iAwPwuzx8Tjn2NGYPm4QApqrTJ6zX1XLDerX6GUeicNMPBL6HiIeDTw8WR7ddtttXockG2h8//33uOSSSyyf4d1338XkyZ2fRPhw5J///CceffRRy2cQ8ahn6CsdfmxAtNcgscUF52js3GlsaNYfkmRmZqGkpEI3hnQ8DmNjdWa1Stv2W9vpZ1BwYJC2Rh47ZgziBsVq0caGQ6h1RTwyogwFBgof2cg5mIOCgmJVP2Rcez/nNJknI6pwCLiYmEiMHz9WDwNnh5vTMPvYezbUN2L/vgP6mlBUM5qFvZUe53XiXTxKSzPiUVk5xSPup/axkuCxzeWjh4smRESEY9qUqYiKpkU3hSNrH66pVZ1nlTw/8qmsrMGOnTtRXGwPiUEhRidonR/3pOVRBOa6iUeMRzFn9659+uvJlvHiVeK6g5HZNBdHZ0Glpq2Yps+YisSkIdpvYw5prrXxO7bZ8L5T7MvN45x1jGelrfNs1vis6M4Av2Y9/wafId5/WjI5o6+BHkaQOKflTTxqGxGPhL6AiEfdA8sHfnT0zfcb8dHyL7F5y05Uq3cPSwyWUcmJg7FowVycdPzRGDdmpKOcE7oV3gfO9fft2o1Y/tUqbNu+GxV6/tLW7weW05PGjcFppxyPE5ccpcthuS/dj7xLhK7i/J7aoerhD3y6HBsy0q0QA+ud81T97R8XnIeQbpqfjOJzZnEJHl+5Cp9t3abqqZ4tjqJCw/DD+fNw2ZELEdVD9TnWoV/87nv879vvPM47RDg6wInTp+EnxyzG8FjVNuqm8i2nrBw3vvw/ZOblWSEG3oPTZ83AT49bgsGqjmsjZUD34GjlDVSCYhEw8joETPgt/IYsBQI8W0S0ycFU4INfAstvV63lL+EXNRsBE+9AwOib4BczVz3FnSw8GsrRlPUymnb9EU2Zz6C5+oAKNBWO6toGvP1VGt76KrXTwhHHUZ89MQE3/HAqbrlkJmaNi4Z/+Vo07v8nGnffieaS79VhZAJyQRB6l3vuuafdL/UGCrNnz241n9o//vEP3Tgd6PDLVXfhSBh4uHe0uP82jJ/NCVZ5/XVtqrG5SVuw5KhGx8GcPJSUVqKhsclKSzmdhIpPtUL71ZKOYdZ6s3Ym5XDVaBs8OB7jxo3V8wkxGed8MI5GBznCOwJjMz0jGtj7qhS1OKUlMHUsu7x0TZv7BQUHIio6Wg9xZl8rLrmnIzWdoj4f41HrVlx7a2dhWo7ccE3lUeWT18VcGv4xkfwDArVFMuf6CVDrZjvvlfnHc6cuxVzobXTUWqy8mfhq3comz8/9ubCxw7mPIy8mQO/HVTbOeU2105sUZpszTMr5vrgfV6/T2+Isvw29dnwuW54zE+b8DJm80s/ztc9ZEATBwLKEw14ec9QC/PUPt2HZa09j+Xsv4XPllr/7Il544n7ccO3lGD92lKPcEbodXtuoyAgtBv3tj7fh3VeetO6BcZ+941hn+CP/+gvOOPV4PeqJ3BdB6PuMTIjHzBEperQBZ1hf3Z2Tg+/SXUWlQ4V1vqySUjy9enXbwlFYOM6eOweXHnlEjwlHJES1Ky5ZMB/nz5+HGC/WqGyffLZlK/67crUWwbxNs9EZmML7W7eiUF0bd6LDwzE5KQmxXkY5EroGWygC5xyKmYeA0T9HwKS/wS9qirWhE3CY/O2fAx/+EvjkVqC2En6DT0PAhN8jYNSN2pqoszRXpaEp81k0UkQ6+LZqKNcjPDQQFxw/Bucpx2HnOkpCXCh+8oMpuOXiGThlwTBEBakf74FH0LTnb2jOfR9o8O2EZoIgCJ2B8/0IZv6z5cuXWz7DV199hS+//NLyDVyef/55a82VxMREa00YiLDzhQ2uhoYGbT2Tk5OL9PQM7E9Nw759adi77wD27k3Dnr2pyM7KRmlpmY7L3nhafSQkxGHkyOF6Qu/x40ZjHN34MWqp3NgxJmzsaL0cr8InjB+L0aNHYtjQZD3kTKBqTLL7x70TyNFc6lznkMdUVKAdTknDHMoOYRwjuvA60BooLDSk1aTnFNO4b3PLfobWEskhYiXj3k50vixWLs2wPQEB+iMn5+umz00n5OyIEXrsMH7ZSK+JS+hx+IhDfLGxxCKn49k4wsySeeRfBwx3dw5apeu0q46tNzF/Jo4jX+ZIeul+4RQtaTol7cDE97hJEARB6FXs9wItTVu9IwRB6DeEh4Ro8WhYnNs8mIrK2lp8tGUbyq05VLtCZV0d3t60GR9t3upVOIoICcXZc2bj8kULEd0LgkloUBAuO2IBzl8wT4tYnqCA9KE6j/+uWo2s0lLnKvEhwTS+2bsPNer6uDM+KRGzRo1ymRNU6D5EPHImKBZ+cUchYNpD8Es62wrsBPwllFUBmz8AHl+sli8BgQnwG3YxAue9Bf/BJ6uaQycveVM9ULEDTfvuRuOmaxFQm4pRQ6NwzZmT8MitR2PiiFgroneOmpmIB29ejPOOH42hCeFoLvpapXWVtm5qrslSMbr6ExYEQTg0hg8fbq25cvvtt2PdunWWb2CTkJCg54Zy5v7777fWBiYffPAB7rrrLsvnSmxs++9F4fCmsbFJz4uTm5uPzMxsPf8O5/LZn6qW+9ORlpqB9AOZKCwsQU1NLdiHExISpJ6daAxNTsSokSkYPWqEWY4codbVcjTDUjBKhZuliTN69AikpAzDoPhBep4e0x/k2inki1qWS5otnVDWkgtLLKFAEeDPfHmqf6qIOiGzn07GDmo5Qhdyr5N12l8dQHeYmcPpTfqQKswe5k9v1hnRPi/OsXBgB5il81+PqE16q+OPwWTAddXpFMwqA51d22hJiDvqe6IXTrvpDWZV4+5nfFehSx+1zcO2nydBEARBEASh80xIHILJycl6vjJnGhobsDk9Hd+kprnV5DpPcWUlvuIcR16EI1o+XXDEAlyx6EjEhLoOc9yThAUH4/IjjsBlixZq61dP2ALS41+v0EPOHSqcR+6zHbuQmpevrq/rFaaQNku12UbGST+ArxDxyBP+ofALSTbrgycBkZ1Ucfkc1yr38R3Am5cD6atUWAD8J/wBAZP+Cr+omeoYnVWG1c+jcgcaNl6JxtQH4Fe9HylDgvHQLYvw/y6cjnHDYhAc5LidYSGBmDpmEO78yTzcee18JMWoTJVvQuO2X6Jpx20qfxwfspNFWmAM/IJiLI8gCELXiWhj0t2LLroIaWmq8qV72gY2v//97601w/bt2/HZZ59ZvoEDhzPcuHEjfvGLX1ghgtCa6qpa5OUWYu++NBQWlaJS+evqG7WFER3FJWOtQueHoKAAxMdHIyVlKIYNG6qHimQDiF+uURAKDAwwTsULDPTXS87LQ8tAh9BhQb+HvnuWYqahcyjlGRN0JMoy0aRlhesk7XRtv1rTeWltXeSMe/5dc2cfo6tYaeiyXDmrTNfXv9mygeJwbRx9T282k423xtpf/1VLP45dR7+11IextrdcIwPP0/lcuaa3t0ThCv12GK+byof2OO/XuaaTTsoFhvAY1slqVPp6lccxx3LOr+s9suM4hxHjNyna6QqCIAiCIAjdyaCICCwYMxqDo1qPLlVUXo7lO3Ygt6xrIzsF+vsjNtRzn3GgfwB+fMzRuHThAkR7idOT0ALp4vnzcP1xx6o2kncB6dPNW/GvT5cjz8scSe2xOzcPq3fuQmVNjRXiICV+EI4aMwZBqm0m+AYRj9pj/g3Aqf8AJh2tfhVWWEdhu3DfOuCda4Cv/wpkb4Rf7GL4T7oD/iOugV8kJzzv5C1orEFz1sto3PUHNGW9goD6bJyxeARuv3I2LjhhLIYOjsCYodG4fOkE/P7KOThqRiKaK3ehMeNJtc/taC5ebSXUCQJC4B+v8j3qRvgNOsoKFARB6DrtmRWfdNJJePPNNy3fwGXUqFH4yU9+YvkMv/rVr1Bbyy8VBg733Xcfzj//fMvnmfj4eGtNGChoocBypKS0BIVFhXpeLBPm2Kb74ZWj19qih0wbMiQRUVGRepg31876boDHs1Z7nm4+ly7jeiWsu2KuudN1p9++Zxr7/vF8rJuo72ETw5W/2XJctx23O6dhwa1maccVBEEQBEEQhPZhW2HBqJEYn5SEADfL/oamRmxOO4A1e/d1aY4fClSnTZuKmNAwK8RA4ei644/DJUfMR1QfmtuHcyCdN3s2bj7x+DYFpK+3b8ddyz5AXkXnBKSqunp8uWs3dufmquvq+oFZWHAIFowdi/FDBlshgi8Q8ag9aIo49mTgpL8BJ94JDLYskjpDZSPw/SvAhzcDa/4Fv3qV7PDL4D/+d/BPuQJ+wZ3t6GpGc+UeNKU/hqbddwA5b2PEYD9cfsp4/PaKWfj15TPxwyWjMCSqFk0ZT+k4zVn/67y1Eb8IjRiPgDG3wG/sr+E/+CSV8d4ziRQE4fAjzsN4we785je/wRVXXIEDBw5YIQOTiy++2FozVFRUDBjro2+//RZLly7FE088YYV4h0KAMLCpqqxCZUWV5aM85IyRDDRqA320IIqKitJitiexQfAh1Hj8rHvkrONYug63OO4IrYEsnO4T75l21lbnZLxipS8IgiAIgiAInSE+KhKnTJmMOA+jqBSrNvqn23diVx77Xw8NijEnT5+GHx99FKItAYnzqt5w4vH44dzZCG/nA9zeIFjl6YyZM3DLSSeotpXn/LGu/t2evbhz2fudEpDWZ2bh8927UV3X+sPZwTExWDp1ilgd+RgRjzoCv3CMSASmng9c/CZw5I/UL9fa1hkKcoFvngD+90MgbQX8IiZoCyT/qf8ComdbkTpBUx2ayzahOe1+NO38HQLr9mLqqFiMHx6JgPLv0Lj1F2jKeAbNlXvVr7TB2qmD+AXCP+lcBEy9D36JZ8IveIi1QRAEoftgh21HWLNmDU488UQ89NBDKCwstEIHFpwfikKaM//v//2/w/p67Nu3T89/ddlll2HvXvUu6wCDB8tXRwMJiga0UrEd4dB09Q318PM31inUFCxjFQu1Yq0zDoeko+ho7y8CUg9i3YcWiYi3puVmGbFIy0IqzL4r2tpIe9Qfvb+J1XKzlbNjM60Wccm6r/qvWRUEQRAEQRCETsH65RGjR2JKcmvrIw55vCk9Hat270V1fb0V2nkiQ0Pxw7lz8O9LLsL9l16C/13/E1wwby4ivMwt1BfgEHanz5iOX550olcBiZZD6/btx13vf4D8SvtjP+9klJbivc1bkJGXb4U4CFHHWKqONypBRh7xNSIedQa/ACA8ATj2duDSV4BRM4HOCr7UcArygP9dA7z7E7W+F34hoxA44z/wH387/EJHqLvSuUSbG2vQVPwNGjddg6YDD6Jxz1/RtP1WNFfsUL/MzhRWqgUeEAa/qBkImP5v+I/9FRCcpMLlMREEwTeEdnKCxwcffBALFy7UFigckmqgcfnll7eyrHnjjTestcOHelXRvu6663DqqafilVfU+7YTtDWPlnD4YQs+pEUc4JKrdLYO4YQWEvRwZ2Z/45zX3XYQfIxD7DH3Tf2xnJ7KSDuu6436fuoR6hR6wUa7brj76914a7W+pOM7cL6vFKQEQRAEQRAE4VCIVm3Oa5Yci8iw1v0ZDY0NeGvdeqxPO9Cl4etogTRh2FAcOWY0UuLiENQPRthgns+YOR0/PWaxnkPWE41Njfh29x7c/eHHyK+sbFVnt6lraMA3e/djxY6dKo7rcHUkMX4QLpg3B/7SdvM5ogocKslzgLMeB469DRg+/tCu5PYvgNcvBr7/N1C4G/6JZ8B/2r/gP/Ri+IUOtyJ1gqZaNGW+hOa8ZapV3EmF2z8QflFT4T/yBgRMewB+0bOsDYIgCL5jyBDPVo3tWY/cc889mDRpEm688Ubs37/fCj38YQXsttvUe8eJe++9F6WlpZavf/PVV1/h7LPPxpQpU/D5559boZ6ZPn26teaKzHk0MGGjw1X0MY0Qhrg2J6xwK64f/+l111hCz0BhqKmxCVWV1UhLy0Dq/gOqTD+AfbZLtdz+dOXSkKoa4ZlZWaipqdF3Urc1+cesMElr6XgeuHR9NgRBEAShD8J3WX0ZULwNyP4SyFgGHHhXLT8C8r4DqrJUnNYdqIIg9A4TEofgzFmzdHvCnYLyMjy9+hvsKyjQ7ZSBBAUkWk1dceRCRLrN22TDD7lW7tyJB5d/juyyslYiG/1bDx7E8998i8aGOivUQXBgEK47ejEi+7Al1uGEiEddIWwQMO8aYOn9wDE3AoOUv7OUVgIrHzXzIa19QhU5EfAfca2ZDynpbCAg3IroQ4Lj4J9yFQLG/x/8k3/YM8cUBEFQeBOJ/va3v+G3v/2t5fPOJ598glNOOQVnnXUWXnjhBeTm5lpbDl+uuuoqJCXRKtTBnXfeaa31PzZs2KCHIzzqqKNwzTXXYNs21WBug4SEBG2BRsskT3R0KETh8KG1cKRoJRYov2qT6GaJWhUxoa/gpxqETaioqEJa6gHs3ZeqXBr27uXSWlduj+VSVZzMzGzU1LiPeW4anLytfn58Hsx6mwysdrwgCILQ16AYtPkfwKc/BD5cCnxwEvDRGcCXPwZW/xz45jbg21+r5S3AClXv/fR84P0TVbxTgY/PVvv+E6gtshITBKGnYXvi4rmzMTYp0QpxZVtmBt7asBGlNTVWyMAhPDQUFy+Yj/Pnz0V0mOc+ZloTfbp1O55euRpZpaUtAhLbdplFRXjq61XILWo9RD/FuhOmTMYxY8dYIYKvEfGoy6iWafwEYP4NwNlPAdPVi7yzloQceSlzN/D1vcDb16j177Tlj/+onyNg8t2WFZAPOjn8AuE3+BQETH8Y/sMuV79u9cPj0HyCIAg9yIQJqgx1Izs7W4sku3fvxtFHH22Femf79u3485//jMWLF+PSSy/FunXrUFJSctgObXfrrbdaa4Z33nkHtbWtJ5Dsi9BigCLff/7zH4wfPx4XXHCBFoPyOjCp6BVXXKHnv1q6dCnS09OtUAe0RhMGFu7Ckf6yz/Jy3bRB7O0qrlmgqUm+3O1teGsa1X1gQ5H3qqGhUTuW22xM0iKpmeuMo5ZNjc3qvqk76Oev7rlyqhljXIByqk7LCnizcc3NZq4jZ5z9bHSaoetc4wiCIAiCT6nMMMLQu0cBH5wCbP4PkLkZyNkL5B4A8g8CxSVAWTVQXg9UNKhlHVBaARTmA3lq/5x9qrG0Te3Lj5CXAhv+aiUuCEJPkxAbi58tWYJBkZFWiAPWYd9dtwGfbN2GRrd66UCA8zZdesQCnDt3NqK8CUiNDXh/42Y8u2oNskpKdH29oq4Oz61eg/VeRpgZNTgB17YxLJ7Q/Yh41F0EqId2yDTg9IeA8x4D4uI6f3VpiZemKg6vXgl88Uf2bMAvZh4Cpv4L/iOvh19QtG4wdxk2uEOHw3/CnxEw4Q/wCxun8io/OkEQegdP4hDFIMJO4SeffFJbGB133HE6rD2+++47XHTRRZg/fz6WqIrcv/71L5SVlVlbDw9OO+00DBs2zPIZLr74Ymutb/Ltt9/isssuw+zZs7XI949//MPa0j48t5UrV+L3v/+9FQLs2rXLWnPA6yIMbLSQpDUB00CzhSUjFHCdQ5iZcIaZcHu70JPou2Fuib769roN7wknHdbikt5m3asm5bdvl2NSJMs1aWdue2sBiTgdQuHqEwRB6HX2PA+8fQTw2lQg7Q0WetYGoV+Tvxb45Fzg3ePVPf7QzINdVmv6gPiqav26ahvG575FRUD6MrXcrIMFQeh55o8ZhXPnzkFQQKAV4qC+oR5Pr1yFD7fv8FgvPdyhgHTZwiNw/ry5CA3xPN91c1MDPtiwEf9V7f30omK89N1afLB5q24HuJMQFY2rj1qEobGxVojQE4h45AtGqwrBlcuBo69XT3Zi569yg3LfvQI8eTSw5X9AVTH8h1+OgBlPwm/wyfALGaLauodw6/wCjGg09AIEzHwc/oNPVGGtCzdBEISehMPOubN5s6MB5O/vj9GjR+Oxxx7Da6+9poeo6yg5OTl45JFHMHfuXD0sGudIeuaZZzwKD/2JoKAgPPDAA5bPsGXLFu36ArzuH330Ef70pz/p+0ULIwpHFJAaGviSa5/IyEhce+21Op077rgDiYmuwwGsXasa4W54epaEgYvDIsmyOPKkE6g2ycBrxvUh1D3hfWI5HxgYpMu2oGCzDA4ORDCXQYEIUY7rQXoZqJf2uotf7Wv2M37HM+ANufuCIPQxagpU+7/IWJt88RvgrflARYa1Ueh3VOcAq24EProYyFT19GoV1t0DI9SVqmfkgOURBKGnCVD12B/MnIGj9DBqreuexRUVePTzL/HVnn1WyMCBdfGosDBcunABrjjyCFU/92y40NjchI82bdVzIL205hs0NrUuKCnOnT1nNo6aOKEDdXyhOxlw4lF9fb215mOCo4AFNxlLpHmXAGGH8GCXVQKf/FG524Cd76pfSpKZl2jsrfCLP1bdvRArYgcIioXfkDPgP+F2+I++WfllQnGhf9Njv2XB53gato6WR+5DzrGCMGvWLNx33316WLof/ehHWmDoKBwWjRZMd911F8444wwtaPzkJz/BK6+8go0bNyIjI6PTz5Xz10Nct11PMHXqVH0OzvDcvA3H5Zw/Z8f4dO7hHYFCUH5+PrZu3YoPP/wQf/zjH3HkkUdqa7KbbroJL774YosVWUcZMWKEFotoQXbbbbdh7Nix1hYHvE9ZWVmWz4H7XFDC4Y/XhgPD1X/7WWY8OyaDOCyaHcI4XlLpHtTxfJp+j9K1M2lVsvDaq3sTFBioyvNwREdFIlqV69FqPUYtYyIjzDLCrEdHOTkVJ8rZr8MiEKXiR6l0IiIiEBDgGI7Zflac82CehVa56mYOn7svCEIPMOknQPICMxQ+i6eSMuD144EvLgNqC4EmaQP1G3JXA5+r+7brE1V5tcJs+Gpgbxwd77Unx20deYU0qzZTw8CbU0UQ+gqsYyao+udFC+ZjStIQK9SVgpJiPP7ll/hq9x4rZGBBC6SL5s/DdccsblNAWrVrN2pqW5dnbLcdN3ECTpsxDWFBQVao0FP4DRo0yNctpj7FSy+95LEjyqfUVwJ524HvHwV2r1AVPiu8M0SqH1fKQmDhL8zweA2FaC7ZgKb0J9Bc3XreB2f8oqbDf8SVeolATiQujVihb1JYWISVq9egqKjECmnNxInjsXDBPKSmpuKSSy6xQoX+Ci1ROFfPjBkzWokeL7/8MubNm2f5PEPxgiIChzPjXDjdwZAhQ/Q8PMcee6wWq2xskYWVQ93ZbHVEcmmvO+MprLspKirCEUccYfkM//73v3HyySdbPgeeOkgZ5hxur7uHsQOWjusUi9588018/fXX+P77761YXeeWW27Rv2kKgrRCaAse++qrr7Z8hvDwcG2NRIsF92sidD/87fZVtmzdgczMbLVmhqazfqn6r/Ozzd9oYGAAoqMjMHPGdISGduKjnE5QU1OLnJxcZGYdRHl5hRXKvOi/Kh9c8o9dZjQhISEew4cNVeVRQstvjy5LpZFzMBeF6j3Jc/MKk1Lxo6OjMGrkCJ1eSIh7Q8s+noGi7P7UdOTlFVj5ZPpmmD+DTtSsavyQlDhYv5dDQ4Os3y2vOZCWlo6DB3NQWlphXXP7PInjuNxCK6GY6GiMHTNG/X7ZW6ZQUex75ZD9FE6rreA1UgsdRR2M+QkLC3UpT5hmdnYOdu/ai1p1vhwSzyTJv+Z4Boefe8+cNR1Jbp0BTKu9cp73ncfLzctXvrbj8nhhqmE9duwodb8SdN49YefSOTXOFVVUVIwD6RkoKODEwm0dy2yLioxQ928IUkYMU8+GacR35Jx6CinHBwZ9+V3SqzTWAmtUuz9tuRmazIbFwviLgak/VYVnnGrbh5lwoW+y8wlg070sXJ2KZbUSqG5k5GggepSqwKYolwiE8H5GmO2N1aryoN4bJTuB3G+AqiygVrWTaLzv/KqyiVLv9wV/B0b+wAoQbORdInSVzrynWLf8csdO/OerFcguKbZCHfj7+WNcUiKuPW4JjtFWSgML1jOr6urw7oaN+PcXX+kh/TrKvDFjcf2SYzA5OUlbenUUKQO6hwEnHt1www36a/VeoUFVAvd+BHzxJzPh4aHAfo3516hfwI1AkKpcqIplU8ZTaDr4mqlkOBMYBf8RP4Vf0lnw8+fwdH2jMSgI3uDLRDvL7wl/P9NR/+yzz+rhyIT+DStjvOecz8jdkuT666/HL3/5S8vXPgUFBdoC5p133sGyZcus0O4hOTlZi0pDhw7FmDFjMG3aNG31M3z4cL3dm9jRE51wP/vZz/Dxxx9bPmDcuHHaCsgZXmNPOAt2dpzMzEykp6cjLS1ND4N34MABFBcX66Hoamq676tGWhhdeOGFukI3adIkhIR0vOP+z3/+M1544QXLZ+B5f/DBB/qaSyXR9/QP8ag19k/B/DSNeBQTE4kZ06f5Vjw6mIvMbGfxiBngO495YaYcIjStogZb4tFgSzwi/L1mZeWotHIs8YhYJ+QRIx6NHJGCwYMpHlEgsOPzWK7lU11dPfanpSM/rwAVFR7qqcyf3t2RhlfxSJUb2dm5KGup73LUcgo17sf1Q3BIEAbFxWHa1El6qLmuwHKsrXKX27PVfdi1a6863wadJ+ZBn5rzpbHXmWflnzVzBpKSBlthJh3SXhnfWjwy8R3764WC1wZaPBo9ZhQSBicg3IN41JIthfOR2xePbD9TMOsiHgl9ARGP2oAWRuvuAPb+zwx1ZsOfaJR6X024Ehh1tio4EoGgjlviCz1IQ5V6uRape6bebQFhqsGgylr2y/h34qt5znnVoB6AnY8DW1Xb163LRxMTASx6QDVYjrUCBBt5lwhdpbPvqUrVXn573QY8u2YNSqtb/2ApII1V9a/rlhyLo8ePs0IHFpW1tXhn4yY88vmXHRKQxgwejBuOPw5Hjh2DQKdRBTqClAHdw4ATjwarh45fTAcHm0ZSr1CZC6y8D9j3CVCuKhSdvQOsMCaPBRbfAgydD4RGo7lsC5oy/ovm8i1qexD8Yo+Af8qP4Rc+ytpBEA4f6urqcO6552oLCKF/Y1fGfve73+n5jJyhoPDee+9Zvs6zevVqvPvuu9o6hmKIr6DFS0pKihaWhg0bpudniomJ0eF857BDNT4+HoGBgS3L7mT//v2t5vqxrY849B9FNcJltarA0lqJ1l5lZWV67if6KRjRmq+qSr2TfASvCQW3E088UeeN1+xQOemkk7S45Qw/DLn99tv1ulQSfU9/FY/c4e+x98Qjwkqg3aFvh1ni0fChqgzxIh4VFqO5pZPfe0UyOjoSI1KG6bIoNNSIR+ZozsczUDxKTTugLY8qKipViHv6rY+XqBq/kzyKR+laNCkrLYefaiRTEKOjWmKObeOnLaIoHk2dOskqHz0LGJ4EG09ihzdhx45L661dO/for0MNrvEYx6RhnadfM2bNmIFkWh6pqM7H9HR8ZzovHoVh1JhR+v6HhzuJRyq+3sPpWI61zopHxE8P75eYmIARWjzyzbPfFaQcHxiIeNQOHI6M1ivbHwVK3epo/FnHxgDjLzeiQfQYIEhGGTls4bOw/CIgcyOrCa4MigeWPKueh4lWgGAj7xKhqxzKe4oC0hNfr8Ib69ajrsHZfNTBUPW7vfGE43DipIH5u6UF0uvq+jz+5ddtCkgJMTG49thj8YMZ0/SH5J1FyoDuYcCJR4RzXXCIo14nY5WqCL6tfjV5VkAn4RdGk84ERp8ABASplmMlmgs+BQIj1Y1dDPh7Hu5CEPo7d955Z7dblgi9g10Z4/Kyyy7T6zYcfqyz8+W0BUWkZ555Rs971BcYOXKkXsbGxmLy5Ml6nbCjePbs2W2KTOXl5di2bZvlA7788kttGdTXoJh21VVXabG3M/NTtYf7XE/k7bff1vNAEakk+p7+KR45NTisVX69Fh0TiZl9QjyyaXYZts62bKTgkJ2Vi4Pqt15YUITmll3UCtd1jd61Wk/xKGU40xmiz8+IHfbxnI9pDVunxaN8VJTb4pEdxzVdG0/iEUk7kKFFk9LSMu23w/VcU7rhR6fyopINCqZ4FItp06e4WB7ZAotNRwUbG/d4tt8Wj+oaGnSYPor645qm87GbtbiYnJyoztH1uN6OYa/n5ubjYHYucvixC4/llKyJpv5wyQ3qPy2PxoweqUXDMIpH9g4qDteYts6x+u983I4PW2cfz1geJSYOFvFI6FVEPOoALAcyPwY23QPkZ5jCwBn+pikijb0IGLwAiJ8OBMdaG4TDiu//D9jxqir0Lb9NompTnPymeqFGWwGCjbxLhK5yqO+pgtJSPPbV1/hk2w7UeBFHEqKi8ZNjj8ZJ06bqeXwGSqnNOnJhRSXeWLsWL337PWrqPQtsJNA/AMdNmoTrjjsGw+MGWfXnjiNlQPcwIMUjQgHp17/+de9aILEiyIkNOSfSocJfToiqJHTG9FkQ+im0OLr77rtFODqMsCtjtJChpZE7K1asQFJSkuU7dJh+qarAVVZW6qHXSkpKtNu4caPOw6ZNm6yYwqGSmJiI+fPn4/jjj9dWRtHR0XrCenYoUyCLi4tr6QTvCvv27cOpp55q+QyhoaF6iD0bqST6nn4pHrHOpGu9/KPW1X8tHvXEnEct4pGp8+ms2HmhgqKVIDoGuopHzpZH2Vk5OMg5jwqL9IfHpgGl/yh0gi5ERIQhWf02hw0f5mTJYsez9zNQPNq3PxV5+YWorLC/cPeeNvEmHqWmpiP7YA7KysrNeapgh8UR5Y9m41fbAgL8ERMbpee+oxWSPicVroUSc5H0ujfcBZz2yKZ4tHsvauvqW9I3+W69rv82N2mrqKHJSfqjBmfaO3ZOTp4W0XLy8s35qhR5yNb78Eh+CFHtkmHDkpGsjsXn0hyf10ot9D4qRAe6ptEZ8Yi7Md8U9JPdhq3rS0g5PjAQ8aiDsOAoVvWcDX9Xhdj3qsC2wp3hz57zJI+5ABg0TRXQC4HwYWab0IdR95bzG+WvM+uxk4Go0WaTO57EI1YRRh8DHPOU8QsuyLtE6CpdeU8VVlTg359/geXbd3oVSMJDwnDJoiOwdPo0DFPt587UafsjnG90r6oXv/Ld9/ho8xY0NDVaW7xDAemUGdPw46OOwvC42E5ZIEkZ0D10vRenn8LOZ34JzXlT2BHFBnOPwwc+KEyVFgmH7sLiRTgSDmt0Z5b6jfK3yt+sCEeHJ+wcPUpVBtyhWNgVaKHDIdl27NihLXM4bBuPxa/wKVZdcsklePjhh7Fq1Sq8/PLLuOOOO3DllVfihBNO0JZB7h2FghGJeK8uuOAC/RHGE088gS+++AL/+9//cPPNN2P69Ol6jih+yc7h8SjYcdhACnV79uzR8yc5Omw7z1133WWtOfD07AhCK5weO/0Mav+hP4tdoSM/AY/NItYd1X/H7nYsR4hJ24TX1zdoAae2phaNjfY4N9zmEGZalnrdWmlJ99AwRzBpWFlWmOO4oDZQFOOQeRT469Q7v61rw7x6Kj+8hXvDIWQRS1BRa44UuN0Rq7KySrtOHMJgxXcczRzLFUeijepacEhRvqsaWu6XiaF3s9NrnUg72PGNeEV0SKfTEQShV+BvNW46sFDViyf+EIjyIPjyt11eB2x+AVjzG2DDX82Qd/nfq23u45wJfYLi7eoePQls/DvwzS3qvv0S2P6Iuo+pVgQ3qnNbD1lHg91BM8y6IAh9ivjISNx4wvE4eeokBAd67leoqq3GM199jYe++ArrMjJ1XfBwpVLV81ft3Ye/f/gxlm3c1CHhiDDex1u24dnV3yCzuES1HRx1Z6FnGLCWR4IgCELv4/wlD4eU8yQM0KKEliUdpaGhQQsWnBOH4gU72SgCcRg4Ckdc8gt5rtNxnY7x7DA7Ho9LAZNDxDEfa9as0UvODUTXmc7K/gTna4qKitLDwE2YMAEzZ87UFkW8RrQApPUWrws7fXm9ueS14DqtvGxHvx1mb6fj/eDQc7RQ6oxAx0n8OaSfOxzK8qKLLrJ88oVRT9AvLY80prNcz7+j1gMDA/ScR7Q8sq0vuvuLP8/D1jnDcsT5mM3WnEecqyhel0eE4g+HQaPlTH5+Ifz8zfxCZn8Fk1C/s+ZmChQmPcYIUPEmThqv0hqiRV29yYprQ5mEws2+1AMoUGmbOY+c8+WI64zHOY9UuhnpmchW51xcUqqOx3BncceRpj2CXnBQIOIGxWLEiBHaStEMrccsOh2XGdfnZ1n7tJyjI577vXP3Mx4tgfbs3ocabXlkngMracbgH4UdxuM1ISo6EkOTkzFq5Eh1ni0x+KeFlnxZ0K+HrTuYh9z8fDTrhq7T+bTCHJPJjx47CsOGDUWo0zOpU+bujOR0XNKu5ZE+Ga44zi86KhJJ6v4NTxkqlkdCryGWR51F/YZri4AD7wK7XwTyD7RdrFBYSBgHJB8NxI4Hhh4HhCSYbULvwFFnspcDJTuBPPX852x2tSSjMDjndmDsxVaARZOK9OFStY/bPY9Qb40l/1Uv5EVWgOCMvEuErtId76li1YZ9etUafLhlK8qrvc8xPCIxERfNm4cjx47B0JjDZxhK1om3H8zBqn378Nba9SiqKLe2dI5A/0CcqtpsP168CMNjY1zq3d6QMqB7EPFIEARB6DWcK2M7d+7EmWeeafkcvPHGG3o4o45AwSg1NVWLGexwpTBhC0GsXNh+5232dg6zRrHIFpLagsKJ7SiMUKTavXs38vLysH79euzfvx9ZWVnIzc219ug7sHOWLFiwQFtgjRkzRgsyYWFh+jpwOFe69kQd06lqHL+SLyoq0tfBFpRs8cgWkig62et0jMdrTQswe/6n9uC8VbQWc+err77C0KFDLZ9UEnuC/iseGdRjq/vT+funeMQ5bcLCfDNXZMfFI7vcadLD1qUMG4rBLsPWNaOwsBhZ6txycvN0dF2Jt/7wt2hwlF88R7qoqEhVxkWpc1XlnPqtB9jlnHUdCK1/DubkoaSkVP2ma1SInS9ip+2Kt2HrKNBwrp/8gkIvexoYW+Vc5aEZwUHBiImN1sNcRkSE6/LIpGkdXZ8fBRZLNLMSpp9zEbHM4tCD9DM9kxM7/9zdiDu56hz37U9DRWWVKovM1528Bkzevob0m32ZOw5v6I9wladY9Z7gNaQIx/xRfGTZac/VZB/DhoIOr0V6ZhZzrkLsbVbmXfxqXf2nWMXhBmPUsQYNitPvJR4rwM8foeGqnA7gdTFCk82hiEd8JpKGDJZh64ReRcSjQ6ShGshfC+x+Gkhf6So+eIKvkYgQYMhCIGaCKrwXA4PnqfC+99s/LOGHChx2MPtLoHQPkLsGKC8DPH10HxcDzP2jqrC7tYnK04BPzlL7O3U8s6hPGA6c+o7Md+QFeZcIXaU73lOsH1bU1OCdzVvx6jffIres1NrSmrDQMBw9YTxOnDIJR4wahdB22uR9naKqaqzaswcfbN6Czaqe2pa10fjBQzAqPh5f7N7tNR4FpJOmT8FPlyxBkmrbtIeUAd2DiEeCIAhCr+FeGTvmmGNw8OBBy2e44oor8Pvf/97yeSYjI0MPicbhfmxhiJ2OtkDkLBRx3RaLaPlid8w5d/h1JxRQCgoKdKWRSwonFFs4RBOh4ELhxYaiyoEDB3Q8b3CuCve5oGgpxHAej+IPz43rHGaOcw8lJCToc/cVPD+KaTw3zidVWFioj28LSFxyO5e2wGSH0dKAVk4pKSlWap7hc8Dh8ZyhZdT7779v+QxSSfQ9/VM84m/ctdM+INAfMdF9QzxiGcQ1ige0PPIkHlWpBhitetIzMqENWVpOyRaPjKhgbzIYQSMkNAQR4WEIUuWDFsn1PzuGmRuOQ7MxvxzuzoE+gEc8i0fNqkwr1eJRZmaWY4Sdlrw60Oes8t3MWGobRYwwVSaHhoXo8/an1RLPh/vxj4rPfzoZ9YdLjnvOdIKDgxARGY541ejUcyfprc5XwQhKFODS1TUsUEuWQQY7Hq+jyZftt7EFqkh1jKBA9U6hoKPOOVo9PzHRMYiOad2AraioUu+0HOzdt9/KjUqXSbcky7wrrz5Bg86nCuP5REZGIDjIXAsei+8r1XbTx+RcUTbtz3nk7jeCoohHQm8j4lEXaFb1RA5vlvYOsPcFoMTT+8UNFgWsCsaoOmTMJCBuKjBiKRA9Tm0z7xqhG6nKUo2Uj4GC9er+7AZK1f2qVeGOIt+VcOWm/FRVbn8EhLpZiKW9BXxzm0rT8hN+tzD5ImD+ncYvtELeJUJX6c73VLVq9y7ftl3P97O7jY9MOcfPUFXfWzRuLE6aOgWTkxJ1PbA/wXP97kA6lm/fgfWpaSgoK9N1XE/4q/NdPHECzps9CylxcXjt2+/w6voNbQhIKv6kibj55BORFNW2gCRlQPcg4pEgCILQa7hXxl599VX83//9n+Vz4G3oOgoVTIMWR+y4tC1mbLGIYRSG6OeX4vyinSIKOxdNR+fhB4UZClLu4owvhSNPMB8Uy7Kzs/U8Rxzqjp3TdMyTLSTZjvGnTJmC+fPne7zXHIpw1qxZls/Bo48+ihNPPNHyGaSS6Hv6pXike+ldV2k5EhsdhWnTpyBUD+nWupO9q3RKPFKrFFKGUDwaPgwJetg6fxOu/nCZmZGF/aoRVquHXTMptJxYC+Y8HKKEWqoghtohOoa+EM77MtSKSOwxxW2/Gw7xiNYwpuORDcPamjp1zvnYty8VDeo3zzCdksuxeHhTDptzM+KOPpQ1bB0xYpHrfmg2GWKovmfNTfpehkdEYJJqTMbFcSgLHcWCMZmKHyrKK5GXm48DGZm6rDQ4XX/1h+8Hc+30EXQMnQcrTB+TwcobGRGOoUOTMWbMaLdjGivVnJx87NqzBw1qXe9u7WdWbPHIltiUR2/XEVpgECMGqnyNHj0aw4YPVdfcIfi0Lx4RcyzC5DlsXXJSokqLc9SJeCT0DiIedRX1Y64rBfLXA9sfBrK3eLZm8QSL3xDlIocplwIkzAFG/xCIGK6Ki8Ozjtwj1KoyOP0D4OAKoCIdKN+vGizqPrV8SeEBls2xMcDs3wFJx7QWjsh3vwF2veFqZcb7d/JLwOD5xi+0Qt4lQlfp7vdUjaoPbs3Kxv++/R6r9+5FYxuWOKFBwRgRPwhHjBuHM2fOQEpcrP5oqi/ToNr021Wb560NG7BZ1bVzSkpVW8D5ozRXQoNDsHTGdFwwby5GDBqkrf2LVHvppVWr8fK69V4FpADV7lg0fjxuXXpymwKSlAHdg9QKBEEQhD4DLY888dZbb1lrDtjp99JLL2Hr1q16/iEOi0YxyXYUK2zxhEO1seIwefJkDB48+LAVjgjPzZ6XiNeFoguH0XN0IvcMzAeHxaPgs3jxYj2sHO8F7xsd88gl80nHe/bNN9/gueee03533n33XWvNlWnTpllrgtA+ur1lt7nUT4KWLf6BgS0NsZ79nThnxtYLjDChLU0si0gtWvgZQcNYukRjiCrHjOUJe6O43TUtHWalZZyK2+wH1Z5jqHa6H0sf097X3l8FMjPKMVmdtMY5DlHpaj+FHxNiwoDgkGBt2RITG6sFfIMVicKPJf40qR3p9DYG6U3qj7Y4CtBL099GP8NNHHXDLD/PxezDxmV5ZTkqqyr1/E3O2PnjrhxmLj4hHuHhofo627TEYZp2ntQe5vqZcHUT1Aqvu1rX5+CHquoaPUcUxSH3CXx57rRUGqQa+7T40rhGUTAde8l0VQS9avmV0/dMBbNBXlFdhQpVrncOcw7O0JIqMMhhddvT7whBELoD9fsNjgWSVf154X3AnJ8Z65WOwMK1Wrn8LODAN8CWR4DPLgA+PRf4/v+Akh06mtABaguAbQ+b6/fJOcC6O4DUL4CcfUClKlvNi8wzfKWMWawaQU8CKad7Fo7qSoCCjeolYPkJi+6EKcCgmcYvCEK/gMPQzR6RgptPOQkXLTwCUWHeC+2a+jrsycnVlji/euVV3P/5lzhYVmZt7XvsyM3Dn957H7e/+TY+3bINmRyJpA3hKCEqGlcffRSuWXwURsUb4YgMUm2IS45ahIvnztFWRp6g6LZmz17c9+En6poc2hxKQscxd0YQBEEQ+gAUGyjuuPP2229ba4YdO3bggQceQE5OjhZIKDxwaYsQdOwIo7Bw/PHH63l9DmfByB0OX8drUFFRgfLycj1EHudj6i1o9TRz5kwsXboUc+bM0ffCvk90vHfMK+8f54q6+x3pAa0AAC+XSURBVO679TCEzrzyyivWmgPOlcRnRhjosNPbdu6YznftmtkBb5a2YKGHOgsPB8UVI3v4AnN8R/pO+dVBZpuJ1awr57SipMihhYuWrTqCHppt8OAEREVGIIgCE4PdTt0IAtY+GhPBpGe2+OkjOcchjq0ap1V9EL1uB9DPdJ0jEZWyup4RKn9DkxPVeYRozUWrH4znEp1hdM4pNOnymxZYtoij/6lVff9UTL3Vyo+9N7dRvGlSjclmp68UHaKI2ZeiW7i6tolDEvU1tFOwhTjOl6ThtdLp89gqzMqLvoJWPtiU4jEblWs5jBO83pwriZZJHDLQeag5fS+UM/s53wt9UOt4NuZ4zEdDQz3qlbMicaPC2qcN9DXVadIZSy3myTwrKgWdl3YSEQShb+IfCESNBiZdA5z0GjB8Rud6elj88budokIga5uqaL8KfHwW8O5RwOeXAvtVHay+73ZY9ji0Fs1ZDay8EVh2PPDeEmDDA0DmBiD/oBlariMWYBwU4Ni7gSPuBQapexZAUyIP5K8DqlW6zkU0i+6JP5Z5qwShH8KPwYbGROO6Yxbj1lNOwvBB8daW1rAeShHpQEEBXlu9Bpc99iRuef1NrM3IUPXPtpTpnoGWVO9v246rn30eP/nvs/hs8xbklpagvg3RiHXpKSkp+OsPz8GlC49AvKqPu/fVUEC69OijcMGc2V4FpIamBqzZswcPfrocBZ3+sEroDJ2pUgiCIAiCT2Gl4d57VQPKjfXr1yPXGhd4w4YNePLJJ/WQaBQdbEcLGwoQZO7cuTjrrLP08D6ehkA73LG/puccUPb8Qxs3btTWPr0J78W4ceNw3nnn6eHp2FHJe2eLSPY95DB3Dz/8MDZt2qT345xW27Zt0+vO/P3vfx9QoqDQUewOchvL39IxbtZtESE2OkY9R7RyMR3o3YVLRzyTtZ0zOooJpCTC44eHhyMyIkIPJWby47ojBa+Y2BgttMeohmdIcIi11T6eie98KswK/UzP2qqXjn3c0HHNqiMG19ziW+foyCcxyxCVz4SEQdpxiDTm26TpSMd5L1fUdp22iedYGtiQNkvCK2cwybsKOY57apb0BwQGqHzFIz5+EKIiI7XfZM5OmbHpV64lMXV/7HU7SRsVbLbYcR0EBwUhfpC6DupY0VFRCA7kdXAWi4i9rvZ3uZbE9WDNFKqszgJmx3Gu3vdhuiYul816TqiIiDAtRNICSRCEwwH1Ww6KMCLEcf8FTnjADGvWWVimsM+PFjMFeUD6d8DK24HX5wJvLwS+vlZVzD4A6gfQl96cX6poM/D9H4BlJwKvTQE++xGw9xMgP0NVuGsBVrE70487/njgnM+BkT8w1kb6veCFnFVAtfNkR4pBQ4ylkiAI/RLWR0NUHfHU6dPwj/PPxdKZMxAZGqZKcu/1siZVQFfUVGPljh246bkXcdETT+Ghz7/E9qxslHE0j/p6baXuC1h/ZNqcy6hQtdlX70/FHcs+xHmPPo6/vPk2tqano66+jjVOa4/W8OOyWNXGuWzxItx/0QWYmTJcC2mOurorcSruJYuOxLmzZugh/DzBkQdW7NyJf3/2OXI4r5KjYix0IzLnkSAIgtBreBtDmEPMFRUVWT4DLVYeeugh3H777Vow0MM6KUerFvrZ4Tp16lScc845PT6/T1+Ecwh98cUX2vKIogwdLbEWLVpkxeh9KGZxnqvNmzfrIew4H1JDQ0PL3Ei0vvjzn/+Mn//851pAdIbzVnGYO0/I2Ma+p6/MU8EGgnODg/5t1pxHevizFljddfi5KSwkFMNThmHUqJGq4aICnKN3AruR4q3hw2ebcx5lHcxBWVm5is+47CQyHfkahqlFYKA/UkYMR1JSEmJiXMfvdj5X7kaLl7y8fJV2DnJz89zO10Y1QVWwOYx1LAsT1mTS5K7ab6dh72c3QFsiKOw4zdacRxP0/DuehFzmmfPx5Kn8ZR88iKLiEvXbVmmqJNiANHnwhKcN5rj2aZp96THXkgF+fk2YPGkihiQORlhY6w8HnO8VV6ura7S4vj81AzWqMc682enrtGlhpNI0x+G+ytnbTVJMVF+HqVMm62HgKMaY9JkfK47aqb6+Qd2nfGSzga+eAzMXlIf7owO4Yvwtz4q637xfiUMGY+iwZPWMJFrn46fz7ZjzqEDv45Kmhs15k46e60ilwXw7P1d9CSnHBwYy55GPqa8Atj8KrH/ctTjoKiwy+J1SqPoTPR4YfjIw6qzDZ74kCmM5K4AD7wJ536uXRZkRh7rjGsaEA0epe5KoyjgOz9oeNQXAV1cBWW7DCJ70IJCy1PII3pB3idBVeuo9xXrht2npeOrLr5BRVITymhpdb+sIIUEhGDooDtNSUjBv9EiMiYtFWFAQQgKDVHsnGMGqjh4YwGG6Wa9su87HI9KiqV7lp0a1y+uU4zyrpVVV2FdQiG9T07AjKwv5ZWVauOkIWjQKD8fkYcNw1eJFmKzqoc5DR7fHQVXHfXbVKnyyfScq6+z5Sl0JVud32swZuHzRkRgaG6OOac5TyoDuQcQjQRAEodfwVhmj9dHjj6uGrhu2tQo7KTmXBJcUimjR8tOf/hSTJk3y2IE5UKHlzvfff68tkGjRQ2HmjjvusLb2DSgS0aqIlkYUk+hnZ7u9jRVLWpu5c9111+HWW2+1fK5IJdH39MUOP3aWs5mwZ88+3UnPDiwjfthVXVobGcGZQ8INUo2smJgYPfeNc0Oqs53ppgPf0Rhz99fW1iE/Lx95+fmoqqpREVS4+m/Ho9gQHBSo8xQdHYVYNvjCQj2K4PY+Bj/1m6lHZUWlFonLys3Qj/VagLXPm3lw3odYYToth8DBofzq6hpU47VJCwx2uN7bimvgBuX8mpFE8WjCeIR4EI/s68i0atVvu7KySuezXOezWosp+uNIO1mN7XEJtLAtjNRfnTnj+I/54z/GGDNmFOITBmnLLW/YeWtsaNTzI1VUVKO0rBQVKn+1tZwvj0PmtUQ2h9KrJtD9XifEx2PcuNF6nireTzt9ZxhWp54FzldUWlreMlRnfX2j3tbSQWDvp708Jwv61TWPU88Hrc6GDHHMi9HY2IzSklIt0NHaVGfYSo4L/g6CggMRGhKKiIgI/exHR0fqZ0zfI7fz6gtIOT4wEPGoJ1C/7/JUYMPfgANfGqsiq3zodvjaClV/wpKBpMVmLqb4aUBAmNrA8kU5PZ8dnXpn2M6nqJNlGUfrIdYJdGen/fJRrjoPOPi1cl8BRVvVS7tMOStKd8E+Un7PMONXwNgLgeAYHdwhKGCt/QNQ6jQk04iZwAmvqWvXd8rsvoq8S4SusnLlyh79MLVAtds/2roNX+zYiQOFRahQ7eKOikiEHxBFqDZFfHg4hqk644iEwRiq6nyxEZGIDg3RQ14HUkVSBKq4Tapc1CWiOkSD+lOj6uxl6phFqn2RoeqU2SoPB4uLUVBZoUWkzuRFi0YqL2OHDMHSGdNx/JRJWtQ6FDILCvH8mjX4bMcudU1az49MKJadPmsmLlm4AMNiY1U9v0HPvSx0HRGPBEEQhF7DW6cB5zI6+uijLZ8DdvxyKDpbNKI/OTlZiwijRo2yYgk2HAruiSee0PMIUUDicHCzZs3Cbbfd1udEtrS0NNxzzz3IzMzUohGh2JWamtrSsenMGlV5TEjwMKmwQhqKvqfvdfjZz4gf8vMLUaEaPBQVOG+OCWWMZgT4B2jhOUQ1nijUBKpGBrc4d5p76vjvDM4d8Vyn5Y2e16u8QgsmzI1peNEZKxXOPxOq8hSpGnZBwbSmNOGecM4fD0WhqIECiDqGseCzxSMLRnJPy2RRBVsrCuazSJUR5RVVqKvlnDrOMMcqLqOrtLRgo66tFo8mTmglHjlfA0IvrSGZP14LLvn7NnNQ6Rg6nsYpT61Qm/RWnazZ1+SFq9zSpK0Sw8PD9H32hus1VHuqXe0hUCke0arLOgUTlytWvphn+3IyDlfDwyO0YOVqdcQtViJWHgnLt5qaWlRXVaNG3y92aDLnjGvHd+DYkzSr5yQMkZER2tlbmV+mWVZWqgUpCpTmejCG+R3wGQsODkF4WDhCtTgZ2JJPLnVc+8T6AFKODwxEPOpBmlS5XrAe2PIvIG9d9wsk3uCrga/aoAAgOA6ITAFiJys3AYgeB4QNVnGszkRdBjk5269FJjucqDJLF1v8o06ColCLn9vspVo0VgOVWUDpbqBkO1C8C6jJBeoqjDWR92k5ug5fQ7TOGnMhMOnqzltm8Z6tvR3Y+aYjnxShzvhIXbuxxi+0ibxLhK7y0ksvYezYnvu9sU5GK6S03Dx8vXcvNmVmYW9+AYrLy626YudhXZD9JsGqbqydWmdJxCGm+SEVh6OjcFRLiyPVptAforX+wqvDsL01JCYGE1U7Yd7IEVg0biySYmP1EHVdIbOwEC+sXoOPt+1AVb3n4fgpIJ0xayauPmYxig8exKWXXmptEbqCiEeCIAhCr9FWp8Ef/vAHvPzyy5bPAS0FQkJCdMcg1//xj39g/Pjx1lbBHVoe3X///Vo84vBM/Nr9zTff1HMP9TW2bNmC3/zmN1rkYkczK6/MtzvXXHMNfv3rX1u+1khD0ff0pQ4/3fHNviWrgaO7+q3arekLp8e506k1js7+7qOtNM02rjk67olz/I7kyd7XU7y20rWvhfNu9XUN2J92AHl5BVp8UzFVXLON8YwVF3cw4gnTSUocjEmTJrYMW2fn2T1fznlxxmznNs/b28Mk6xBsKJJwnf8YbuenYzjywb/2XjyGs8jm2GJjjuWOOba9zjToMdfUU56M2GMdhwsVxT2WFawx6bMR7vk8GUY8hTuHOfs9pdNbSDk+MBDxqBdoqAFyVgK7nwYKNgDVDUDHRh7yDSxyaJljO/9AtQxW4daSVkt0gSEqTEdQhRVFd+UorjRUKafeWU3qPOhvqqNKr5YqKs+LzipaewxqYZHRwNATgIk/BqInmPPqLMVbgW9uAw7uMX6mO1/5J15lXQuhPeRdInSVG264AT/60Y8sX8/BOlmtagsfLC3F5sxsbMrMxKb0DGSznazr5H0PDo03ZnACpg0fjlkjR2D60GQMjozU1k7dRVZhIZ5fvQbLNm9FvZdh88KCgnHneedi38oVePTRR61QoSuIeCQIgiD0Gm11GuzevRunn+55IlgOU0fLI86Hc+aZZ1qhgic4FNxpp53mYtFzzDHH4KmnntLrfY333nsPv/vd77RVAp0n3n//fUyYoBriXpCGou/pex1+7JQ3Xeum79u5M9z4vXWM+7LD3OTJYI5Bvy0g6GALehyiC2kvT13Pt7lmJgkOgdeA1LR0LR5xaLnWadvfOxpphmKHbXnkbc4jYp8T0+tKnrW4oq+bdZ1UMiYnPIZeqG3O17a943EnnaqK2d6XkOYAzml7wvPxnPNk0nHd33Na3rCvA/F2biYf5riMbOLxenjeR19PC+/Xq2eRcnxgIOJRL9JQDeSuBva/AhRuAsqLAHejU6HjsOgMUS46BUhcCIy/zMwHZVtVdRZ2Du9SdfVN9wD8noN9rxPOAOb+GQiK1lGE9pF3idBVOFQwP7zkXLy9BYeULqquwv68fGxOT8eWrIPYkZuL8soKK0Zv4oeEmBhMTUzErFEjMDk5GSMT4vVwdfa8Q90Nh9F7YeVqvL15i9d5l35z+ml46g+/R35+vhUidAURjwRBEIReo61OA1qe0MJkxYoVVkhrNm7cqOdvENpm/fr1uPDCCy2f4bnnnsORRx5p+foOpaWlmDdvnuVrDYczfPLJJ712VBNpKPqevigedQzTiHHu5Lc7zruz09yRpv6r19np7+kIjOkQQdjhb/LWXn7cz6Hz+eeRzdEJxaP9qQ7LI52e+a9j6Y4s7TPxGUrLo4ltiEd2vrgkzuuk01lWmOvofUeTfnvXz86DvXTPuyOPzpjzsTwK60jG4yVPjnPXCyfsY7hvcPjdj+fA87FcMem7ptG+gNT2des5pBwfGIh41AegiEQLl/2vmzl/incDnqeTELwRo9oiMROAwQuAMecDkcNUYdrFL+1r8oDvbwf2fmEsskYuBubdYYa+69A7QCDyLhG6gzPOOAO///3vLV/vwZpaVW0tClU9PbukBFszs7ApKwu7c3JRWlWl6nI9Y5HEuZKGREdj0tBkTBs2DJOHDUViVBQGR0YguIfmh+LcUM+tWIk3Nm5uJSAlRMdgQVU5Pnj7bStE6CoiHgmCIAi9RnudBpx/YubMmZbPFYa//rpq6Aod4pxzzsHWrVstHzBnzhy88sorlq9vcd5552HTpk2WzxWGh4eHWz7PSEPR9/TtDj9WbencO1ccftOhbvx2pzk51I5z5/SI5454d/HF4L4vhXP628uLp3Og3z09dxzb7etkhJO6unrs3rMPBYVFej4eJsl4dlLOw9Zp/Izl0cQJ43tQPNJ2N1YO+NfhM9jWNkzbu8Dseg2Iypf6Z6dktnOtJaTlL2PacA8Tg3/tuDaOvNjYx9Th6vo59nXG4Xfkwzq+Wpg0XPdxnI83uL+dhvdnq/10eg4pxwcGIh71ITjkW0UGkP6esUQq3aWWeXbRIbhDK6P4SUDkcGD4KUDy0SpskArspjI0+0tg3e/VfcgBUo4BZv3azBHVmTmTBHmXCN0GBSQOm96bFkjOsL1Q09CAipoaFFVWYr+qv2/LzMKO7IPIKipCSW2tiuTZKqez+AcEIiEyEmPi4zFl2FBMTErEyPhBiFFt8nB1PUICA3u8/sg6a2F5OZ5fuRqvb9jYIiANjo7BvPpafPjaq9ovdA8iHgmCIAi9Rkc6DX7+85/jww8/tHwOaDVD6xmhY+zZs0cPX+fMs88+i0WLFlm+vsPZZ5+Nbdu2WT4HS5cuxYMPPmj5vCMNRd/Tlzv82Jgg7o0Y945xb/G6Qttp2lXuQ8+DHZ94Oj/CcG/xGO5xu/LW1NZh67YdKCkp1UISAynA2Ps3c34Jl04xa9i6SRMREhLUoWHriLu/K9jnY+Pu7ziuX2oaIYnn036ePW+jQGTnxTkNhtnrZpt7mnZ6Nma72bct4Yd4zgsx+9vH9BaP4W2l35NIOT4wEPGoL6LKh7oSIH89kP0FUJEOFKj18lpr+wCGxkSDhgOxk4GYicDwE4HosUBAqNnenfCap75l0h57gTmOCEedRt4lQnfCIezOP/98LF68GCNGjNDD6Pc2dp2uSS0bm5q0Kywu0aNd7i8qQlZuPrLLy3CwsBAFtbWoqKpCQ32DW80Xeoi5kOBgRIaEYEhMDIYOisPg0FCMSojH2ORkJESEa4ujgADlVJ3fV0PSdRYKZ2+v34h1+/cjqqYa2z/6ELnZ2dZWobsQ8UgQBEHoNTrSaVBeXq6tZDyxevVqXYkTOsYf//hHvPTSS5ZPtX8HDcLXX3+NEFVJ7CscPHhQz8nkDjum165di6ioKCvEO9JQ9D19WjyyOsptmxAHvmvkeOp0bxVmNe5UoLVq/J72s2mrI7+jHf3e8kYYzvXa2joUFhZhf2oaKml11GSsYxy7ccXZ8sjsn5Q0BJMnTkCwJR45H8v5GDae8tJbuObFcc0dOM7D+Zy85d+xzU7LSFD2c8jtGuV1pGCuf1vXxLGfSc15b2fsdFriO8H5j8x+3o/T15ByfGAg4lEfh9ZIVQeB/LVmSLvyvWr9e6CiwVHUHe5QMIobDiTMBKLGqOVc5Z8IBA9SRaoPxRxe+/oyVQEOA4KU60fld19C3iWCIAhdRz5dEARBEPo0FAtuueUWy+fK/fffb60JHeHHP/6xtWYoKirCF198Yfn6Bvfdd5+15sqtt97aIeFIEHqji7ytzn8HjpzZ0T3tZ4e1lyZFgvr6Bm0lVFtX59V52l5XX6/Da2pqUVZWjrz8fOTm5WnrIwpHxPXw7r2EtIAxoq5/gD99JrSdPPddmG9311Xsq2LgtdHXR1/Kjh/DcU07to/ne9CxYwmCILjgHwREjgBGnwPMvBWY80fgiHuAeTcCk04BBsWZ+XgON2hIlDJDnfPl6nx/Byz4KzBbLadcDyQdBYQkqGLVx11pvPYh8UAQh2qWMlwQBEHoPcTySBAEQeg1OvrFKec+WrBgAWo5dq8bf/3rX7X5uNAxHnjgATz88MOWz7Bu3TpER0dbvt7j73//O5566inL54BzHNHqqKNDA8hXhr5HvhbveZwtVDjOOcWf6poaLQTZgk9HYSo0UGlsbEBJaZkeqq6srEyF2p1h7aSn8uHv74dhQ5MxZdJE+Kl1j5qFIBwiUo4PDORd0g/RLw9VH68tgB7SruIAUJkNFG0Gcteo9X7YvUQBbPBYYIgqdziHUcQwIGq0qoAmA4GR6tVI8yOhPyLvEkEQhK4j4pEgCILQa3Sm02D//v045ZRTLJ8r1113nbZMEdqnuroas2bN0p3PNpxX6qabbrJ8PU9jY6O+f8uWLbNCXPnkk08werRqxHcQaSj6Hunw6ymcq+lc99e/l0pOjJt2ANVV1WhoML9lM1xZ56r1HB+9qbEJDY0NaGxwntPIWMm4pmlvM2GRkREYNmwoRo8aqUNFPBK6EynHBwbyLjkM4PBqjTVAbZGqZOYplwNUKVe2D8hV97ckE+A0en0Fvquiw4HB84C46UBEMhCWpFyicoONWBTACfHlpXY4IO8SQRCEriPikSAIgtBrdKbTgB2mP/vZz/DZZ59ZIa4sXLhQD2MXHx9vhQjeoOURLZCc+eabb3rl2lEU5H3ds2ePFeLKSSedpPPrbTJ+T0hD0fdIh19PYarp/Gu6sfxQXV2DgoJC7EtNRW1NHZqanOe66Vy13swPxVTtTjJHZ5lJ0/K05MAcg9uGDxuK5OQkVW7EWcc2+whCdyDl+MBA3iWHIc0NqtJOQakKqCtTrgSoKQRqlavIBkp3ASU71FKt11n7+AJaE0WGAzETgbipQNRIIw5xyLmQWCA4GgiMAvxDVFxaFsn763BE3iWCIAhdR8QjQRAEodfobKdBTU0NjjzySFRUVFghrnBYs3vuuQennnoqAgNliIm2OPbYY5GdrRruFkuXLsWDDz5o+XwPLaBefPFF3H333VZIayIjI7FmzRqEhnLw+Y4jDUXfIx1+PYuzOFNaWoacnFykZ2ahod7ZWqiTVXo/FZ//vQo/9DuHMV4zAgL8ERoSgrFjx2DIkARd7op4JHQ3Uo4PDORdMhDgi6YJaFLvKwpLTXXQw941qmWDqs/XlQP1atlQafzNfK8dAgGqrhgYYSyHgqOMOMSwgBAjEHEOIc5T5KfaB/KuGjDIu0QQBKHriHgkCIIg9BqH0mnw8ccfa0uVtmAH5ltvvYXJkyd3ymJlIPHOO++0Gupv586dCAjw7czHtCBbsWIFrr32WivEO0888QSWLFli+TqONBR9j3T49R7FxSXIzs7BwZwc1Nc3ornZ6gTza+rEd9OtY+oGQbM9rxKd3URQ69qrtqlFeHgohg5NRlJSIiIiwkUwEnyClOMDA3mXDHQoLPFdY71vnNc7Dd9VfB85LYUBj7xLBEEQuo70qAmCIAj9Cs57dMUVV1g+z/Ar+LPPPhsnnngiXn75ZS1YCK6cfvrpSElJsXyGc845x1rrfmhpxKHyFixY0CHh6Morrzwk4UgQDlds6x7CfjHby3UKOH66Wt9JR+FJi0/2wHVmXTsdznhqtclYHMXFxeh5jhIThyA0NEQfVxAEQRAODfUO0dZAAcb5ByoXdIiOFkVMh+8teTcJgiAIQnchlkeCIAhCr3GoX5yWlZXhhBNOQElJiRXSNtHR0bj00kv1cHa0RpIOT8OOHTvwgx/8wPIZKLbNmzfP8nWN+vp6rF69Gu+//762BOsoQ4YM0RZmHLbuUJCvDH2PfC3e81A8YtlVUlKqh62j5VFDQ5PpKGupzXesWm+kIrpmS4SylSj7jxXD31+LRkGBAQiPCMOgQbEYFBenfpsRrcpRGbpO6E6kHB8YyLtEEARfIu8SQRCEriPikSAIgtBrdKXTgPMezZ492/J1HFrb/OIXv8DChQuRkJDg82Ha+jK0yDr55JORnp5uhQAjR47U1kEUfqZNm4bjjz8eycnJHZ5DiveluLhYi0UPPfSQFdo5NmzYcMjCEZGGou+RDr/eo7y8HPn5BSgoKECTVYtvUita7OmobkOrIvNfi0da+HFLwM/fT5WPgQgLDUN0VCTiBw1CSGiwKgtal5muVlGONAThUJFyfGAg7xJBEHyJvEsEQRC6johHgiAIQq/R1U6DZcuW4eabb7Z8nSc4OBhXX301Lr74Yi2QDEQqKysxa9Ysy+eZGTNm4NVXX21TaFu1ahUef/xxbWnUFf7zn/9oq7KuIA1F3yMdfr0HRV+Ku/X1DQ7RxhKCOoe1h0qjpTHAIDtJPz/t/P0D9G+fopG/v9mH4bYllCD4AinHBwbyLhEEwZfIu0QQBKHriHgkCIIg9Brd0WnAeXQefvhhy3foxMXFYfr06drqZtGiRZg6dSr8/c18H4c7bFgVFRVZPs9ERUXhnXfe0ZZbhYWFWLt2LdasWaOthLZv327F6hq33HILfvrTn1q+Q0cair5HOvx6CvdqeveINR0fYo7xvMcRAUnwFVKODwzkXSIIgi+Rd4kgCELXEfFIEARB6DW6o9OgoaEB1157LVauXGmFdB8UkZYsWaKHbxs8eLB2ERER1tb+Dzt+77zzTjz//PNWSNsMGzYM1dXV7QpNhwKv86OPPtrh4fHaQhqKvkc6/HqKviAeERGQhJ5FyvGBgbxLBEHwJfIuEQRB6DoiHgmCIAi9Rnd1GlBA4tw9GRkZVogr8+bN05Yy3UF0dDTOPPNM3RhZunSpFdo/yc3NxeLFiy2f7wgLC8Mpp5yCt99+2wpxhdZMn3zySbcIR0Qair5HOvwEQfAlUo4PDORdIgiCL5F3iSAIQtcR8UgQBEHoNbqz06C0tBRnn302MjMzrRBXbr/9dkyYMAEffPABXn/9dS04dRe0RlLvUwwZMgRjxozBiBEjtJUO10eNGtVnrJU4vBwFo6ysLOzatUsPOcelL+C5X3755brRRuHuD3/4g7XFFV6rd999t1uvkTQUfY90+AmC4EukHB8YyLtEEARfIu8SQRCEriPikSAIgtBrdHenAUWRCy+8UAsknvjnP/+J008/Xc9ltHr1am3t8t1332HPnj1WDN8RGRmp5w1KTEzU1ktJSUkICgrCyJEjrRhAcnKytdZxiouLUVNTo9ezs7NRVVWlJ9NPTU1FWVkZ8vLyUFFRobf7Ep7TrFmzcPzxx2srMA7xx4n9aW30m9/8xorlCq/FK6+8ooW27kQair5HOvwEQfAlUo4PDORdIgiCL5F3iSAIQtcR8UgQBEHoNXzRaVBSUqLnKqKA4ok///nPuOCCC1oNkbZq1So899xz+Pzzz60QoT0o+tC66IorrtBCmDO07KIw9Kc//ckKcYXxKeDFxsZaId2HNBR9j3T4CYLgS6QcHxjIu0QQBF8i7xJBEISuI+KRIAiC0Gv4qtOAAtIZZ5zh1QLppJNOwiOPPGL5XKHoVFRUpC16OMzbsmXLsGLFCmurQMutX/7yl4iLi9OWVN64+uqr8fXXX1s+V2hxxOvqC+GISEPR90iHnyAIvkTK8YGBvEsEQfAl8i4RBEHoOiIeCYIgCL2GLzsNOITdZZdd5nUOpGnTpuHhhx/u8JBpOTk5Wkxiepwn6MCBA0hLS/MqUB2ucL6omTNnWr7W8Lr/5Cc/we7du60QVzjHES28unuoOmekoeh7pMNPEARfIuX4wEDeJYIg+BJ5lwiCIHQdEY8EQRCEXsPXnQalpaU455xzkJGRYYW0hkIGGxacB+lQOXjwoJ43iYLJjh079JLWS7W1tSgvL0dTU5MVs/fw8/NDWFgYgoOD9fxLU6ZMwZgxY3S+ly9fbsVqmxNPPBGPPvqo5XOF50gLrWuuucYKaU1KSgree+89REREWCG+QRqKvkc6/ARB8CVSjg8M5F0iCIIvkXeJIAhC1xHxSBAEQeg1eqLTgHPvXH/99fjyyy+tkNZcdNFFuPPOOy1f90AxpbGxUTt7PT09XQ+LR7GJQ+tRXNq2bZu1B/Ddd9/pJYUeOhIQEKCXNkyHNDc3azdhwoSW4d+4Hh0drfeZOGkiGhsatVCTlJSk5xhiONN1nu+JaXDOom+++cYK8Q7jxMfHWz5Xbr31VrzzzjuWrzVLlizRwpP7XFO+QBqKvkc6/ARB8CVSjg8M5F0iCIIvkXeJIAhC1xHxSBAEQeg1eqrTgALSv//9bz1MnTdGjRqlt0+cONEK6T6qqqqQmpqKuro6hIaGtlgA0dmiDpe0frKdLR55g4IUhR9bmOI52o7HoTBVXV2tl0x73Lhx+tieYP4ee+wxr/NAcf6oO+64w+McRxs2bMAvfvELLYh545ZbbtEWST0hHBFpKPoe6fATBMGXSDk+MJB3iSAIvkTeJYIgCF1HxCNBEASh1+jpToNly5bh5ptvtnyeuemmm3DVVVfpod26Aw6dR4sdCkQUb0JCQrR4RIsgZwHJXnZUPLItjygc0ZqJghEd12tqarRwZDsKSGTRokVtDhlXWVmJV199VQ+9x/04L9Qpp5yihTV3aDn15JNPatGpLf7zn//ghBNOsHw9gzQUfY90+AmC4EukHB8YyLtEEARfIu8SQRCEriPikSAIgtBr9EanQUVFBY477jgtfrTFRx99hNGjR2sh51ChuPPWW2+hrKxMC0bh4eEtwhGXFKi4TEhI0KJSV6BAVFBQoK2IeI50tnBEUYjrHNLu3HPPbVeYagtaOu3fvx9Lly61QjwzZMgQfPzxx90mwnUGaSj6HunwEwTBl0g5PjCQd4kgCL5E3iWCIAhd59B7xARBEAShH0IxY/ny5bjyyiutEM+ceuqpuOCCC/Q8RYfK559/ji1btiAnJwfZ2dl6mZeXpx2FpWHDhmHo0KFdFo4I00hOTtZpkvz8fOTm5urh5Oh4/K1bt7Y591N78Fr84Ac/aFc44hxTvSUcCYIgCIIgCIIgCIIgCF1HxCNBEARhwEELnN/97nd6jqO2BI5NmzbpIdf+/Oc/IyMjwwrtGLT0efHFF7WVDuc7sl1mZibGjh2LmTNnaqujrlgBuUMrKVo3Me0xY8boPO/bt0+7tLQ07N27V+eJw9p1BqbD4f54LXbt2mWFtiY+Ph5PPPEEfvnLX4pwJAiCIAiCIAiCIAiC0I8R8UgQBEEYsHA+nzVr1uDEE0+0Qjzzwgsv4Pjjj8ddd92lrXk4dFt7cAi5bdu26fmDaH20c+dOLUZNnjxZzyXUleHw2oNpz5o1C5MmTdLHZh6Ylz179uh15q09eI4UunjOPHfOF9UWp59+up7bacmSJVaIIAiCIAiCIAiCIAiC0F+ROY8EQRCEXqOvjHXf2NiIAwcO6CHZOEdQe8yZMwf33XcfUlJSrJDWrF+/HhdeeKHlc7B9+3YEBQVZPt9SX1+PKVOmWD4Hb775JqZPn275WkNrqd/+9rf6HNqDlk7vvvuuvha+FMQ6g4xv7ntkngpBEHyJlOMDA3mXCILgS+RdIgiC0HXE8kgQBEEY8AQEBOhh3r777jvcdttt7YogFFVojXP22Wfj5ZdfRmVlpbXFAYfG80RhYaG15ntoOeSJiIgIa81BeXm5PpczzjhDW2S1JxzxGnHov7Vr12LkyJF9RjgSBEEQBEEQBEEQBEEQuo709AiCIAiCBa1orr32Wi2ILF261Ar1DoeC+8Mf/qCHiKPo9P3336OiokJvi4uL00t3fvazn6Gqqsry+Y6ysjL86le/snyuDBo0SC+ZV+aZeac1Fc+lrTmNbE477TQtLl155ZU9ZkUlCIIgCIIgCIIgCIIg9BwiHgmCIAiCG1FRUXjwwQf1HEVHH320Fdo2b731Fi655BLMnj1bL0tKSvS6O0xz5syZKC0ttUK6n4yMDMydO1cfyx3midZPV111VUtemfeOcMEFF2D37t144IEHPFovCYIgCIIgCIIgCIIgCIcHMueRIAiC0Gv0h7Hum5qasHfvXi2wPPnkk1Zo90CLpVtuuQULFy60QrrGN998g3/84x/YuHGjFdI9XHPNNVpkamuOp76EjG/ue2SeCkEQfImU4wODFStWIDg42PIJgiB0H3V1dR3+CFAQBEHwjohHgiAIQq+xcuXKfjXsWUFBAZ555hm8/vrr3Tp3UUJCgp5niNZC48aNw6hRoxAWFmZt9Ux1dTXS0tK0sLVu3Tp8/PHHOn/dRVJSEs466ywtHMXGxlqhfZ/6+nosXrzY8gm+QsQjQRB8iYhHAwN+lDN9+nTLJwiC0H1s2bJFt2MEQRCEriHikSAIgtBrvPTSSxg7dqzl619wXqQ77rgDO3bssEK6H1r6TJw4ETExMdrPoe44JxGHpfMVkydPxl/+8hfMmDHDCulf7Nu3T1tJCb5FxCNBEHyJiEcDg0mTJuHZZ5+1fIIgCN3Hj370I+zcudPyCYIgCIeKiEeCIAhCr3HDDTfoin1/hUPa0dpn8+bN+Ne//qXnA+qPTJgwATfffLMWjGgF5e/ff6dEZCfUI488YvkEXyHikSAIvkTEo4HD7bffjjPPPNPyCYIgdJ333ntPfwwnCIIgdB0RjwRBEIReY/DgwXjzzTcPm/Hus7Oz8fXXX+sx/LmsqamxtvQtQkNDcdRRR2HJkiU45phjMHToUGtL/4Zjm5977rnIz8+3QgRfIeKRIAi+RMSjgYUISIIgdBciHAmCIHQvIh4JgiAIvcoZZ5yB3//+95bv8IJzEr3zzjv46KOPtLBUVVVlbelZwsPDtUBEweicc87B1KlTrS2HF3feeSeWLVtm+QRfIuKRIAi+RMSjgQeHsLv11lv1cL2Hy0dFgiD0DPyAjEN733fffTJUnSAIQjcj4pEgCILQ61BA+vWvf33YdhY0NzejoaFBu4MHD2LlypX48MMP9bxJvmDevHlYunQpFi9ejKSkJAQFBSEwMBB+fn5WjMMLNhjvvvtuEY56EBGPBEHwJSIeCYIgCIIgCELvI+KRIAiC0CfgEHbnn3++FjxGjBihBY+BQHV1NSoqKpCXl4eioiItMBUWFur5lEhmZiYqKyv1OsUfzk9kr8fHx+vrpN7liI2N1cuwsDC9/XCnvr4e6enpWoh77bXXZKi6HkbEI0EQfImIR4IgCIIgCILQ+4h4JAiCIAiCIHQKEY8EQfAlIh4JgiAIgiAIQu/jby0FQRAEQRAEQRAEQRAEQRAEQRAEQcQjQRAEQRAEQRAEQRAEQRAEQRAEwYGIR4IgCIIgCIIgCIIgCIIgCIIgCEILIh4JgiAIgiAIgiAIgiAIgiAIgiAILYh4JAiCIAiCIAiCIAiCIAiCIAiCILQg4pEgCIIgCIIgCIIgCIIgCIIgCILQgohHgiAIgiAIgiAIgiAIgiAIgiAIQgsiHgmCIAiCIAiCIAiCIAiCIAiCIAgtiHgkCIIgCIIgCIIgCIIgCIIgCIIgtCDikSAIgiAIgiAIgiAIgiAIgiAIgtCCiEeCIAiCIAiCIAiCIAiCIAiCIAhCCyIeCYIgCIIgCJ2ivr7eWhMEQehepHwRBEEQBEEQhL6BiEeCIAiCIAhCp0hPT7fWBEEQuhcpXwRBEARBEAShbyDikSAIgiAIgtApVq5caa0JgiB0L1K+CIIgCIIgCELfQMQjQRAEQRAEoVO89tprqKurs3yCIAjdA8sVli+CIAiCIAiCIPQ+Ih4JgiAIgiAInSI/Px9333235RMEQegeWK6wfBEEQRAEQRAEofcJCAsL+5O1LgiCIAiCIAgdYvfu3cjJycGRRx6JgIAAK1QQBKHz0OLor3/9K5YtW2aFCIIgCIIgCILQ2/gNGjSo2VoXBEEQBEEQhE4xePBgnH/++Vi8eDFGjBiBoKAga4sgCIJ36uvrkZ6eruc44lB1YnEkCIIgCIIgCH0LEY8EQRAEQRAEQRAEQRAEQRAEQRCEFmTOI0EQBEEQBEEQBEEQBEEQBEEQBKEFEY8EQRAEQRAEQRAEQRAEQRAEQRCEFkQ8EgRBEARBEARBEARBEARBEARBEFoQ8UgQBEEQBEEQBEEQBEEQBEEQBEFoQcQjQRAEQRAEQRAEQRAEQRAEQRAEoQURjwRBEARBEARBEARBEARBEARBEIQWRDwSBEEQBEEQBEEQBEEQBEEQBEEQWhDxSBAEQRAEQRAEQRAEQRAEQRAEQWhBxCNBEARBEARBEARBEARBEARBEAShBRGPBEEQBEEQBEEQBEEQBEEQBEEQhBZEPBIEQRAEQRAEQRAEQRAEQRAEQRAsgP8Pa06hjuYfhyEAAAAASUVORK5CYII=;" parent="1" vertex="1">
          <mxGeometry x="2490" y="1450" width="651.5" height="153.28" as="geometry" />
        </mxCell>
        <mxCell id="fasyP74kSTeA-cHdXuYK-3" value="" style="shape=singleArrow;direction=north;whiteSpace=wrap;html=1;" parent="1" vertex="1">
          <mxGeometry x="2670" y="1594.7" width="30" height="40" as="geometry" />
        </mxCell>
        <mxCell id="fasyP74kSTeA-cHdXuYK-4" value="" style="shape=singleArrow;direction=north;whiteSpace=wrap;html=1;" parent="1" vertex="1">
          <mxGeometry x="2780" y="1594.7" width="30" height="40" as="geometry" />
        </mxCell>
        <mxCell id="fasyP74kSTeA-cHdXuYK-5" value="&lt;font style=&quot;font-size: 18px;&quot;&gt;Access to dict using:&lt;br&gt;&lt;br&gt;from openqaoa.backends.qaoa_backend import DEVICE_NAME_TO_OBJECT_MAPPER&lt;/font&gt;&lt;div&gt;&lt;font style=&quot;font-size: 18px;&quot;&gt;&lt;br&gt;&lt;/font&gt;&lt;/div&gt;&lt;div&gt;&lt;font style=&quot;font-size: 18px;&quot;&gt;DEVICE_NAME_TO_OBJECT_MAPPER =&amp;nbsp;&lt;/font&gt;&lt;/div&gt;&lt;div&gt;&lt;font size=&quot;3&quot;&gt;&lt;div&gt;{&#39;vectorized&#39;: openqaoa.backends.qaoa_vectorized.QAOAvectorizedBackendSimulator,&lt;/div&gt;&lt;div&gt;&amp;nbsp;&#39;analytical_simulator&#39;: openqaoa.backends.qaoa_analytical_sim.QAOABackendAnalyticalSimulator,&lt;/div&gt;&lt;div&gt;&amp;nbsp;&#39;pyquil.statevector_simulator&#39;: openqaoa_pyquil.backends.qaoa_pyquil_sim.QAOAPyQuilWavefunctionSimulatorBackend,&lt;/div&gt;&lt;div&gt;&amp;nbsp;&#39;qiskit.qasm_simulator&#39;: openqaoa_qiskit.backends.qaoa_qiskit_sim.QAOAQiskitBackendShotBasedSimulator,&lt;/div&gt;&lt;div&gt;&amp;nbsp;&#39;qiskit.shot_simulator&#39;: openqaoa_qiskit.backends.qaoa_qiskit_sim.QAOAQiskitBackendShotBasedSimulator,&lt;/div&gt;&lt;div&gt;&amp;nbsp;&#39;qiskit.statevector_simulator&#39;: openqaoa_qiskit.backends.qaoa_qiskit_sim.QAOAQiskitBackendStatevecSimulator}&lt;/div&gt;&lt;/font&gt;&lt;/div&gt;" style="text;html=1;align=center;verticalAlign=middle;resizable=0;points=[];autosize=1;strokeColor=none;fillColor=none;" parent="1" vertex="1">
          <mxGeometry x="2540" y="1750" width="890" height="240" as="geometry" />
        </mxCell>
        <mxCell id="BoGS4aAAfHkfW7UOT88U-1" value="&lt;font style=&quot;font-size: 18px;&quot;&gt;These 5 are the supported frontends in MITIQ.&lt;br&gt;&amp;nbsp;Because OpenQAOA has only PyQuil and Qiskit&lt;br&gt;as suported frontends, we could manage to just use&lt;br&gt;&amp;nbsp;these two in the integration.&lt;/font&gt;" style="text;html=1;align=center;verticalAlign=middle;resizable=0;points=[];autosize=1;strokeColor=none;fillColor=none;" parent="1" vertex="1">
          <mxGeometry x="3160" y="1480" width="440" height="100" as="geometry" />
        </mxCell>
        <mxCell id="m6ZnrqRHQ1WVJu8mJZUh-2" value="&lt;font style=&quot;font-size: 18px;&quot;&gt;&amp;nbsp;&lt;b&gt;I think&lt;/b&gt; every backend(local simulator,cloud simulator,cloud QPU)&lt;br&gt;is mapped to one of the above backends. The above backends just are&lt;br&gt;encharged of mapping the OpenQAOA gates to the supported framework(e.g. qiskit) and&lt;br&gt;style of backend used.(e.g.shot based). Of course, there is other logic related to actually&lt;br&gt;connect to the different clouds and run circuits on cloud backends.&lt;br&gt;&lt;br&gt;What i mean is that&lt;b&gt; the part of translating OpenQAOA circuits to Qiskit/pyquil circuits is done&lt;/b&gt;,&lt;br&gt;the same as the part of&lt;b&gt; running the circuit either in local or cloud device&lt;/b&gt;.&lt;br&gt;&lt;/font&gt;" style="text;html=1;align=center;verticalAlign=middle;resizable=0;points=[];autosize=1;strokeColor=none;fillColor=none;" parent="1" vertex="1">
          <mxGeometry x="2570" y="2110" width="820" height="190" as="geometry" />
        </mxCell>
        <mxCell id="nMAG1uxeFGJoEQDclgrH-1" value="&lt;font style=&quot;font-size: 14px;&quot;&gt;Device(could be&lt;br&gt;local,cloud;simulator&lt;br&gt;or QPU)&lt;/font&gt;" style="html=1;whiteSpace=wrap;" parent="1" vertex="1">
          <mxGeometry x="2560" y="2440" width="190" height="80" as="geometry" />
        </mxCell>
        <mxCell id="nMAG1uxeFGJoEQDclgrH-2" value="&lt;span style=&quot;font-size: 14px;&quot;&gt;Backend&lt;br&gt;(the way of doing the computing,&lt;br&gt;e.g statevector calculus or shot based)&lt;br&gt;&lt;/span&gt;" style="html=1;whiteSpace=wrap;" parent="1" vertex="1">
          <mxGeometry x="3050" y="2420" width="190" height="120" as="geometry" />
        </mxCell>
        <mxCell id="nMAG1uxeFGJoEQDclgrH-5" value="has it owns..." style="text;html=1;align=center;verticalAlign=middle;resizable=0;points=[];autosize=1;strokeColor=none;fillColor=none;" parent="1" vertex="1">
          <mxGeometry x="2852.88" y="2428" width="90" height="30" as="geometry" />
        </mxCell>
        <mxCell id="nMAG1uxeFGJoEQDclgrH-6" value="" style="shape=singleArrow;whiteSpace=wrap;html=1;arrowWidth=0.2554740905761719;arrowSize=0.09640193693225435;" parent="1" vertex="1">
          <mxGeometry x="2785.75" y="2460" width="244.25" height="60" as="geometry" />
        </mxCell>
        <mxCell id="nMAG1uxeFGJoEQDclgrH-7" value="" style="shape=curlyBracket;whiteSpace=wrap;html=1;rounded=1;labelPosition=left;verticalLabelPosition=middle;align=right;verticalAlign=middle;" parent="1" vertex="1">
          <mxGeometry x="3270" y="2380" width="20" height="200" as="geometry" />
        </mxCell>
        <mxCell id="83oCL5G0ssJQfUV6CG-g-1" value="Agnostic QAOAcircuit&lt;br&gt;" style="text;html=1;align=center;verticalAlign=middle;resizable=0;points=[];autosize=1;strokeColor=none;fillColor=none;" parent="1" vertex="1">
          <mxGeometry x="3315" y="2420" width="140" height="30" as="geometry" />
        </mxCell>
        <mxCell id="83oCL5G0ssJQfUV6CG-g-2" value="" style="shape=singleArrow;direction=south;whiteSpace=wrap;html=1;" parent="1" vertex="1">
          <mxGeometry x="3370" y="2460" width="30" height="60" as="geometry" />
        </mxCell>
        <mxCell id="83oCL5G0ssJQfUV6CG-g-3" value="Specific BackendCircuit" style="text;html=1;align=center;verticalAlign=middle;resizable=0;points=[];autosize=1;strokeColor=none;fillColor=none;" parent="1" vertex="1">
          <mxGeometry x="3330" y="2540" width="150" height="30" as="geometry" />
        </mxCell>
        <mxCell id="83oCL5G0ssJQfUV6CG-g-4" value="translate to..." style="text;html=1;align=center;verticalAlign=middle;resizable=0;points=[];autosize=1;strokeColor=none;fillColor=none;" parent="1" vertex="1">
          <mxGeometry x="3400" y="2475" width="90" height="30" as="geometry" />
        </mxCell>
        <mxCell id="83oCL5G0ssJQfUV6CG-g-6" value="The backend mapper used in compile()&lt;br&gt;has the next goal:" style="text;html=1;align=center;verticalAlign=middle;resizable=0;points=[];autosize=1;strokeColor=none;fillColor=none;" parent="1" vertex="1">
          <mxGeometry x="3255" y="2345" width="230" height="40" as="geometry" />
        </mxCell>
        <mxCell id="83oCL5G0ssJQfUV6CG-g-7" value="to be run ...." style="html=1;verticalAlign=bottom;endArrow=open;dashed=1;endSize=8;curved=0;rounded=0;edgeStyle=orthogonalEdgeStyle;entryX=0.5;entryY=1;entryDx=0;entryDy=0;" parent="1" target="nMAG1uxeFGJoEQDclgrH-1" edge="1">
          <mxGeometry relative="1" as="geometry">
            <mxPoint x="3330" y="2560" as="sourcePoint" />
            <mxPoint x="2665" y="2560.5" as="targetPoint" />
          </mxGeometry>
        </mxCell>
        <mxCell id="VwMZzlmCgoIAHPhgJxlk-1" value="1" style="text;html=1;align=center;verticalAlign=middle;resizable=0;points=[];autosize=1;strokeColor=none;fillColor=none;" vertex="1" parent="1">
          <mxGeometry x="2980" y="2447" width="30" height="30" as="geometry" />
        </mxCell>
        <mxCell id="VwMZzlmCgoIAHPhgJxlk-2" value="n" style="text;html=1;align=center;verticalAlign=middle;resizable=0;points=[];autosize=1;strokeColor=none;fillColor=none;" vertex="1" parent="1">
          <mxGeometry x="2780" y="2447" width="30" height="30" as="geometry" />
        </mxCell>
        <mxCell id="TTp6jP6CqjhxUZk7MxtZ-7" style="edgeStyle=orthogonalEdgeStyle;rounded=0;orthogonalLoop=1;jettySize=auto;html=1;" edge="1" parent="1" source="TTp6jP6CqjhxUZk7MxtZ-3" target="83oCL5G0ssJQfUV6CG-g-1">
          <mxGeometry relative="1" as="geometry">
            <Array as="points">
              <mxPoint x="3590" y="2432" />
              <mxPoint x="3590" y="2432" />
            </Array>
          </mxGeometry>
        </mxCell>
        <mxCell id="TTp6jP6CqjhxUZk7MxtZ-3" value="&lt;span style=&quot;font-size: 14px;&quot;&gt;QAOADescriptor&lt;br&gt;&lt;/span&gt;" style="html=1;whiteSpace=wrap;" vertex="1" parent="1">
          <mxGeometry x="3670" y="2372" width="190" height="120" as="geometry" />
        </mxCell>
        <mxCell id="TTp6jP6CqjhxUZk7MxtZ-9" value="has as attribute...." style="text;html=1;align=center;verticalAlign=middle;resizable=0;points=[];autosize=1;strokeColor=none;fillColor=none;" vertex="1" parent="1">
          <mxGeometry x="3515" y="2410" width="120" height="30" as="geometry" />
        </mxCell>
      </root>
    </mxGraphModel>
  </diagram>
  <diagram id="l6tVIrNfxlELfaFrqCTL" name="Conclussions">
    <mxGraphModel dx="2003" dy="473" grid="1" gridSize="10" guides="1" tooltips="1" connect="1" arrows="1" fold="1" page="1" pageScale="1" pageWidth="827" pageHeight="1169" math="0" shadow="0">
      <root>
        <mxCell id="0" />
        <mxCell id="1" parent="0" />
        <mxCell id="wCOlYckyQ_BHrE_Ihl15-1" value="&lt;font style=&quot;font-size: 18px;&quot;&gt;&lt;br&gt;&lt;br&gt;&lt;b&gt;&lt;u&gt;Conclussions&lt;/u&gt;&lt;/b&gt;:&lt;br&gt;&lt;br&gt;* &lt;b&gt;We can add the different MITIQ noise mitigation technique in the same part where the native &quot;SPAM Twarling&quot;&lt;br&gt;error mitigation technique is added&lt;/b&gt;.This is inside the compile() method, after setting up the backend and before&lt;br&gt;.setting up the optimizer.&amp;nbsp;A good way of adding this logic is creating alternative workflows depending of which&lt;br&gt;technique was choosen by the user(using &quot;if conditions&quot; or &quot;switch conditions&quot;).&lt;br&gt;&lt;br&gt;*Because our goal is to just implement ZNE, but to leave open the door to other developers to add new MITIQ error&lt;br&gt;mitigation techniques, &lt;b&gt;we could create an own MITIQ library or API to encapsulate or the logic related to the&lt;br&gt;different techniques.&amp;nbsp;&lt;/b&gt;&lt;br&gt;&lt;br&gt;*&lt;b&gt;In my opinion, creating an API will be better that a library for future modifications.&lt;/b&gt; That means, a library outside openqaoa_core.&lt;br&gt;Creating a complete library for error mitigation techniques inside openqaoa_core will works if we are just going to have&lt;br&gt;MITIQ integration.But, if in a future other developers try to add other error mitigation frameworks to OpenQAOA, it will&lt;br&gt;be better to have different APIs for each error mit. framework. Is the same that happens with qiskit backends and pyquil&lt;br&gt;backends. Each one has it own API.&lt;br&gt;&lt;br&gt;*&lt;b&gt;In my opinion, i wouldnt focus on adding all the other MITIQ frameworks supported to openqaoa.&lt;/b&gt; Our modification&lt;br&gt;could work just implementing pyquil and qiskit. Adding all the other frameworks will include an extra time and i&amp;nbsp;&lt;br&gt;think is not part a main goal of our project. Maybe could be an extension of the project to be done in the future by us&lt;br&gt;or other developers.&lt;br&gt;&lt;/font&gt;" style="text;html=1;align=center;verticalAlign=middle;resizable=0;points=[];autosize=1;strokeColor=none;fillColor=none;" vertex="1" parent="1">
          <mxGeometry x="-325" y="125" width="1100" height="510" as="geometry" />
        </mxCell>
      </root>
    </mxGraphModel>
  </diagram>
</mxfile>
